<?xml version="1.0" encoding="UTF-8" standalone="no"?>

<svg
   width="100%"
   height="100%"
   viewBox="0 0 211.66665 211.66666"
   version="1.1"
   id="svg1"
   xml:space="preserve"
   xmlns="http://www.w3.org/2000/svg"
   xmlns:svg="http://www.w3.org/2000/svg"><defs
     id="defs1" /><path
     style="fill:#ffff"
     d="m 14.591562,183.68809 c -1.608366,-0.99819 -1.517428,0.62274 -1.517428,-27.04739 v -25.20645 l 0.907994,-2.52977 c 0.499397,-1.39137 1.421865,-4.39012 2.049929,-6.66388 3.773962,-13.66278 5.491885,-19.90603 6.621367,-24.063282 l 1.272762,-4.68462 0.0063,-27.742342 c 0.004,-17.753547 0.100372,-28.150319 0.267541,-28.875436 0.698903,-3.031577 3.203611,-6.271695 5.907314,-7.641765 2.967835,-1.503916 -1.379567,-1.422264 75.725969,-1.422264 76.8565,0 72.77242,-0.07442 75.63921,1.378292 2.6886,1.362421 5.03115,4.176188 5.99911,7.205874 0.23231,0.727132 0.32121,8.024564 0.3541,29.067994 l 0.0439,28.09713 4.21825,15.244549 c 2.32003,8.3845 4.79081,16.99738 5.49062,19.13973 l 1.27238,3.89519 v 24.72894 c 0,27.23329 0.0722,26.01201 -1.59934,27.03115 -0.81007,0.49389 -1.28567,0.52146 -8.99433,0.52146 -7.70867,0 -8.18427,-0.0276 -8.99433,-0.52146 -1.53241,-0.93428 -1.59934,-1.38242 -1.59934,-10.70793 v -8.40572 H 105.83333 34.00309 v 8.53944 c 0,9.43474 -0.02785,9.61597 -1.627432,10.5913 -0.774801,0.47242 -1.342755,0.504 -8.966237,0.49846 -7.06756,-0.005 -8.228403,-0.0614 -8.817859,-0.4272 z m 12.891892,-12.67785 -0.06911,-6.39496 -3.940328,-0.0167 -3.940328,-0.0167 v 6.41163 6.41164 h 4.009437 4.009438 z m 164.649526,-0.0646 v -6.45955 h -3.86708 -3.86709 l -0.0732,6.45974 -0.0733,6.45975 3.94033,-1.9e-4 3.94033,-1.9e-4 z m 0,-25.97915 v -12.80166 l -0.63421,-0.63421 -0.63421,-0.63422 H 105.86805 20.871537 l -0.668924,0.79498 -0.668924,0.79497 v 12.6409 12.6409 h 86.299641 86.29965 z m -2.70274,-21.24019 c -0.19903,-0.51657 -3.87447,-13.96413 -6.57122,-24.042503 -1.06711,-3.987999 -2.11163,-7.334377 -2.52825,-8.099854 -1.37996,-2.535432 -4.43531,-4.637577 -7.46048,-5.132959 -2.18735,-0.358186 -131.723555,-0.340826 -133.93475,0.01795 -2.189976,0.355333 -4.156462,1.349911 -5.728339,2.89719 -1.486225,1.462966 -2.351034,3.037602 -2.952141,5.375225 -0.374623,1.456857 -7.474854,27.805291 -7.810705,28.984951 -0.122414,0.42997 3.977547,0.45217 83.515675,0.45217 79.55546,0 83.6359,-0.0221 83.47021,-0.45217 z M 35.633714,80.287379 c 1.099057,-0.339464 2.857628,-0.563321 5.423898,-0.690432 l 3.79753,-0.188097 0.002,-7.9105 c 0.0011,-4.350776 0.122474,-8.666269 0.269779,-9.589985 0.728933,-4.570974 4.09524,-8.389218 8.464373,-9.600742 1.594253,-0.442073 3.033064,-0.476163 20.097246,-0.476163 10.876616,0 18.923129,0.102992 19.710341,0.252284 4.336754,0.822448 8.090889,4.558606 9.040889,8.997597 0.18482,0.863604 0.29303,4.51319 0.29303,9.883118 v 8.513893 h 3.2152 3.2152 l 0.0792,-9.495544 0.0792,-9.495545 0.81766,-1.725892 c 1.54559,-3.262403 4.57181,-5.781805 7.83692,-6.52444 1.52864,-0.347682 4.37905,-0.405471 19.99954,-0.405471 12.51299,0 18.64553,0.09103 19.58604,0.290748 4.33633,0.920797 8.03833,4.622801 8.95913,8.959133 0.18172,0.855782 0.29075,4.552073 0.29075,9.8571 v 8.487877 l 3.29437,0.156338 c 1.8119,0.08599 3.96368,0.265185 4.78173,0.39822 1.6648,0.270736 4.38578,1.513852 5.42715,2.479466 0.37687,0.349448 0.74842,0.635361 0.82568,0.635361 0.0773,0 0.14047,-10.003125 0.14047,-22.229166 0,-19.479401 -0.0495,-22.34756 -0.39991,-23.186273 -0.50898,-1.218165 -1.28453,-2.047206 -2.4966,-2.66879 -0.93548,-0.479742 -2.68514,-0.491619 -72.4199,-0.491619 -63.72411,0 -71.564249,0.04303 -72.412442,0.397427 -1.227393,0.512838 -1.814348,1.056599 -2.418687,2.240696 -0.469014,0.918953 -0.48927,1.88963 -0.48927,23.446464 v 22.487824 l 1.681612,-1.151277 c 0.924886,-0.633202 2.413477,-1.377327 3.30798,-1.65361 z m 60.381097,-9.47766 c 0,-7.479713 -0.05743,-8.782047 -0.418731,-9.495545 -0.594658,-1.174332 -1.122804,-1.715831 -2.219392,-2.275507 -0.914222,-0.466601 -1.814329,-0.48927 -19.426438,-0.48927 -12.420112,0 -18.705992,0.09 -19.19517,0.27482 -1.0341,0.39071 -2.135192,1.493614 -2.692145,2.696575 -0.434566,0.938619 -0.479029,1.810599 -0.484182,9.495544 l -0.0057,8.462016 H 73.79392 96.014786 Z m 64.078779,-0.02906 V 62.082958 L 159.44077,60.969 c -0.38272,-0.65305 -1.11373,-1.384068 -1.76678,-1.766781 l -1.11396,-0.652822 h -18.58485 c -20.85932,0 -19.49569,-0.12402 -21.15413,1.923929 l -0.78162,0.965195 -0.12919,9.020141 -0.12919,9.020141 22.15627,-2.25e-4 22.15627,-2.26e-4 z"
     id="path1" /></svg>
