
<svg
   width="100%"
   height="100%"
   viewBox="0 0 858 489"
   xmlns="http://www.w3.org/2000/svg"
   xmlns:svg="http://www.w3.org/2000/svg">
  <defs
     id="defs1" />
  <g
     id="g1">
    <path
       style="fill:currentColor"
       d="m 405.02044,487.59453 c -4.92474,-0.80279 -11.31894,-2.1471 -14.20933,-2.98736 -2.8904,-0.84026 -57.58606,-22.38059 -121.54593,-47.86739 -63.95986,-25.48681 -143.29066,-57.02191 -176.290659,-70.078 -33,-13.05609 -63.25349,-25.24454 -67.22998,-27.08544 C 13.215433,333.77603 5.3832761,324.53743 2.0074301,311.57669 0.70331505,306.56985 0.47452105,295.59353 0.47452105,238.03591 V 170.38036 L 3.9242811,163.4847 c 4.560708,-9.11632 9.6352319,-14.87525 15.9123899,-18.05852 5.00419,-2.53773 30.28238,-12.18257 110.137849,-42.02286 52.32186,-19.551562 82.23261,-30.674182 111,-41.276472 13.2,-4.86489 45.15,-16.7933 71,-26.50757 87.3177,-32.8134798 91.5458,-34.1584298 110.58428,-35.17670976 15.59884,-0.83431 28.57694,0.86958996 42.91572,5.63441996 26.871,8.9293198 366.95103,136.3449618 372.6511,139.6188418 8.33988,4.79007 16.0238,15.843 18.22452,26.21504 1.57311,7.4141 1.56443,130.04613 -0.01,137.40156 -1.42751,6.67023 -5.0109,14.30627 -8.9642,19.10231 -6.15556,7.46776 -1.85768,5.55214 -114.9017,51.21313 -11.825,4.77638 -29.6,11.96774 -39.5,15.98079 -9.9,4.01306 -46.125,18.55782 -80.5,32.32168 -34.375,13.76387 -77.8,31.31495 -96.5,39.0024 -46.11592,18.95796 -54.39435,21.10003 -84,21.73522 -12.68763,0.27222 -20.64263,-0.0446 -26.95408,-1.07343 z m 14.45408,-85.93757 v -67.45468 l -3.25,-0.50417 c -1.7875,-0.27729 -6.4,-0.9889 -10.25,-1.58136 -13.65434,-2.1012 -23.29644,-5.29444 -74.35854,-24.62588 C 120.39337,227.52479 23.786251,191.05846 21.474521,190.42167 c -1.32524,-0.36506 -1.44175,6.55418 -1,59.38839 0.48539,58.05389 0.56003,59.90378 2.55407,63.29819 2.86051,4.86941 6.39174,6.97987 22.18221,13.25731 7.57005,3.00944 36.26372,14.37098 63.763719,25.24787 27.5,10.87689 102.425,40.67177 166.5,66.21083 117.03852,46.64931 127.34283,50.37983 141.25,51.13756 l 2.75,0.14983 z m -63.67126,-17.98038 c -3.79177,-1.67653 -5.32874,-4.23327 -5.32874,-8.86433 0,-9.31487 11.19525,-12.78082 17.22776,-5.33356 2.64274,3.26251 2.23428,8.10071 -0.97776,11.58149 -3.36983,3.65177 -6.74878,4.46127 -10.92126,2.6164 z M 296.3976,360.18857 c -2.16411,-2.1641 -2.92308,-3.87179 -2.92308,-6.57692 0,-5.08077 4.41923,-9.5 9.5,-9.5 2.70513,0 4.41282,0.75897 6.57692,2.92308 2.16411,2.1641 2.92308,3.87179 2.92308,6.57692 0,5.08077 -4.41923,9.5 -9.5,9.5 -2.70513,0 -4.41282,-0.75897 -6.57692,-2.92308 z m -57.13458,-20.97458 c -2.64557,-2.36382 -3.24305,-3.64307 -3.24305,-6.94363 0,-4.53295 2.96162,-8.56719 7.04096,-9.59104 3.94817,-0.99093 9.28623,1.88328 10.96652,5.90476 1.87494,4.48736 1.03975,7.85107 -2.7388,11.03052 -3.98331,3.35173 -7.97484,3.21876 -12.02563,-0.40061 z m -54.7885,-19.21006 c -8.45393,-3.31714 -7.68268,-16.48524 1.07823,-18.40946 11.0674,-2.43081 16.59204,13.12405 6.38208,17.96899 -3.71553,1.76314 -4.04052,1.78232 -7.46031,0.44047 z M 123.3976,296.18857 c -2.16411,-2.1641 -2.92308,-3.87179 -2.92308,-6.57692 0,-5.08077 4.41923,-9.5 9.5,-9.5 8.61636,0 12.90496,10.95713 6.42327,16.41111 -4.30472,3.62219 -9.16886,3.49715 -13.00019,-0.33419 z M 68.862641,277.13158 c -3.14831,-1.27206 -6.38812,-5.90702 -6.38812,-9.13901 0,-1.7308 1.13752,-4.12248 2.89766,-6.09242 2.34792,-2.62777 3.652,-3.24305 6.87369,-3.24305 4.61559,0 6.9979,1.66138 8.89697,6.20455 1.93707,4.63407 -0.28768,9.77518 -5.10021,11.78599 -3.94848,1.64978 -4.2451,1.66977 -7.17999,0.48394 z M 457.47452,466.46755 c 11.19512,-2.19717 25.36648,-7.39546 69,-25.31034 21.725,-8.91976 68.075,-27.69972 103,-41.73323 73.72769,-29.62514 177.46561,-71.45498 190.5,-76.81456 10.021,-4.12052 12.69924,-6.14817 15.84732,-11.99777 2.12374,-3.94622 2.15653,-4.78989 2.43928,-62.75 0.20385,-41.78625 -0.027,-58.75 -0.79966,-58.75 -0.59744,0 -2.30141,0.61933 -3.7866,1.37629 -1.48519,0.75696 -26.55034,10.39444 -55.70034,21.41663 -29.15,11.02219 -63.125,23.95015 -75.5,28.72882 -67.08042,25.90342 -218.90635,83.71324 -226.81377,86.36247 -8.41548,2.81944 -19.27495,5.11374 -31.43623,6.64158 l -4.75,0.59676 v 67.53256 67.53257 l 5.25,-0.67991 c 2.8875,-0.37395 8.625,-1.34229 12.75,-2.15187 z m 139.83835,-91.54033 c -4.61561,-1.22581 -11.08114,-6.70009 -13.20874,-11.18368 -2.26037,-4.76337 -2.31121,-28.27522 -0.0753,-34.83716 2.03624,-5.97605 7.05353,-11.72253 13.08692,-14.98892 4.38257,-2.37267 85.12943,-34.35912 98.26535,-38.92611 11.42901,-3.97354 19.46076,-1.58515 23.84345,7.09026 2.02766,4.01371 2.24903,5.89044 2.24023,18.99193 -0.009,13.16497 -0.23255,15.01654 -2.36847,19.60351 -2.97485,6.38862 -7.72158,11.82732 -13.00891,14.90534 -2.26207,1.31686 -15.81285,6.96822 -30.11285,12.55858 -14.3,5.59035 -35.45,13.88109 -47,18.42387 -22.75864,8.95129 -26.11063,9.83661 -31.66165,8.36238 z m 33.41112,-30.42019 c 14.98779,-5.83254 35.35053,-13.74672 45.25053,-17.58706 9.9,-3.84034 19.03398,-7.64272 20.29774,-8.44972 4.54631,-2.90314 6.19448,-7.18638 6.19852,-16.1086 0.002,-4.5375 -0.28903,-8.25 -0.64687,-8.25 -0.60184,0 -36.96589,14.06657 -80.23018,31.03514 -11.43782,4.486 -18.4938,7.79627 -19.12265,8.97128 -1.78659,3.33829 -1.2235,20.99358 0.66957,20.99358 0.18304,0 12.59554,-4.77208 27.58334,-10.60462 z M 450.97452,312.01837 c 13.37553,-1.67594 11.58608,-1.04967 102,-35.69805 179.21201,-68.67755 219.34614,-84.01253 250.5,-95.71437 19.67234,-7.38922 30,-12.03606 30,-13.49824 0,-2.26688 -8.40233,-5.88566 -48.68529,-20.96811 -24.64809,-9.22857 -69.56471,-26.09671 -99.81471,-37.48476 -103.13906,-38.828212 -210.52363,-78.606162 -227,-84.086522 -13.3676,-4.44632 -27.38156,-6.05483 -39.20327,-4.49972 -13.30873,1.75073 7.93636,-5.95633 -272.29673,98.780782 -114.104639,42.6466 -117.871199,44.09818 -121.459089,46.80858 -1.94545,1.46965 -1.94545,1.49343 0,3.41628 1.0775,1.06498 30.53409,12.71066 65.45909,25.8793 61.784429,23.29611 89.558919,33.79885 197.499999,74.68335 28.6,10.83273 63.7,24.11354 78,29.51292 14.3,5.39937 29.6,10.56753 34,11.48479 15.3106,3.19178 32.78626,3.66594 51,1.38377 z M 411.78743,212.0081 c -7.47576,-2.1604 -9.49115,-9.91821 -4.00251,-15.40685 4.6012,-4.6012 9.91278,-5.79046 23.68992,-5.30416 9.72271,0.34319 12.14129,0.76618 15.64702,2.73651 6.92968,3.8947 8.36174,10.22282 3.42958,15.15497 l -2.92307,2.92308 h -14.99514 c -8.24732,0 -15.59444,0.18393 -16.32692,0.40874 -0.73249,0.22481 -2.76598,-0.006 -4.51888,-0.51229 z M 254.14401,160.94656 c -2.04811,-1.14618 -4.66949,-6.03501 -4.66949,-8.70852 0,-3.65811 4.81138,-8.01569 10.75978,-9.74493 8.08609,-2.35069 25.12554,-1.55095 30.95678,1.45295 4.86826,2.50784 6.28344,4.64993 6.28344,9.51095 0,2.61966 -0.72473,4.08668 -2.9396,5.95036 -2.88746,2.42964 -3.25692,2.47351 -20.83049,2.47351 -9.83999,0 -18.64218,-0.42044 -19.56042,-0.93432 z m 308.04688,-1.79703 c -4.4759,-3.99921 -4.40192,-9.26735 0.1839,-13.09576 4.31273,-3.60043 9.97611,-4.94212 20.86105,-4.94212 11.13549,0 18.21113,1.99012 21.66363,6.09318 2.93303,3.48571 3.19783,5.80182 1.12221,9.81563 -2.23927,4.33026 -5.45467,4.99722 -23.88079,4.95349 l -16.83364,-0.04 z M 410.45893,100.46387 c -5.77469,-2.429822 -7.67096,-8.938402 -3.97366,-13.638762 3.44466,-4.37918 10.08374,-6.21346 22.48925,-6.21346 8.26183,0 12.17972,0.45518 15.73925,1.8286 8.71611,3.36304 11.19845,9.91159 5.97374,15.75906 l -2.78702,3.119212 -17.35688,0.14656 c -11.1361,0.094 -18.33454,-0.2648 -20.08468,-1.00121 z"
       id="path1" />
  </g>
</svg>
