<svg width="100%" height="100%" viewBox="0 0 41 41" fill="none" xmlns="http://www.w3.org/2000/svg">
<path d="M11.9583 11.9585H10.2499C9.34376 11.9585 8.47472 12.3185 7.83397 12.9592C7.19322 13.6 6.83325 14.469 6.83325 15.3752V30.7502C6.83325 31.6563 7.19322 32.5254 7.83397 33.1661C8.47472 33.8069 9.34376 34.1668 10.2499 34.1668H25.6249C26.5311 34.1668 27.4001 33.8069 28.0409 33.1661C28.6816 32.5254 29.0416 31.6563 29.0416 30.7502V29.0418" stroke="currentColor" stroke-width="2" stroke-linecap="round" stroke-linejoin="round"/>
<path d="M34.8244 11.2496C35.4972 10.5767 35.8752 9.6642 35.8752 8.71268C35.8752 7.76117 35.4972 6.84863 34.8244 6.17581C34.1516 5.50299 33.239 5.125 32.2875 5.125C31.336 5.125 30.4234 5.50299 29.7506 6.17581L15.375 20.5002V25.6252H20.5L34.8244 11.2496Z" stroke="currentColor" stroke-width="2" stroke-linecap="round" stroke-linejoin="round"/>
<path d="M27.3333 8.5415L32.4583 13.6665" stroke="currentColor" stroke-width="2" stroke-linecap="round" stroke-linejoin="round"/>
</svg>
