<?xml version="1.0" encoding="UTF-8" standalone="no"?>
<!-- Created with Inkscape (http://www.inkscape.org/) -->

<svg
   width="100%"
   height="100%"
   viewBox="0 0 211.66665 211.66666"
   version="1.1"
   id="svg1"
   xml:space="preserve"
   xmlns="http://www.w3.org/2000/svg"
   xmlns:svg="http://www.w3.org/2000/svg"><defs
     id="defs1" /><path
     style="fill:#ffff"
     d="m 24.778475,183.35843 c -1.49937,-0.91422 -1.627432,-1.4815 -1.627432,-7.20914 v -5.15728 l -3.947026,-0.0878 c -3.861667,-0.0859 -3.984419,-0.10621 -5.676119,-0.93964 -2.203679,-1.08566 -3.9432399,-2.82757 -4.9543072,-4.961 L 7.7773055,163.32335 V 100.0143 36.705239 l 0.8374888,-1.701181 c 1.0086179,-2.048794 2.8566887,-3.86321 4.9197657,-4.830174 l 1.477445,-0.692479 h 91.079705 91.07971 l 1.4211,0.671059 c 2.10701,0.994951 3.96943,2.806753 4.96595,4.83097 l 0.84765,1.721805 v 63.309061 63.30905 l -0.79752,1.67949 c -1.00009,2.1061 -2.79842,3.90039 -4.99099,4.97979 -1.61743,0.79625 -1.82675,0.83151 -5.69677,0.95941 l -4.01765,0.13278 -0.12919,5.46422 c -0.18478,7.81537 0.54363,7.32605 -10.90382,7.32473 -11.37309,-10e-4 -10.80028,0.40906 -10.80028,-7.73767 v -5.18047 H 105.96252 44.855143 v 5.04675 c 0,5.67183 -0.176157,6.48128 -1.59934,7.34897 -0.811535,0.49478 -1.284891,0.52145 -9.25271,0.52145 -7.873884,0 -8.448991,-0.0314 -9.224618,-0.50437 z m 13.72203,-8.98923 -0.02428,-3.29438 -4.562007,-0.0706 -4.562008,-0.0706 v 3.36493 3.36493 l 4.586283,1e-5 4.586283,1e-5 z m 144.072315,-0.0646 v -3.35897 h -4.52168 -4.52169 v 3.35897 3.35896 h 4.52169 4.52168 z m 13.85314,-10.22206 c 0.39244,-0.29301 0.95325,-0.85382 1.24625,-1.24625 l 0.53273,-0.71351 0.0665,-52.56184 0.0665,-52.561837 h -39.4938 -39.4938 l -1.7846,1.267514 c -0.98153,0.697132 -3.76007,2.726862 -6.17453,4.510511 -2.41447,1.783649 -4.68177,3.280111 -5.03846,3.325471 -1.28967,0.16401 -2.17891,-0.356996 -8.013413,-4.695065 l -5.92914,-4.408431 H 53.129792 13.849286 l 9.66e-4,52.516167 c 9.55e-4,51.94708 0.0065,52.5253 0.514402,53.35828 0.282391,0.46315 0.892384,1.07343 1.355541,1.35617 0.836899,0.5109 1.39569,0.51368 90.417175,0.44981 l 89.57506,-0.0643 z M 164.51311,89.921505 c -4.22432,-1.135982 -7.66845,-4.57346 -8.84939,-8.832279 -1.76697,-6.372265 1.78602,-12.896569 8.12514,-14.920056 6.67678,-2.131269 13.45864,1.287898 15.69423,7.912463 0.46446,1.37628 0.54138,2.100481 0.46341,4.363188 -0.0861,2.498461 -0.16939,2.872568 -1.05346,4.730585 -2.58616,5.435306 -8.65937,8.284445 -14.37993,6.746099 z m 5.15497,-6.184919 c 2.57858,-0.909776 4.11975,-3.115261 4.11975,-5.895556 0,-5.444259 -6.34807,-8.139231 -10.35144,-4.394542 -2.00026,1.871002 -2.57575,4.459758 -1.51323,6.807008 1.41288,3.121245 4.64748,4.575931 7.74492,3.48309 z m -57.47313,-29.192113 6.39858,-4.780069 H 105.85324 93.112943 l 6.295597,4.771824 c 3.46258,2.624504 6.31635,4.775535 6.34171,4.78007 0.0254,0.0045 2.92547,-2.142787 6.4447,-4.771825 z M 84.645993,50.958167 c 0,-0.05398 -0.621241,-0.56719 -1.380536,-1.140462 -0.759294,-0.573273 -1.528365,-1.399209 -1.709047,-1.835413 -0.471614,-1.138576 -0.149839,-2.447625 0.79761,-3.24485 l 0.79104,-0.665617 22.99376,0.06868 22.99375,0.06868 0.62169,0.722815 c 0.75005,0.872066 0.9999,1.750642 0.76453,2.688434 -0.16234,0.6468 -0.45932,0.963415 -2.59379,2.765212 l -0.77515,0.654336 35.60457,0.0082 35.60457,0.0082 -0.077,-6.570428 c -0.0848,-7.231585 -0.0783,-7.201672 -1.85601,-8.528962 l -0.71353,-0.532729 -89.29742,-0.0657 -89.297415,-0.0657 -1.126032,0.545103 c -2.016471,0.976156 -2.142277,1.497509 -2.142277,8.877763 v 6.340656 h 35.398353 c 19.469095,0 35.398354,-0.04417 35.398354,-0.09815 z"
     id="path13" /></svg>
