<?xml version="1.0" encoding="UTF-8" standalone="no"?>
<!-- Created with Inkscape (http://www.inkscape.org/) -->

<svg
   width="100%"
   height="100%"
   viewBox="0 0 211.66665 211.66666"
   version="1.1"
   id="svg1"
   xml:space="preserve"
   xmlns="http://www.w3.org/2000/svg"
   xmlns:svg="http://www.w3.org/2000/svg"><defs
     id="defs1" /><path
     style="fill:#ffff"
     d="m 37.710326,190.73407 c -4.574608,-1.1147 -8.01728,-4.67265 -8.869529,-9.16655 -0.175607,-0.92597 -0.263732,-26.57146 -0.263732,-76.7487 0,-82.25903 -0.102793,-76.593463 1.445084,-79.648051 1.01321,-1.999474 3.106185,-3.941358 5.458802,-5.064734 l 2.010299,-0.95992 67.89237,-0.06651 67.89237,-0.06651 1.61243,0.538785 c 4.03077,1.346853 6.72901,4.256873 7.81576,8.429183 0.33743,1.295459 0.38495,10.876433 0.3816,76.937637 -0.004,81.5157 0.0691,77.06091 -1.31096,79.76604 -0.65829,1.29035 -2.57753,3.38275 -3.98205,4.34131 -0.56844,0.38796 -1.73116,0.98411 -2.58382,1.3248 l -1.5503,0.61942 -67.30855,0.0441 c -53.244178,0.0349 -67.58672,-0.0237 -68.639774,-0.28028 z m 135.722044,-7.06729 c 1.32394,-0.68894 2.32058,-1.84794 2.66954,-3.10443 0.18007,-0.64836 0.26734,-20.68995 0.26832,-61.61612 l 0.001,-60.655216 h -70.5379 -70.538329 v 60.476206 c 0,45.24616 0.07597,60.77791 0.301668,61.67423 0.407925,1.62002 2.076864,3.30122 3.570232,3.59646 0.596505,0.11793 30.810495,0.20743 67.142199,0.1989 l 66.05764,-0.0155 z M 47.368802,171.63634 c -1.402831,-0.43636 -2.62341,-1.51558 -3.324535,-2.93952 L 43.43404,167.45748 43.36486,132.72237 C 43.2869,93.578576 43.167824,96.083838 45.203079,94.048582 45.835194,93.416468 46.703319,92.855626 47.310622,92.687029 48.0528,92.48099 64.59231,92.399938 106.10558,92.398902 l 57.76228,-0.0014 1.31343,0.65451 c 1.50564,0.750293 2.4976,2.021941 2.91584,3.737987 0.20034,0.821986 0.26172,11.346871 0.20944,35.915121 l -0.0739,34.7524 -0.60456,1.22763 c -0.74549,1.5138 -2.07339,2.64206 -3.54597,3.01286 -1.65416,0.41652 -115.369132,0.35647 -116.713298,-0.0616 z M 161.64388,132.18832 V 99.37378 H 105.83333 50.022785 v 32.81454 32.81453 h 55.810545 55.81055 z M 60.435211,114.62879 c -2.284308,-1.39283 -2.097545,-5.09298 0.307793,-6.09799 0.763186,-0.31888 7.231596,-0.37203 45.279846,-0.37203 42.49729,0 44.427,0.0201 45.26981,0.47214 1.01479,0.54423 1.82461,1.88285 1.82461,3.01602 0,1.13318 -0.80982,2.4718 -1.82461,3.01603 -0.84287,0.45204 -2.77734,0.47209 -45.45529,0.47117 -43.75425,-9.5e-4 -44.590191,-0.0103 -45.402159,-0.50534 z M 58.032632,84.292687 c -3.116216,-0.679774 -5.923273,-3.01802 -7.02034,-5.847863 -0.40765,-1.051515 -0.55093,-1.992282 -0.55093,-3.617351 0,-2.784377 0.641623,-4.537055 2.371419,-6.477843 4.55734,-5.113221 12.857787,-4.049872 15.848621,2.030325 0.797135,1.62053 0.849237,1.893522 0.849237,4.449609 0,2.557392 -0.05178,2.828293 -0.850594,4.450275 -1.328273,2.697036 -3.786714,4.510224 -6.894119,5.084659 -1.797766,0.332335 -1.910495,0.330178 -3.753294,-0.07181 z m 4.327746,-7.507609 c 1.826552,-1.993113 0.456658,-5.058191 -2.260688,-5.058191 -2.593365,0 -4.04923,2.967067 -2.41111,4.913863 0.878343,1.043851 1.510085,1.308172 2.798528,1.170906 0.77383,-0.08244 1.244322,-0.340277 1.87327,-1.026578 z M 89.005065,84.3905 c -2.896671,-0.507371 -5.816797,-2.717488 -7.134808,-5.400028 -0.646584,-1.31599 -0.71242,-1.71264 -0.71242,-4.29219 0,-2.601106 0.06023,-2.956464 0.71007,-4.189172 1.43689,-2.725709 3.519017,-4.395967 6.400065,-5.134057 4.437803,-1.136912 9.088587,1.052396 11.155785,5.251471 0.761243,1.546313 0.836873,1.915364 0.829723,4.049287 -0.01,2.901109 -0.651944,4.722713 -2.318643,6.576483 -2.296381,2.554128 -5.611986,3.719337 -8.929772,3.138206 z m 3.84441,-7.605422 c 1.81871,-1.984557 0.480507,-5.074007 -2.187003,-5.049035 -1.815827,0.017 -3.169375,1.355031 -3.17257,3.136201 -0.0018,1.024062 0.930384,2.39614 1.91509,2.818703 1.073962,0.460866 2.546981,0.07347 3.444483,-0.905869 z M 119.3984,84.38947 c -1.88834,-0.280721 -3.69978,-1.227058 -5.17762,-2.704894 -3.97615,-3.97615 -3.85258,-10.28054 0.27545,-14.053329 5.08791,-4.650064 13.19893,-2.680522 15.64039,3.797845 0.78236,2.07597 0.6338,5.489908 -0.32999,7.583268 -0.81282,1.765454 -2.53641,3.558866 -4.25944,4.431991 -1.11527,0.565153 -3.8279,1.257561 -4.58136,1.16941 -0.15154,-0.01773 -0.85688,-0.11866 -1.56743,-0.224291 z m 3.94017,-7.604392 c 1.82655,-1.993113 0.45666,-5.058191 -2.26069,-5.058191 -2.59336,0 -4.04923,2.967067 -2.41111,4.913863 0.87835,1.043851 1.51009,1.308172 2.79853,1.170906 0.77383,-0.08244 1.24432,-0.340277 1.87327,-1.026578 z m 26.47819,7.580974 c -7.24515,-1.245961 -10.43005,-10.301253 -5.60553,-15.937615 3.44522,-4.024966 9.86635,-4.466233 13.78057,-0.947015 4.75189,4.272354 4.34694,11.767141 -0.82814,15.327287 -2.02331,1.391917 -4.83865,1.988691 -7.3469,1.557343 z m 3.14362,-6.829741 c 2.90878,-1.380306 1.83738,-5.809424 -1.4053,-5.809424 -1.5806,0 -3.08869,1.507692 -3.08869,3.087871 0,1.407558 1.67478,3.110129 3.06154,3.112336 0.3338,5.31e-4 0.9784,-0.175321 1.43245,-0.390783 z M 176.36599,40.52724 c -0.005,-9.714765 -0.0429,-10.611104 -0.48736,-11.589738 -0.58963,-1.298349 -1.37961,-2.080985 -2.73674,-2.711285 -0.99857,-0.46377 -3.27345,-0.480199 -67.25226,-0.485682 -72.681502,-0.0062 -67.16863,-0.125791 -68.873617,1.49373 -1.625157,1.543693 -1.584465,1.225999 -1.669526,13.034593 l -0.07771,10.787456 h 70.551443 70.55144 z M 52.15603,42.794595 c -3.068796,-0.728525 -3.193087,-4.831348 -0.191969,-6.336874 1.020067,-0.511722 1.545747,-0.516764 53.869269,-0.516764 h 52.83916 l 1.10826,0.591782 c 1.3344,0.712536 2.11924,1.905461 2.12055,3.223149 0.001,1.292651 -1.258,2.704062 -2.71205,3.039689 -1.25529,0.289749 -105.812602,0.288789 -107.03322,-9.82e-4 z"
     id="path1" /></svg>
