
<svg
   width="100%"
   height="100%"
   viewBox="0 0 744 584"
   xmlns="http://www.w3.org/2000/svg"
   xmlns:svg="http://www.w3.org/2000/svg">
  <defs
     id="defs1" />
  <g
     id="g1">
    <path
       style="fill:currentColor"
       d="M 35.786754,582.02947 C 22.121524,578.71479 9.9593244,568.99365 4.1604844,556.75089 l -3.22161001,-6.80161 -0.31507,-23.7087 c -0.28845,-21.70606 -0.15148,-24.07117 1.62151001,-28 1.06512,-2.36021 14.5943996,-24.04072 30.0650696,-48.1789 l 28.12849,-43.8876 V 233.47164 c 0,-167.336332 0.06,-172.936892 1.92984,-180.248052 6.03526,-23.59764 22.4369,-40.98622 47.091746,-49.9254095 l 6.47842,-2.3489 252.5,-0.27776 c 278.31557,-0.30616 259.10149,-0.71767 272.98156,5.84656 18.27328,8.6418995 30.96729,22.9167095 38.17699,42.9311995 l 2.34145,6.5 0.5,175.500002 0.5,175.5 29.30756,45.7073 c 16.11916,25.13901 29.73166,47.18604 30.25,48.9934 1.61119,5.6179 1.16911,40.50317 -0.5999,47.3392 -4.26181,16.46897 -19.42314,30.18572 -36.89132,33.37631 -9.18151,1.67702 -662.271366,1.3491 -669.218466,-0.33602 z M 704.09373,561.95914 c 10.5331,-3.128 17.48064,-11.42934 18.83892,-22.50986 l 0.67421,-5.5 H 371.6212 19.635544 l 0.4322,4.5 c 1.05098,10.94256 7.69702,19.69427 17.53629,23.0923 5.13974,1.77503 17.33254,1.8436 333.403346,1.87505 287.80511,0.0286 328.68433,-0.15023 333.08635,-1.45749 z m 18.49846,-50.94699 c 1.35488,-2.97365 3.51176,0.76758 -29.43858,-51.06287 l -25.42934,-40 -295.96365,-0.25166 -295.963666,-0.25167 -6.51184,10.25167 c -3.58152,5.63841 -15.96366,25.10166 -27.51587,43.25166 -11.55222,18.15 -21.26851,33.73584 -21.59176,34.6352 -0.32325,0.89936 0.0788,2.58686 0.89353,3.75 l 1.48127,2.1148 H 372.01702 721.48176 Z M 289.74718,494.44882 c -3.20192,-1.30309 -5.71261,-5.71982 -5.59571,-9.84383 0.0763,-2.69128 0.88731,-4.30253 3.21052,-6.37832 l 3.10844,-2.77739 h 80.43717 c 55.70563,0 81.16949,0.33366 82.81896,1.08521 6.03606,2.75022 7.16212,11.26442 2.11674,16.00486 l -2.56495,2.40993 -80.66974,0.19575 c -45.47715,0.11035 -81.62587,-0.19338 -82.86143,-0.69621 z M 662.68076,231.19934 C 662.39628,45.770578 662.85,58.712998 656.19419,46.168018 c -3.54971,-6.69054 -13.04331,-15.98164 -20.37033,-19.93583 -11.45952,-6.18438 6.87809,-5.78405 -264.34508,-5.77104 -269.6096,0.0129 -251.61142,-0.3694 -263.90894,5.60602 -8.483406,4.12211 -18.297026,14.42798 -22.881276,24.02897 l -3.74969,7.85314 -0.26404,170.750002 -0.26404,170.75 291.264046,6e-5 291.26404,5e-5 z"
       id="path1" />
  </g>
</svg>
