<?xml version="1.0" encoding="UTF-8" standalone="no"?>
<!-- Created with Inkscape (http://www.inkscape.org/) -->

<svg
   width="100%"
   height="100%"
   viewBox="0 0 211.66665 211.66666"
   version="1.1"
   id="svg1"
   xml:space="preserve"
   xmlns="http://www.w3.org/2000/svg"
   xmlns:svg="http://www.w3.org/2000/svg"><defs
     id="defs1" /><path
     style="fill:#ffff"
     d="m 29.691679,173.80071 c -0.452788,-0.27609 -0.946944,-0.7331 -1.098124,-1.01558 -0.170948,-0.31942 -0.274872,-2.71805 -0.274872,-6.34419 v -5.83059 l -3.681946,-0.004 c -4.129846,-0.004 -6.263048,-0.38603 -8.274326,-1.4807 -1.635314,-0.89005 -3.755161,-3.00926 -4.64431,-4.64293 -1.578861,-2.90088 -1.48617,0.6429 -1.48617,-56.81988 0,-50.700149 0.01672,-52.557186 0.486791,-54.067528 0.674884,-2.168409 1.545934,-3.556207 3.234225,-5.152922 1.60097,-1.514131 3.488292,-2.492372 5.570317,-2.88722 2.029095,-0.38481 170.829106,-0.357797 172.661596,0.02763 4.23271,0.890269 7.78761,4.246817 8.85136,8.357503 0.35276,1.363172 0.398,7.518822 0.39403,53.614301 -0.005,56.767786 0.0639,54.088306 -1.46133,56.890726 -1.55832,2.86315 -4.90828,5.31595 -8.06499,5.90509 -0.76548,0.14286 -3.00371,0.25974 -4.97386,0.25974 h -3.58208 v 5.82269 c 0,4.9737 -0.0621,5.91748 -0.42595,6.47276 -0.9239,1.41005 -0.80401,1.39881 -14.91514,1.39881 h -13.0413 l -0.7901,-0.66482 c -1.64506,-1.38423 -1.53973,-4.02829 0.2073,-5.20393 l 0.87795,-0.5908 h 10.81384 10.81384 v -3.61736 -3.61735 h -71.0551 -71.055093 v 3.61735 3.61736 h 10.813841 10.81384 l 0.877953,0.5903 c 1.946178,1.30855 1.843304,4.6531 -0.171357,5.57104 -0.466923,0.21275 -4.371937,0.29793 -13.626037,0.29724 -12.388442,-9.2e-4 -13.008553,-0.0235 -13.794798,-0.50293 z M 190.97026,153.8656 c 1.44602,-0.39499 2.68484,-1.40677 3.25223,-2.6562 0.46653,-1.02735 0.48311,-2.83453 0.4872,-53.127531 0.003,-34.417325 -0.0846,-52.383797 -0.25783,-53.007501 -0.32359,-1.164991 -1.93558,-2.671253 -3.27175,-3.057162 -0.71038,-0.20517 -24.6491,-0.263431 -85.86354,-0.208971 -82.887834,0.07374 -84.901809,0.08706 -85.870534,0.568062 -0.545595,0.270903 -1.301363,0.960034 -1.679484,1.531402 l -0.687494,1.038852 -0.07045,52.470472 c -0.07735,57.602827 -0.178664,53.712507 1.439241,55.262557 1.608683,1.54121 -4.869075,1.43329 87.127101,1.45157 60.25426,0.012 84.65713,-0.0639 85.39531,-0.26555 z M 31.209934,140.19154 c -1.704002,-1.0389 -1.599341,1.73369 -1.599341,-42.368053 0,-44.101742 -0.104661,-41.329152 1.599341,-42.368053 0.851059,-0.518876 1.138428,-0.521456 58.086941,-0.521456 56.308175,0 57.244995,0.0081 58.058845,0.504372 1.75157,1.067993 1.62744,-2.165001 1.62744,42.385137 0,44.550133 0.12413,41.317143 -1.62744,42.385133 -0.81385,0.49624 -1.75067,0.50438 -58.058845,0.50438 -56.948513,0 -57.235882,-0.003 -58.086941,-0.52146 z M 142.26522,97.696443 V 61.395895 l -52.903749,0.06245 -52.90375,0.06245 -0.06549,36.238099 -0.06549,36.238096 H 89.295978 142.26522 Z M 49.904364,83.942675 c -2.068613,-0.533302 -3.097511,-3.009236 -2.073454,-4.989544 0.84811,-1.640064 -1.440542,-1.541836 35.923755,-1.541836 h 34.015925 l 0.85812,0.858121 c 1.56493,1.564932 1.35468,3.858036 -0.47652,5.197186 -0.72754,0.532049 -0.81672,0.533534 -34.235638,0.56998 -18.428407,0.0201 -33.733891,-0.02216 -34.012188,-0.09391 z M 169.13697,126.63496 c -2.36458,-0.53049 -5.58764,-2.19332 -7.14437,-3.68589 -5.94474,-5.69976 -6.29407,-15.00587 -0.78474,-20.90488 4.73278,-5.067523 11.32781,-6.306994 17.47017,-3.283349 3.69179,1.817319 6.93659,6.026759 7.78098,10.094159 0.47326,2.27969 0.19496,6.29208 -0.58158,8.38497 -2.49512,6.72466 -9.96268,10.91556 -16.74046,9.39499 z m 6.23713,-7.16906 c 1.6722,-0.77572 3.1374,-2.20079 4.0543,-3.94323 0.91148,-1.73216 0.97044,-4.79773 0.12761,-6.63414 -0.78428,-1.70883 -2.47905,-3.44171 -4.17982,-4.27382 -1.8933,-0.92631 -4.68017,-0.98941 -6.543,-0.14816 -3.87195,1.74858 -5.84931,5.99108 -4.62362,9.92012 1.49744,4.80012 6.68182,7.15872 11.16453,5.07923 z m -6.36633,-34.662025 c -7.08348,-1.726783 -11.31894,-9.575601 -8.92386,-16.536999 3.0401,-8.836227 14.5889,-11.320263 21.06489,-4.53086 2.12223,2.224931 3.26178,4.777798 3.4268,7.676874 0.23556,4.138053 -0.90607,7.236718 -3.69293,10.023585 -3.11771,3.117709 -7.63935,4.399924 -11.8749,3.3674 z m 5.24054,-6.75972 c 0.52835,-0.220367 1.34871,-0.772659 1.82302,-1.227315 2.81599,-2.699295 2.63378,-6.813361 -0.40426,-9.127543 -2.43413,-1.854169 -5.73818,-1.663593 -7.85484,0.453063 -1.33227,1.332272 -1.85047,2.566331 -1.83951,4.3807 0.014,2.315644 1.52536,4.578171 3.68101,5.510434 1.18006,0.510348 3.38428,0.515462 4.59458,0.01066 z"
     id="path1" /></svg>
