<svg
   width="100%"
   height="100%"
   viewBox="0 0 172 300"
   xml:space="preserve"
   xmlns="http://www.w3.org/2000/svg"
   xmlns:svg="http://www.w3.org/2000/svg"><defs
     id="defs1" /><g
     id="g1"
     transform="matrix(0.475958,0,0,0.475958,0.80351836,-0.16474923)"><path
       style="fill:currentColor"
       d="m 30.646842,629.85695 c -9.63108,-1.89144 -20.9895105,-10.43676 -25.7537505,-19.37538 -5.20264999,-9.76118 -4.79962999,14.9558 -4.79962999,-294.35843 0,-201.87814 0.24233,-281.818863 0.86335,-284.796802 C 3.9549615,16.949273 15.508202,5.200391 30.399062,1.38553 34.423142,0.35460803 53.055812,0.23472603 181.0189,0.41644703 l 146.02768,0.207374 4.6875,1.86876297 c 9.34031,3.723697 16.09989,9.369905 20.99879,17.540069 5.60774,9.352353 5.17309,-15.463985 5.17309,295.355377 0,200.93246 -0.24323,281.25069 -0.86071,284.22078 -2.18358,10.50299 -11.09898,22.23897 -20.23304,26.6342 -9.84228,4.73601 -0.11054,4.46693 -158.17195,4.37334 -79.509338,-0.0471 -146.106368,-0.38881 -147.993418,-0.7594 z M 327.85937,612.06196 c 2.92326,-1.38295 5.94822,-3.62893 7.94914,-5.90209 6.20673,-7.05122 5.6912,9.98744 5.6912,-188.09709 V 240.8582 l -143.16406,0.002 c -78.74024,9.3e-4 -151.865238,0.23301 -162.499998,0.51572 l -19.33594,0.51372 0.0343,177.02334 c 0.0285,146.96235 0.21421,177.52775 1.09378,179.99366 2.43461,6.82552 7.88209,12.12308 14.63233,14.22966 2.78395,0.86879 28.73795,1.06398 147.130218,1.10652 l 143.75,0.0516 z M 55.952832,393.28102 c -0.85937,-0.37175 -2.26562,-1.45728 -3.125,-2.41229 -1.52493,-1.69465 -1.56781,-2.99748 -1.78352,-54.19378 -0.12156,-28.85156 -0.0195,-53.27836 0.22691,-54.28177 0.80265,-3.26917 4.12942,-5.59748 7.99787,-5.59748 2.88421,0 3.86609,0.41467 5.7453,2.42637 l 2.26657,2.42637 v 53.42068 53.42068 l -2.14844,2.38321 c -2.29486,2.54562 -6.38265,3.61793 -9.17969,2.40801 z M 180.23548,224.45195 h 161.26423 v -93.99883 c 0,-81.150421 -0.15969,-94.536547 -1.16826,-97.932772 -1.54835,-5.213878 -6.33563,-10.543193 -11.94546,-13.297972 l -4.46441,-2.192305 H 179.78096 c -136.299358,0 -144.357768,0.07581 -148.132258,1.393462 -5.18558,1.810263 -9.5492,5.607962 -12.4395,10.826224 l -2.31887,4.186564 -0.20743,95.986679 c -0.18942,87.65227 -0.0991,95.94509 1.04046,95.50781 0.68634,-0.26337 73.81679,-0.47886 162.512118,-0.47886 z M 57.905962,191.13002 c -3.07202,-1.01208 -4.91473,-2.35133 -5.92603,-4.30696 -0.91497,-1.76936 -1.10522,-9.82287 -1.10522,-46.78544 V 95.389449 l 2.65625,-2.65625 c 2.06362,-2.06363 3.30116,-2.65625 5.54687,-2.65625 2.24571,0 3.48325,0.59262 5.54688,2.65625 l 2.65625,2.65625 v 45.216791 c 0,50.14809 0.25438,47.68362 -5.15514,49.94386 -1.43395,0.59914 -2.70636,1.06159 -2.82758,1.02767 -0.12122,-0.0339 -0.74775,-0.23541 -1.39228,-0.44775 z"
       id="path1" /></g></svg>
