<?xml version="1.0" encoding="UTF-8" standalone="no"?>
<!-- Created with Inkscape (http://www.inkscape.org/) -->

<svg
   width="100%"
   height="100%"
   viewBox="0 0 211.66665 211.66666"
   version="1.1"
   id="svg1"
   xml:space="preserve"
   xmlns="http://www.w3.org/2000/svg"
   xmlns:svg="http://www.w3.org/2000/svg"><defs
     id="defs1" /><path
     style="fill:currentColor"
     d="m 47.62523,195.34551 c -4.604933,-1.11564 -8.127015,-4.48702 -9.272722,-8.87596 -0.414791,-1.58897 -0.444872,-6.90218 -0.45879,-81.0341 -0.01322,-70.409573 0.02959,-79.506865 0.380546,-80.873619 1.144068,-4.455395 4.308686,-7.912078 8.413054,-9.189501 1.523898,-0.47429 3.358767,-0.489425 58.975252,-0.486454 61.83856,0.0033 58.47612,-0.06931 61.31466,1.324164 0.68413,0.33585 2.01252,1.366404 2.95198,2.29012 2.00048,1.96697 3.19681,4.204904 3.59117,6.717936 0.38512,2.454099 0.36753,158.658124 -0.0181,160.507204 -1.00671,4.82749 -5.07505,8.89787 -9.76204,9.76696 -0.90196,0.16725 -21.31648,0.25049 -58.0068,0.23654 -47.592087,-0.0181 -56.853002,-0.0792 -58.10824,-0.38329 z m 115.97094,-6.80046 c 1.29021,-0.58603 2.77321,-2.2729 3.17387,-3.6102 0.22478,-0.75026 0.29845,-20.75817 0.29419,-79.90664 -0.005,-75.985034 -0.0232,-78.944033 -0.47978,-79.939305 -0.57511,-1.253698 -1.63408,-2.339085 -2.92443,-2.99737 -0.93638,-0.477705 -2.46957,-0.490789 -57.51198,-0.490789 -63.625717,0 -58.078897,-0.18442 -59.997099,1.994773 -0.567213,0.644388 -1.148297,1.592829 -1.291298,2.107647 -0.171863,0.618726 -0.258023,27.694508 -0.254164,79.871784 l 0.0058,78.93576 0.584381,1.14256 c 0.678348,1.32629 2.014905,2.49217 3.438929,2.99977 0.839069,0.2991 10.113937,0.35759 57.457091,0.36234 54.29974,0.005 56.49653,-0.0125 57.50445,-0.47033 z m -63.18886,-12.19498 c -17.569316,-1.91513 -33.241993,-14.16186 -39.665798,-30.99509 -1.207998,-3.1655 -2.342178,-7.88501 -2.717113,-11.30636 -0.391518,-3.57267 -0.199093,-10.91732 0.365623,-13.95545 2.111333,-11.35882 7.30104,-20.394955 16.167602,-28.15047 9.603763,-8.400339 23.557116,-12.807003 36.130556,-11.410534 11.16172,1.239674 21.43956,6.171989 29.35495,14.087382 7.52013,7.520132 12.31553,17.237242 13.59978,27.557822 0.47007,3.77758 0.19106,12.54886 -0.49773,15.64675 -2.8869,12.98425 -10.00629,23.43293 -21.00589,30.82905 -2.82972,1.90269 -8.21703,4.53039 -11.54032,5.62886 -6.10002,2.01629 -13.61004,2.78547 -20.19166,2.06804 z m 10.58591,-6.83189 c 9.68334,-1.37619 17.98919,-5.60784 24.71682,-12.59271 5.43423,-5.642 8.91512,-12.24437 10.72951,-20.35118 0.53542,-2.39231 0.60447,-3.35137 0.59483,-8.26171 -0.0123,-6.2613 -0.36295,-8.5357 -2.07368,-13.45051 -2.54917,-7.32357 -7.44035,-14.1083 -13.69479,-18.996511 -9.61365,-7.513643 -22.24398,-10.426594 -34.055791,-7.854336 -16.295324,3.548634 -28.41244,15.726847 -32.000966,32.162317 -0.485826,2.22509 -0.563433,3.37305 -0.558967,8.26823 0.0045,4.89003 0.08445,6.04235 0.572365,8.24577 1.485436,6.70816 4.319679,12.6036 8.583539,17.85441 3.600492,4.43389 9.342964,8.94359 14.33355,11.25647 4.363159,2.0221 7.821232,2.99122 14.07634,3.94484 1.60958,0.24539 6.31607,0.1247 8.77724,-0.22508 z M 103.3787,71.962788 c -7.939764,-0.89526 -14.695976,-6.668087 -17.223329,-14.716431 -0.528846,-1.684106 -0.603474,-2.431071 -0.592619,-5.931661 0.01131,-3.647879 0.07453,-4.189205 0.709179,-6.071981 1.17322,-3.480558 2.554402,-5.662226 5.340415,-8.435542 2.222367,-2.212239 2.807239,-2.638455 5.197395,-3.787528 1.481276,-0.712127 3.332729,-1.450741 4.114329,-1.641363 2.1155,-0.515939 7.97636,-0.434742 10.06196,0.1394 6.94401,1.911612 12.34187,7.159501 14.5226,14.119123 0.52155,1.664482 0.60534,2.466885 0.60644,5.807082 10e-4,4.424283 -0.40442,6.199737 -2.21499,9.689331 -3.90744,7.531041 -11.98244,11.79239 -20.52138,10.82957 z m 5.80642,-6.974355 c 4.74209,-1.092708 9.07953,-5.605599 10.09687,-10.505305 0.42278,-2.036173 0.17555,-5.747376 -0.51229,-7.69012 -1.32434,-3.740501 -4.51814,-6.998159 -8.25828,-8.423413 -1.78612,-0.680634 -5.51139,-0.93476 -7.53708,-0.514156 -3.767738,0.782311 -7.46743,3.688725 -9.263566,7.277294 -1.285813,2.568976 -1.671739,4.422176 -1.502612,7.215491 0.354022,5.847067 4.08491,10.60479 9.749438,12.43273 1.61942,0.522584 5.39026,0.630834 7.22752,0.207479 z"
     id="path1" /></svg>
