<?xml version="1.0" encoding="UTF-8" standalone="no"?>
<!-- Created with Inkscape (http://www.inkscape.org/) -->

<svg
   width="100%"
   height="100%"
   viewBox="0 0 211.66665 211.66666"
   version="1.1"
   id="svg1"
   xml:space="preserve"
   sodipodi:docname="split.svg"
   inkscape:version="1.4 (86a8ad7, 2024-10-11)"
   xmlns:inkscape="http://www.inkscape.org/namespaces/inkscape"
   xmlns:sodipodi="http://sodipodi.sourceforge.net/DTD/sodipodi-0.dtd"
   xmlns="http://www.w3.org/2000/svg"
   xmlns:svg="http://www.w3.org/2000/svg"><sodipodi:namedview
     id="namedview1"
     pagecolor="#ffffff"
     bordercolor="#000000"
     borderopacity="0.25"
     inkscape:showpageshadow="2"
     inkscape:pageopacity="0.0"
     inkscape:pagecheckerboard="0"
     inkscape:deskcolor="#d1d1d1"
     inkscape:zoom="0.37786019"
     inkscape:cx="35.7275"
     inkscape:cy="271.26436"
     inkscape:window-width="1920"
     inkscape:window-height="1057"
     inkscape:window-x="-8"
     inkscape:window-y="-8"
     inkscape:window-maximized="1"
     inkscape:current-layer="svg1" /><defs
     id="defs1" /><path
     style="display:inline;fill:#ffff"
     d="m 99.653361,164.80989 c -4.034307,-4.03956 -4.86725,-5.00151 -5.012166,-5.78848 -0.436061,-2.36803 2.020469,-4.34436 4.089985,-3.29047 0.310401,0.15807 1.34921,1.05606 2.30845,1.99553 l 1.74408,1.70813 V 145.416 c 0,-15.05346 0.016,-15.24967 1.32031,-16.16323 0.96751,-0.67766 2.13668,-0.78132 3.18764,-0.28261 1.74353,0.82736 1.69322,0.34828 1.69322,16.12526 0,7.82312 0.0784,14.22385 0.17423,14.22385 0.0958,0 1.00619,-0.80672 2.02305,-1.79271 2.48784,-2.41232 3.72712,-2.65793 5.32891,-1.05614 0.61095,0.61094 0.74204,0.96108 0.74204,1.98187 v 1.23983 l -4.98121,4.98122 -4.98122,4.98122 h -1.39948 -1.39948 z m -51.129904,2.35365 c -4.837644,-0.38424 -5.390827,-0.56078 -6.194492,-1.97689 -0.34189,-0.60243 -0.306795,-1.27313 0.342743,-6.5501 0.397999,-3.23342 0.891117,-6.20281 1.095817,-6.59866 1.026277,-1.9846 4.119266,-1.93398 5.163063,0.0845 0.333813,0.64552 0.379696,1.21297 0.23252,2.8756 l -0.183359,2.07138 1.254133,-0.87751 c 3.384915,-2.36841 7.642881,-7.34544 9.59282,-11.2128 1.788465,-3.54711 3.166156,-8.85474 3.166156,-12.19779 0,-3.29828 2.191393,-5.09376 4.659337,-3.81753 1.319918,0.68255 1.634721,1.68197 1.460969,4.6382 -0.593976,10.10595 -5.285615,19.3706 -13.032832,25.73613 -1.243022,1.02134 -2.298798,1.95815 -2.346168,2.08181 -0.04737,0.12365 0.45052,0.22483 1.106423,0.22483 2.429794,0 3.759774,1.08057 3.759774,3.05472 0,0.9418 -0.147002,1.27807 -0.878499,2.00957 -0.848166,0.84817 -0.944073,0.87738 -2.777608,0.84609 -1.04451,-0.0178 -3.933869,-0.19402 -6.420797,-0.39155 z m 105.666433,-0.28659 c -0.55926,-0.49974 -0.8372,-1.02388 -0.9368,-1.76663 -0.28354,-2.11439 1.18454,-3.46561 3.76533,-3.46561 0.7246,0 1.31188,-0.0872 1.30506,-0.19379 -0.007,-0.10658 -0.65626,-0.65543 -1.44319,-1.21966 -2.10452,-1.50893 -6.25306,-5.9327 -7.90202,-8.42625 -3.63934,-5.50342 -5.64952,-11.52108 -6.05336,-18.12128 -0.13517,-2.20914 -0.0893,-2.81737 0.26417,-3.50085 0.85113,-1.6459 3.1246,-2.12751 4.51606,-0.95668 0.98335,0.82744 1.24711,1.7105 1.42527,4.77162 0.38296,6.58025 3.35239,13.16476 8.22656,18.2418 2.09268,2.17978 5.29174,4.92 5.50033,4.71141 0.0582,-0.0582 0.004,-0.82678 -0.12075,-1.70807 -0.26698,-1.88874 -0.003,-3.08926 0.85872,-3.89836 1.24932,-1.17368 3.47324,-0.88559 4.42947,0.57379 0.24146,0.36852 0.69024,2.8466 1.16878,6.4538 0.70138,5.28699 0.7408,5.94177 0.40596,6.74314 -0.58582,1.40207 -1.28616,1.6023 -7.19962,2.05839 -7.23268,0.55785 -7.25445,0.55706 -8.20997,-0.29677 z M 27.46531,120.79212 c -6.257176,-0.90235 -11.966004,-4.49653 -15.550465,-9.79032 -1.222208,-1.80504 -2.0787056,-3.64236 -2.8537386,-6.12173 l -0.711368,-2.27569 -0.076167,-22.903743 c -0.084908,-25.531972 -0.114845,-25.01395 1.655355,-28.643501 1.3081846,-2.682253 4.5929126,-5.951197 7.3302876,-7.295064 3.854205,-1.892156 -3.863731,-1.740254 88.635396,-1.744493 92.86271,-0.0043 84.4666,-0.179331 88.60603,1.847614 3.85541,1.887872 6.89575,5.502928 8.43894,10.034147 0.45903,1.347811 0.48399,2.627075 0.48399,24.804687 0,17.72254 -0.0777,23.712683 -0.32086,24.742943 -1.74451,7.39076 -7.12296,13.60346 -13.89957,16.05553 -4.65633,1.68485 1.04037,1.57936 -83.41728,1.5447 -42.223643,-0.0173 -77.467889,-0.13211 -78.32055,-0.25508 z M 176.03506,110.4212 v -4.19947 l -70.08617,-0.0651 -70.08616,-0.0651 -10e-7,4.32837 -1e-6,4.32837 70.086162,-0.0638 70.08617,-0.0638 z M 29.661558,108.39325 c 0,-6.81397 0.07489,-7.20166 1.560585,-8.07929 0.657783,-0.388563 6.673831,-0.422513 74.702017,-0.421623 73.75289,9.6e-4 73.98933,0.003 74.84192,0.522423 1.46179,0.89122 1.59934,1.60106 1.59934,8.2533 v 5.95109 l 0.58136,-0.004 c 1.75562,-0.0115 5.62946,-1.40579 7.5004,-2.69951 1.21403,-0.83947 3.61982,-3.43087 4.44899,-4.79223 0.47689,-0.78297 1.19538,-2.35264 1.59665,-3.48816 l 0.72958,-2.06458 V 78.833217 56.095588 l -0.79629,-1.680224 c -0.93145,-1.965428 -2.75347,-3.894019 -4.52874,-4.793614 -2.97183,-1.505941 3.08967,-1.407381 -86.13195,-1.400501 -54.298464,0.0042 -82.299742,0.09445 -83.051299,0.267708 -3.154603,0.727253 -6.022207,2.97166 -7.407857,5.797956 l -0.760063,1.550293 v 22.866821 22.866823 l 0.79063,2.20766 c 1.866432,5.21161 5.882712,8.97282 11.017878,10.31815 1.037161,0.27172 2.205495,0.50044 2.596298,0.50827 l 0.710551,0.0142 z M 92.529742,76.775557 c -1.012828,-0.44051 -1.631609,-1.5759 -1.631609,-2.9938 0,-0.87485 0.161693,-1.23389 0.878499,-1.95069 0.483175,-0.48318 1.151739,-0.8843 1.485698,-0.89138 0.333959,-0.007 6.257661,-0.0214 13.16378,-0.0319 11.60149,-0.0175 12.60972,0.0158 13.25529,0.43882 1.95334,1.27988 1.85903,4.05753 -0.17999,5.30079 -0.79128,0.48248 -1.37687,0.50398 -13.48792,0.49523 -10.2046,-0.007 -12.820389,-0.0786 -13.483748,-0.3671 z"
     id="path1" /></svg>
