

<svg
   width="100%"
   height="100%"
   viewBox="0 0 211.66665 211.66666"
   version="1.1"
   id="svg1"
   xml:space="preserve"
   xmlns="http://www.w3.org/2000/svg"
   xmlns:svg="http://www.w3.org/2000/svg"><defs
     id="defs1" /><path
     style="fill:#ffff"
     d="m 40.732342,190.36856 c -0.491162,-0.0467 -1.231017,-0.32562 -1.644122,-0.61978 -1.348111,-0.95993 -1.467779,-1.64965 -1.467779,-8.45955 v -6.20947 l -5.36143,-0.006 c -2.948787,-0.003 -5.871323,-0.12387 -6.494524,-0.26754 -4.163529,-0.95987 -7.478097,-4.42016 -8.286319,-8.65064 -0.215583,-1.12843 -0.2737,-15.48829 -0.217468,-53.73318 l 0.07674,-52.193199 0.585071,-1.421102 c 1.199636,-2.913846 3.348211,-5.062421 6.262057,-6.262057 L 25.60567,51.960651 60.678727,51.83146 95.751785,51.702269 80.423505,36.199339 C 71.992952,27.672727 64.959542,20.44244 64.793706,20.132035 c -0.419088,-0.784433 -0.376482,-2.287722 0.09043,-3.190626 0.806689,-1.559964 3.223996,-2.063919 4.907925,-1.023194 0.490176,0.302945 8.720636,8.449222 18.289913,18.102836 15.107196,15.240345 17.497916,17.552027 18.152166,17.552027 0.65285,0 3.17085,-2.415748 18.85233,-18.086752 19.10964,-19.096868 18.20934,-18.292877 20.27934,-18.110078 2.04138,0.180272 3.53328,3.052585 2.51007,4.832549 -0.17261,0.300254 -7.11413,7.417092 -15.42561,15.815196 -8.31148,8.398103 -15.15147,15.388322 -15.19997,15.533819 -0.0598,0.179365 11.12833,0.286804 34.74883,0.333689 l 34.83701,0.06915 1.42111,0.57952 c 3.30291,1.346915 5.81335,4.227856 6.5654,7.53435 0.36824,1.619015 0.41092,7.169839 0.41092,53.442399 0,45.55753 -0.0466,51.81474 -0.39608,53.15638 -0.87237,3.34926 -2.92468,5.83538 -6.06348,7.34515 l -1.93787,0.93211 -5.99526,0.0853 -5.99527,0.0853 -0.0767,6.67691 -0.0767,6.67691 -0.64595,0.69002 c -1.19226,1.27361 -1.17546,1.27161 -10.07691,1.19895 -9.35066,-0.0763 -9.4332,-0.091 -10.37066,-1.84425 -0.43164,-0.80726 -0.48139,-1.54829 -0.48139,-7.17011 V 175.0798 H 106.22091 59.324543 v 6.26979 c 0,9.46459 0.543904,8.9782 -10.121949,9.05172 -4.167476,0.0287 -7.97909,0.014 -8.470252,-0.0327 z m 11.615882,-11.0255 v -4.2633 h -3.875732 -3.875733 v 4.2633 4.26331 h 3.875733 3.875732 z m 115.496836,0 v -4.2633 h -3.87574 -3.87573 v 4.2633 4.26331 h 3.87573 3.87574 z m 18.54128,-11.75499 c 0.46315,-0.28239 1.07363,-0.89238 1.35661,-1.35554 0.50986,-0.83449 0.51393,-1.31467 0.44981,-53.0791 l -0.0647,-52.236989 -0.64596,-0.691308 c -0.35528,-0.380219 -0.95993,-0.854668 -1.34368,-1.054331 -0.5948,-0.309477 -12.39024,-0.362881 -79.96928,-0.362057 -78.644672,9.58e-4 -79.278219,0.005 -80.113663,0.514402 -0.463157,0.282391 -1.07315,0.892384 -1.355541,1.355541 -0.507831,0.83291 -0.513436,1.409071 -0.513436,52.776922 0,51.36785 0.0056,51.94401 0.513436,52.77692 0.282391,0.46316 0.892384,1.07315 1.355541,1.35554 0.835457,0.50938 1.468238,0.51344 80.165433,0.51344 78.69719,0 79.32997,-0.004 80.16543,-0.51344 z M 35.085666,158.01991 c -1.707036,-1.04075 -1.59934,1.97286 -1.59934,-44.75382 0,-40.620485 0.02036,-42.489576 0.472133,-43.331945 0.259673,-0.484188 0.869453,-1.093428 1.355067,-1.353866 0.850737,-0.456255 3.447647,-0.471116 71.211964,-0.407537 l 70.32902,0.06599 0.79788,0.764417 c 0.43883,0.420429 0.91672,1.176197 1.06199,1.679484 0.17652,0.611568 0.23888,14.984567 0.18802,43.335417 l -0.0761,42.42035 -0.54167,0.72947 c -0.29792,0.40121 -0.82115,0.8731 -1.16272,1.04864 -0.48837,0.25098 -15.63636,0.31978 -70.901,0.32201 -70.038459,0.003 -70.282892,0.001 -71.135244,-0.51861 z M 171.97917,113.32642 V 75.085856 H 106.22091 40.462645 v 38.240564 38.24056 h 65.758265 65.75826 z"
     id="path1" /></svg>
