<?xml version="1.0" encoding="UTF-8" standalone="no"?>
<!-- Created with Inkscape (http://www.inkscape.org/) -->

<svg
   width="100%"
   height="100%"
   viewBox="0 0 211.66665 211.66666"
   version="1.1"
   id="svg1"
   xml:space="preserve"
   xmlns="http://www.w3.org/2000/svg"
   xmlns:svg="http://www.w3.org/2000/svg"><defs
     id="defs1" /><path
     style="fill:#ffff"
     d="m 15.077461,145.04385 c -0.37818,-0.44944 -0.401355,-0.57476 -0.401355,-2.17041 v -1.69343 h -0.440448 c -0.702733,0 -1.852439,-0.40346 -2.451266,-0.86021 -0.730716,-0.55734 -1.290607,-1.77455 -1.292562,-2.81004 -8.33e-4,-0.44122 0.457214,-4.87118 1.017882,-9.84436 0.959527,-8.5111 1.043749,-9.08735 1.434021,-9.81178 0.521788,-0.96856 1.485561,-1.70973 2.508486,-1.92911 0.434193,-0.0931 1.518521,-0.1693 2.409619,-0.1693 h 1.620177 v -1.14166 -1.14166 l -0.693276,-0.26476 c -1.015693,-0.3879 -2.161684,-1.49284 -2.713954,-2.61675 -0.514831,-1.04771 -0.310376,0.58804 -3.165615,-25.326658 -0.37749,-3.426173 -0.746471,-6.336842 -0.819957,-6.468155 -0.07349,-0.131313 -0.7387,-0.894183 -1.478253,-1.695268 -1.3594093,-1.472514 -1.6275394,-1.961972 -1.4538633,-2.653952 0.1470555,-0.585916 1.5222023,-2.14493 2.3629323,-2.678873 1.318491,-0.837367 2.084027,-0.970758 5.571228,-0.970758 h 3.134022 l 0.05731,-1.899108 c 0.06287,-2.083521 0.234412,-2.564921 1.03164,-2.895144 0.299496,-0.124055 2.818807,-0.162322 8.686881,-0.131949 l 8.265048,0.04278 0.45229,0.506291 c 0.448511,0.502061 0.452289,0.52246 0.452289,2.441711 v 1.93542 h 3.223044 c 3.611685,0 4.56585,0.155955 5.691184,0.930206 0.473832,0.326004 0.813616,0.745677 1.152012,1.422867 l 0.479958,0.960482 -0.10301,2.513239 -0.103011,2.513238 2.077531,0.05855 c 1.631941,0.04599 2.193909,0.119537 2.620134,0.342915 0.672593,0.352496 1.659409,1.276828 1.946204,1.822972 0.564952,1.075838 0.549763,1.383618 -0.478974,9.705723 -0.902795,7.303277 -1.024108,8.064408 -1.411557,8.856327 -0.590531,1.207004 -2.640133,3.249104 -3.891578,3.877324 -1.070732,0.53751 -2.472563,0.94758 -3.239344,0.94758 -0.492031,0 -0.500289,0.0122 -0.601886,0.89142 -0.43638,3.77628 -0.527363,4.23604 -1.021882,5.16385 -0.583994,1.09569 -1.284891,1.75483 -2.417261,2.27324 l -0.820978,0.37586 v 1.13302 1.13303 l 1.976624,0.0709 c 1.408375,0.0505 2.166384,0.14987 2.636697,0.3457 0.863705,0.35964 1.957707,1.58274 2.183536,2.4412 0.09651,0.36689 0.493344,3.45759 0.881844,6.86824 0.3885,3.41064 0.842857,7.31338 1.009681,8.67275 0.353017,2.87656 0.374583,3.76516 0.112657,4.64178 -0.368463,1.23317 -2.037872,2.42094 -3.40263,2.42094 h -0.437471 v 1.48811 c 0,1.70213 -0.241302,2.41234 -0.914336,2.69112 -0.292863,0.12131 -1.66087,0.16243 -4.343868,0.13057 -4.818465,-0.0572 -4.508642,0.11762 -4.508642,-2.54414 v -1.76566 h -6.51123 -6.511231 v 1.5402 c 0,1.6135 -0.145141,2.25322 -0.587455,2.58927 -0.20151,0.1531 -1.239292,0.20267 -4.320944,0.20642 l -4.055738,0.005 z m 6.574964,-2.93366 v -0.93018 h -2.092896 -2.092895 v 0.93018 0.93017 h 2.092895 2.092896 z m 22.789306,0 v -0.93018 H 42.348836 40.25594 v 0.93018 0.93017 h 2.092896 2.092895 z m 3.720704,-4.03077 c 0.193453,-0.19345 0.310058,-0.51676 0.310058,-0.85969 0,-0.3023 -0.418399,-4.05208 -0.929775,-8.33283 -0.511377,-4.28075 -0.973673,-8.15582 -1.027325,-8.61127 -0.06272,-0.53242 -0.224119,-0.97524 -0.452038,-1.24023 l -0.354487,-0.41215 -14.807435,-0.041 -14.807434,-0.0411 -0.4158,0.35766 c -0.39845,0.34273 -0.431063,0.48999 -0.781595,3.52921 -1.816413,15.74885 -1.76882,15.1883 -1.327036,15.63008 l 0.331392,0.33139 h 16.975708 c 16.769002,0 16.979483,-0.004 17.285767,-0.31006 z m -19.491809,-2.64886 c -2.023863,-0.64126 -3.930339,-2.43881 -4.700799,-4.43222 -0.487749,-1.26195 -0.590383,-3.4484 -0.2252,-4.7975 0.63851,-2.35884 2.689331,-4.41052 5.100302,-5.10244 1.238318,-0.35538 3.396634,-0.25081 4.624568,0.22406 1.92408,0.74407 3.748782,2.57225 4.466307,4.47481 1.450116,3.84506 -0.750592,8.29239 -4.767563,9.6346 -1.267431,0.42349 -3.158644,0.42294 -4.497615,-0.001 z m 4.159389,-2.90035 c 2.317987,-1.12801 3.34121,-3.90314 2.256554,-6.1201 -0.465061,-0.95055 -1.672468,-2.15207 -2.426899,-2.41506 l -0.465253,-0.16219 v 1.46471 c 0,1.25172 -0.04452,1.50923 -0.306115,1.77083 -0.653884,0.65389 -1.80399,0.52235 -2.154243,-0.24637 -0.09633,-0.21142 -0.17514,-0.9741 -0.17514,-1.69485 0,-0.72074 -0.0561,-1.31045 -0.124678,-1.31045 -0.06857,0 -0.437502,0.19839 -0.819843,0.44086 -3.520625,2.23272 -2.873594,7.27502 1.09955,8.56878 0.708543,0.23072 2.35492,0.0743 3.116067,-0.29616 z m 6.619419,-17.85699 0.04616,-0.93339 h -8.611523 -8.611524 l -1e-6,0.96893 v 0.96893 l 8.565369,-0.0355 8.565369,-0.0355 z m 2.279285,-4.01693 c 0.718593,-0.33165 1.227353,-0.84067 1.463701,-1.46445 0.09163,-0.24184 0.863963,-6.72982 1.716287,-14.417723 0.852324,-7.687907 1.585604,-14.134979 1.629511,-14.326828 l 0.07983,-0.348816 H 30.879622 c -12.820355,0 -15.738428,0.03741 -15.738428,0.201791 0,0.404546 3.097239,28.102456 3.18454,28.478626 0.168588,0.72642 0.850162,1.56711 1.51535,1.86912 0.616361,0.27983 1.16137,0.29448 10.958069,0.29448 9.695717,0 10.346365,-0.017 10.929566,-0.2862 z m 7.018484,-9.08222 c 0.449523,-0.20928 1.207067,-0.74912 1.683433,-1.19965 1.495796,-1.414661 1.471331,-1.322022 2.450521,-9.278969 0.476745,-3.874052 0.89434,-7.218121 0.927989,-7.431265 0.09124,-0.577929 -0.302309,-1.375068 -0.765882,-1.551318 -0.222841,-0.08472 -1.2029,-0.154043 -2.177909,-0.154043 -1.450229,0 -1.772745,0.04115 -1.772745,0.226173 0,0.269806 -1.977347,18.163842 -2.112127,19.113732 l -0.09349,0.65887 0.521448,-0.002 c 0.286796,-8.4e-4 0.889238,-0.17274 1.33876,-0.38202 z M 46.821744,76.494042 c 0.19023,-1.583745 0.13534,-1.965589 -0.352706,-2.453636 L 46.015875,73.587243 H 30.30286 14.589844 l -1.119588,0.536549 c -0.615774,0.295101 -1.119589,0.58149 -1.119589,0.63642 0,0.05493 0.505783,0.646813 1.123962,1.315298 l 1.123963,1.215428 16.062695,0.0085 16.062696,0.0085 z M 36.380208,69.789026 v -1.00769 h -6.66626 -6.66626 v 1.00769 1.00769 h 6.66626 6.66626 z m 44.648438,73.983284 c -0.754014,-0.37676 -0.92967,-1.04747 -0.929935,-3.55079 -2.36e-4,-2.22495 -0.0081,-2.27867 -0.349057,-2.38467 -0.607452,-0.18885 -2.447727,-1.45088 -3.32369,-2.27933 -1.062862,-1.00521 -2.183066,-2.67088 -2.811573,-4.18062 -0.972024,-2.33491 -0.974148,-2.37848 -0.921161,-18.90223 0.04743,-14.791967 0.05113,-14.94686 0.384936,-16.128442 1.084014,-3.837114 4.004677,-7.029635 7.700394,-8.417156 l 0.947717,-0.35581 0.08719,-2.380888 c 0.07135,-1.948201 0.149325,-2.538812 0.429075,-3.249871 0.756589,-1.923069 1.983092,-3.228195 3.902067,-4.152207 l 1.16272,-0.559865 14.185181,-0.04202 c 13.75768,-0.04075 14.21555,-0.03277 15.19287,0.264858 1.25146,0.381108 2.17105,0.958766 3.19645,2.007902 1.50517,1.540003 2.07455,3.226422 2.07455,6.144484 v 1.876369 l 1.12396,0.432474 c 3.72571,1.433564 6.32043,4.254261 7.60362,8.265802 0.33317,1.041565 0.33586,1.155766 0.38408,16.31929 0.0341,10.73303 -0.003,15.56947 -0.1243,16.27695 -0.23732,1.3818 -1.04272,3.45703 -1.77539,4.57449 -0.94642,1.4435 -2.77284,3.18575 -4.21719,4.02287 l -1.26853,0.73521 -0.0492,2.47872 -0.0492,2.47871 -0.50629,0.452 -0.50629,0.452 h -3.57093 c -4.87597,0 -4.95079,-0.0468 -4.95079,-3.09289 v -1.71302 H 101.9576 89.865315 l -5.79e-4,1.74408 c -6.43e-4,1.93411 -0.238458,2.61456 -1.017275,2.91066 -0.608398,0.23131 -7.342819,0.19078 -7.818815,-0.0471 z m 6.013696,-3.45991 0.04507,-1.10016 -1.517847,-0.0986 c -0.834816,-0.0542 -1.779459,-0.14381 -2.099207,-0.19912 l -0.58136,-0.10056 v 1.23468 c 0,0.67908 0.04849,1.28317 0.107759,1.34244 0.05927,0.0593 0.983629,0.0883 2.054138,0.0646 l 1.946379,-0.0432 z m 33.828828,-0.15946 v -1.33713 l -0.48812,0.0976 c -0.26847,0.0537 -1.17539,0.14266 -2.01538,0.19771 l -1.52726,0.10009 v 1.03606 c 0,0.56983 0.0465,1.08257 0.10336,1.13942 0.0568,0.0568 0.96376,0.10335 2.01538,0.10335 h 1.91202 z m 0.54261,-4.27872 c 0.68213,-0.2323 1.68513,-0.68576 2.22888,-1.00769 1.34562,-0.79666 2.98685,-2.58142 3.6591,-3.97908 0.93862,-1.95147 1.00598,-2.51402 1.00853,-8.42265 l 0.002,-5.30518 -26.44122,-2.9e-4 -26.44122,-2.9e-4 0.05205,5.69304 c 0.04909,5.36884 0.07137,5.75056 0.391288,6.7031 1.174531,3.49711 4.311374,6.10802 7.982201,6.64388 0.549608,0.0802 8.64288,0.13217 18.644521,0.11965 l 17.67334,-0.0221 z m -21.15774,-2.22911 c -3.137709,-0.84318 -5.245307,-4.08713 -4.704949,-7.24172 0.469928,-2.74342 2.584401,-4.88089 5.318889,-5.37675 2.71754,-0.49278 5.5828,1.04266 6.83266,3.66152 0.95133,1.99334 0.76173,4.5413 -0.4713,6.33344 -1.57021,2.28223 -4.35194,3.32847 -6.9753,2.62351 z M 103.44121,130.7 c 2.28564,-1.0846 2.79754,-4.17926 0.97703,-5.90648 -0.71022,-0.67383 -1.50476,-0.97679 -2.56174,-0.97679 -1.65732,0 -2.929051,0.976 -3.409071,2.6163 -0.86881,2.96887 2.201261,5.59211 4.993781,4.26697 z m 24.86908,-24.36282 c -0.003,-8.943476 -0.0174,-9.102758 -1.04575,-11.200866 -0.79075,-1.613387 -2.61032,-3.432753 -4.22296,-4.222484 -2.29423,-1.123524 -1.02951,-1.059442 -20.92895,-1.060442 -11.302493,-5.68e-4 -18.201339,0.05627 -18.707045,0.154115 -2.864581,0.554261 -5.538529,2.625307 -6.86559,5.317589 -1.056653,2.143688 -1.086675,2.453482 -1.089712,11.244628 l -0.0027,7.79022 h 26.432497 26.43249 z m -27.48328,-6.08732 c -1.660624,-1.306252 0.15169,-4.007875 2.03519,-3.033877 0.98327,0.508468 1.0898,2.114067 0.1934,2.914997 -0.60754,0.54283 -1.62089,0.59689 -2.22859,0.11888 z m 18.33884,-14.875979 c 0,-2.185914 -0.24786,-2.910747 -1.38377,-4.046662 -1.47795,-1.477945 -0.38502,-1.383775 -16.05988,-1.383775 H 88.054487 l -0.948726,0.474084 c -1.007995,0.503701 -1.5422,1.032179 -2.088227,2.065843 -0.275878,0.522252 -0.351972,0.990176 -0.418921,2.576039 l -0.08181,1.937866 17.324527,0.01555 17.32452,0.01555 z m 40.08154,55.693049 c -0.50878,-0.12924 -1.01813,-0.53013 -1.25462,-0.98745 -0.16856,-0.32596 -0.22462,-1.05067 -0.22462,-2.90372 v -2.46936 l -0.47919,-0.19849 c -0.81499,-0.33758 -2.35242,-1.38422 -3.14439,-2.14061 -1.10895,-1.05914 -2.2026,-2.8085 -2.66762,-4.26703 -0.53347,-1.67324 -0.62574,-3.56903 -0.31789,-6.53146 0.77094,-7.41877 2.38333,-23.296306 3.19593,-31.470948 0.51702,-5.201233 1.04876,-9.966915 1.18163,-10.590405 0.29019,-1.361632 1.33796,-3.498169 2.30961,-4.709572 1.36217,-1.698278 3.64834,-3.086736 5.92115,-3.596082 0.98147,-0.219951 2.79762,-0.250057 15.08475,-0.250057 15.47243,0 15.05586,-0.02438 17.32119,1.013573 2.82062,1.292384 4.87501,3.681867 5.921,6.886794 0.35973,1.102219 0.33507,0.874915 4.27217,39.373537 0.77311,7.55984 0.71941,8.84756 -0.46921,11.24965 -1.03799,2.09768 -2.66711,3.70784 -4.8372,4.78091 l -0.96893,0.47912 v 2.42427 c 0,2.2623 -0.0235,2.45946 -0.35191,2.95104 -0.69535,1.04087 -0.92883,1.0839 -5.61672,1.03528 -3.81305,-0.0396 -4.22446,-0.0696 -4.62005,-0.33775 -0.76858,-0.52092 -0.88349,-0.95547 -0.88349,-3.34116 v -2.17811 h -9.68933 -9.68933 v 2.17811 c 0,2.55554 -0.13361,2.95742 -1.13425,3.41172 -0.58595,0.26603 -1.03042,0.29306 -4.60184,0.27989 -2.17428,-0.008 -4.08986,-0.0493 -4.25684,-0.0917 z m 7.2024,-4.22774 v -1.55029 h -2.94556 -2.94556 v 1.55029 1.55029 h 2.94556 2.94556 z m 30.85083,0 v -1.55029 h -2.94556 -2.94556 v 1.55029 1.55029 h 2.94556 2.94556 z m 1.15628,-4.5782 c 2.17563,-0.56668 4.00343,-2.08907 4.9648,-4.13523 0.95075,-2.02357 0.95027,-2.06073 -0.16765,-13.06818 -0.54556,-5.37177 -0.99205,-9.818 -0.99221,-9.88053 -1.6e-4,-0.0625 -3.83727,-0.13229 -8.52693,-0.15503 l -8.52664,-0.0413 3e-5,8.54904 c 3e-5,8.08558 -0.0166,8.60298 -0.30727,9.54398 -1.12964,3.65733 -5.17966,5.43299 -8.66515,3.79909 -1.56336,-0.73286 -3.01792,-2.56734 -3.42061,-4.31406 -0.0951,-0.41241 -0.15822,-3.9884 -0.16052,-9.09019 l -0.004,-8.41034 h -8.50435 -8.50435 l -0.0999,1.04645 c -0.0549,0.57554 -0.48352,4.70795 -0.95243,9.18313 -1.08356,10.34113 -1.08503,10.87665 -0.0357,13.00846 0.92954,1.88844 2.79443,3.38032 4.9511,3.96082 1.27849,0.34412 37.63135,0.3478 38.95152,0.004 z m -18.46003,-7.70358 c 0.83561,-0.24815 2.02999,-1.43181 2.25216,-2.23195 0.10979,-0.39541 0.16734,-3.4578 0.16791,-8.93445 l 8.7e-4,-8.33282 h -3.48816 -3.48816 v 8.31484 c 0,6.10007 0.0505,8.4848 0.18949,8.95294 0.23294,0.78438 1.38355,1.97882 2.13595,2.2173 0.74132,0.23497 1.47075,0.23959 2.22994,0.0141 z m 21.88324,-22.94862 c -0.10734,-0.93236 -0.94147,-9.132602 -1.63611,-16.084292 -0.51867,-5.19074 -0.80105,-6.468899 -1.75621,-7.949218 -1.14051,-1.767581 -2.93228,-3.099562 -4.8368,-3.595628 -1.36932,-0.356663 -28.07336,-0.356663 -29.44268,0 -2.82058,0.734666 -5.15628,3.137939 -5.89019,6.060585 -0.1258,0.500993 -0.68365,5.445504 -1.23967,10.987801 -0.55601,5.542296 -1.05115,10.373392 -1.10029,10.735782 l -0.0894,0.65887 h 23.0425 23.04251 z m -23.89645,-1.959719 c -1.35395,-0.347402 -2.6625,-1.556689 -3.00019,-2.772593 -0.97176,-3.499013 2.50767,-6.391482 5.76461,-4.792139 1.08829,0.534417 1.75719,1.311893 2.08115,2.418992 0.43121,1.473593 -0.0446,3.264513 -1.10583,4.161774 -0.98913,0.836346 -2.63121,1.268397 -3.73974,0.983966 z m 1.85352,-3.032577 c 0.88589,-0.821014 0.29492,-2.255327 -0.92925,-2.255327 -0.80247,0 -1.29603,0.485293 -1.29603,1.274305 0,1.222929 1.33108,1.80974 2.22528,0.981022 z m -2.45783,-7.38033 c -0.88132,-0.257908 -2.1611,-1.155579 -2.74988,-1.928829 -0.33743,-0.443153 -0.72992,-1.229687 -0.9164,-1.836418 -1.37652,-4.478813 3.4754,-8.453285 7.68226,-6.292954 2.20429,1.131957 3.45861,3.864035 2.81315,6.12741 -0.71769,2.516695 -2.80232,4.114748 -5.32341,4.080875 -0.57234,-0.0077 -1.24992,-0.07523 -1.50572,-0.150084 z m 2.8586,-2.9317 c 1.46556,-0.747671 1.83542,-2.737551 0.74061,-3.984473 -1.15724,-1.318019 -2.94059,-1.318019 -4.09783,0 -1.11219,1.266712 -0.75433,3.05178 0.80207,4.000904 0.6275,0.38266 1.78749,0.375201 2.55515,-0.01643 z"
     id="path1" /></svg>
