<?xml version="1.0" encoding="UTF-8" standalone="no"?>
<!-- Created with Inkscape (http://www.inkscape.org/) -->

<svg
   width="100%"
   height="100%"
   viewBox="0 0 211.66665 211.66666"
   version="1.1"
   id="svg1"
   xml:space="preserve"
   xmlns="http://www.w3.org/2000/svg"
   xmlns:svg="http://www.w3.org/2000/svg"><defs
     id="defs1" /><path
     style="fill:#ffff"
     d="m 104.55505,186.42167 c -0.34778,-0.1389 -3.00053,-2.60527 -5.895001,-5.48084 -4.804859,-4.77348 -5.274919,-5.3196 -5.403438,-6.27779 -0.276691,-2.06288 1.096806,-3.45902 3.402921,-3.45902 1.144614,0 1.273271,0.0833 3.590928,2.32544 1.32208,1.27899 2.47958,2.32544 2.57223,2.32544 0.0926,0 0.16844,-6.54349 0.16844,-14.5411 0,-15.95374 -0.069,-15.23984 1.55315,-16.07866 1.05729,-0.54675 2.38827,-0.48285 3.19724,0.15348 1.4858,1.16873 1.45078,0.77524 1.45078,16.30132 v 14.28274 l 2.13166,-2.09732 c 2.46952,-2.42975 2.86587,-2.67134 4.38261,-2.67134 1.95299,0 3.2272,1.48082 2.96383,3.44441 -0.12529,0.93408 -0.62502,1.52307 -5.13143,6.04789 -2.74594,2.75717 -5.42401,5.23749 -5.95126,5.51183 -1.03886,0.54054 -2.03771,0.61087 -3.03266,0.21352 z m -54.919838,-2.7468 c -6.638438,-0.96306 -12.060281,-1.90122 -12.471427,-2.15798 -0.74235,-0.46361 -1.352019,-1.6089 -1.352019,-2.53984 0,-0.74646 1.231237,-8.33298 1.82761,-11.26119 0.409798,-2.01211 1.445035,-2.97139 3.206687,-2.97139 1.274983,0 2.321021,0.59391 2.713071,1.5404 0.402336,0.97133 0.403785,1.41448 0.01299,3.97226 -0.170125,1.11348 -0.254385,2.07944 -0.187243,2.14658 0.170682,0.17068 2.543476,-1.29683 4.733707,-2.92767 2.61817,-1.94949 6.20531,-5.82321 7.686718,-8.30083 1.789418,-2.99275 2.896165,-6.42415 3.390676,-10.51257 0.492964,-4.07563 0.471211,-3.99981 1.40381,-4.89329 1.644775,-1.5758 4.328595,-0.93115 5.154186,1.23801 0.331535,0.87108 0.326387,1.38801 -0.0437,4.38839 -0.230729,1.87055 -0.719774,4.44745 -1.086768,5.72644 -0.840007,2.92747 -3.038219,7.46114 -4.760649,9.81853 -2.317648,3.17203 -6.971373,7.57251 -9.990701,9.44704 l -1.012087,0.62835 1.59711,0.17694 c 1.797888,0.19918 2.775609,0.72488 3.325358,1.78798 0.866597,1.67581 0.19996,3.6025 -1.516039,4.38159 -1.093711,0.49656 -1.240643,0.51399 -2.631282,0.31225 z m 110.023348,-0.31225 c -1.73096,-0.78588 -2.38255,-2.70596 -1.49846,-4.41559 0.49827,-0.96356 1.69059,-1.58115 3.429,-1.77615 l 1.36632,-0.15326 -2.39098,-1.67948 c -1.31504,-0.92372 -3.50452,-2.78407 -4.8655,-4.13412 -5.42182,-5.37822 -8.68206,-12.11646 -9.59086,-19.82227 -0.38314,-3.24876 -0.21758,-4.56353 0.69456,-5.5156 1.25488,-1.30981 3.08692,-1.32675 4.52498,-0.0419 0.69663,0.62244 0.82003,0.95061 1.04233,2.77218 1.01373,8.30668 2.85617,12.65295 7.41017,17.48044 2.44611,2.593 8.26646,6.82038 8.73935,6.34749 0.0675,-0.0675 -0.0675,-1.23899 -0.30005,-2.60327 -0.40342,-2.36673 -0.40097,-2.52515 0.0536,-3.45357 0.56283,-1.14962 1.375,-1.61407 2.83158,-1.61929 1.08466,-0.004 2.18798,0.62104 2.66278,1.5082 0.27734,0.51821 2.34592,12.04921 2.34592,13.07698 0,0.82956 -1.39602,2.35932 -2.34896,2.57398 -0.5586,0.12584 -12.76357,1.9654 -12.94852,1.95164 -0.0419,-0.003 -0.5627,-0.22653 -1.15724,-0.49646 z M 20.696408,139.14621 c -3.961204,-0.12572 -4.8672,-0.23235 -6.109658,-0.71904 -2.076688,-0.81348 -4.308379,-2.3251 -5.6014522,-3.79411 -1.301917,-1.47906 -2.7182597,-4.32399 -3.1208076,-6.2686 -0.199412,-0.96331 -0.2834387,-14.86901 -0.2834387,-46.906673 0,-39.918316 0.048514,-45.727478 0.3931592,-47.077433 1.2462518,-4.881501 4.5898503,-8.328451 9.5545543,-9.849889 1.492172,-0.457277 4.887434,-0.475088 90.562955,-0.475088 85.67041,0 89.07045,0.01783 90.55191,0.474957 4.58287,1.4141 7.47213,4.051168 9.13896,8.341236 l 0.6906,1.777476 0.0688,46.242071 c 0.0679,45.664723 0.0622,46.267853 -0.4534,48.306943 -0.65685,2.5975 -1.75718,4.43617 -3.80456,6.3575 -1.72266,1.6166 -3.97233,2.82362 -6.27528,3.36689 -1.14862,0.27097 -17.64592,0.33871 -86.04126,0.35331 -46.54109,0.01 -86.713058,-0.0484 -89.271042,-0.12955 z m 174.452522,-7.08589 c 1.71406,-0.50902 3.4759,-2.07819 4.18556,-3.72785 l 0.55558,-1.29149 -0.0674,-45.808392 -0.0674,-45.808396 -0.71631,-1.21856 c -0.80905,-1.37633 -2.0527,-2.424458 -3.48187,-2.93448 -0.8025,-0.286384 -16.19105,-0.347919 -89.35473,-0.357307 -79.52056,-0.0102 -88.504244,0.0292 -89.571486,0.392843 -1.385603,0.472123 -2.805773,1.762493 -3.623483,3.292306 l -0.579192,1.08358 -0.06744,45.46462 c -0.07625,51.405916 -0.256576,46.995176 2.014114,49.265856 2.196698,2.1967 -6.9489683,1.99547 91.605367,2.01565 77.26683,0.0158 88.02461,-0.0286 89.16871,-0.36838 z M 28.519797,115.8577 c -1.054189,-0.61109 -1.751407,-1.79911 -1.751407,-2.98429 0,-1.08087 1.013436,-2.46081 2.076004,-2.82678 0.681349,-0.23467 13.078999,-0.31188 51.86247,-0.32298 l 50.967076,-0.0146 -0.0658,-26.936345 -0.0658,-26.936341 -51.030479,-0.0608 C 42.850173,55.730709 29.293499,55.637157 28.764147,55.41848 c -1.08533,-0.448352 -1.823503,-1.657409 -1.823503,-2.986725 0,-1.347981 0.631923,-2.336004 1.91317,-2.991275 0.837226,-0.428185 3.802697,-0.449508 53.899987,-0.387573 l 53.014019,0.06554 0.71351,0.53273 c 0.39243,0.293001 0.95324,0.853819 1.24624,1.246262 0.53116,0.71144 0.53273,0.805026 0.53273,31.894233 v 31.180698 l -0.57803,0.81036 c -1.26329,1.77104 3.00422,1.64491 -55.431538,1.63834 l -52.76933,-0.006 z m 137.328523,-5.47052 c -10.45411,-2.65578 -14.03306,-15.717718 -6.38129,-23.289547 2.47836,-2.452474 6.20902,-3.992957 9.66994,-3.992957 3.3241,0 7.07693,1.480023 9.54367,3.763791 1.93576,1.792171 3.01203,3.475162 3.79095,5.927976 2.23972,7.052941 -1.42598,14.533607 -8.38755,17.116627 -2.10092,0.77952 -6.12224,1.01102 -8.23572,0.47411 z m 6.57116,-7.29023 c 4.08968,-1.97386 5.16575,-7.333916 2.15826,-10.750601 -1.90357,-2.162568 -5.56366,-3.028861 -8.09495,-1.915964 -4.71904,2.074756 -5.78892,8.209003 -2.02374,11.603345 2.29911,2.07266 5.09518,2.44612 7.96043,1.06322 z M 29.253846,97.04141 c -1.594414,-0.481595 -2.640818,-2.252254 -2.309628,-3.908205 0.211941,-1.059701 1.351704,-2.183843 2.552094,-2.517114 1.429601,-0.396909 65.198003,-0.398349 66.627329,-0.0015 2.168201,0.601988 3.289658,2.821866 2.319785,4.591916 -0.269911,0.492598 -0.818998,1.137597 -1.220191,1.433331 -0.729252,0.537558 -0.738175,0.537711 -33.977256,0.58205 -18.286297,0.02439 -33.582757,-0.05682 -33.992133,-0.180472 z m -0.074,-20.686796 c -1.028843,-0.300363 -2.081911,-1.531 -2.298634,-2.68623 -0.204784,-1.091592 0.470927,-2.578051 1.520983,-3.345924 0.728884,-0.533011 0.762545,-0.533496 41.987102,-0.604157 37.705163,-0.06463 41.354073,-0.03426 42.377633,0.352702 2.60819,0.986036 2.87863,4.484406 0.45987,5.948762 -0.77871,0.471443 -2.13684,0.488589 -42.016679,0.53047 -24.612389,0.02585 -41.541563,-0.05295 -42.030275,-0.195623 z M 155.5719,70.717261 c -1.2355,-0.306904 -1.92898,-0.772116 -2.46749,-1.655281 -0.47409,-0.777531 -0.50197,-1.375723 -0.50197,-10.770966 0,-9.411481 0.0272,-9.992303 0.50437,-10.774911 1.03231,-1.693047 0.55793,-1.647647 16.3965,-1.569183 l 14.3201,0.07094 0.69993,0.645956 c 1.37709,1.270914 1.40847,1.534139 1.40847,11.816716 0,10.739042 -0.008,10.78731 -1.96154,11.812207 -0.97677,0.51245 -1.44586,0.531239 -14.31654,0.57344 -7.31867,0.024 -13.6555,-0.04302 -14.08183,-0.148919 z m 23.64197,-12.297055 v -5.813599 h -10.0769 -10.07691 v 5.813599 5.813598 h 10.07691 10.0769 z"
     id="path1" /></svg>
