<?xml version="1.0" encoding="UTF-8" standalone="no"?>
<!-- Created with Inkscape (http://www.inkscape.org/) -->

<svg
   width="100%"
   height="100%"
   viewBox="0 0 211.66665 211.66666"
   version="1.1"
   id="svg1"
   xml:space="preserve"
   xmlns="http://www.w3.org/2000/svg"
   xmlns:svg="http://www.w3.org/2000/svg"><defs
     id="defs1" /><path
     style="fill:#ffff"
     d="m 38.166228,192.75812 c -4.013162,-1.07927 -7.154606,-3.89933 -8.612036,-7.73098 l -0.589554,-1.54996 -0.06714,-76.9817 c -0.05986,-68.643654 -0.024,-77.150055 0.331092,-78.536124 0.586011,-2.287427 1.363196,-3.685991 3.060958,-5.508272 1.708045,-1.833318 4.253487,-3.258963 6.59347,-3.692854 2.043267,-0.378873 132.613872,-0.353046 134.439932,0.02659 3.34633,0.695703 6.81672,3.294345 8.27427,6.195808 1.61163,3.208173 1.50396,-2.927872 1.43032,81.514852 l -0.0671,76.9817 -0.62176,1.55029 c -0.84466,2.10609 -1.53663,3.15188 -3.0956,4.67844 -1.49405,1.463 -3.89074,2.74772 -5.92009,3.17339 -0.98512,0.20664 -19.93941,0.28244 -67.56694,0.2702 -56.954851,-0.0146 -66.392077,-0.0693 -67.589787,-0.39138 z m 134.067762,-6.82493 c 1.68551,-0.57081 3.18703,-2.04026 3.5983,-3.52143 0.19467,-0.70112 0.27854,-18.0759 0.27955,-57.91031 l 0.001,-56.908677 H 105.96253 35.811766 l 0.0014,56.779477 c 10e-4,40.25485 0.0836,57.08028 0.283755,57.81302 0.57162,2.09264 2.31751,3.62129 4.560197,3.99275 0.674623,0.11174 30.236446,0.21038 65.692942,0.2192 62.16588,0.0155 64.51693,-0.001 65.88389,-0.46403 z m -71.82668,-13.46523 c -4.739125,-0.53635 -11.988648,-2.60023 -15.761993,-4.4873 -9.943807,-4.97296 -17.802076,-12.60758 -22.591296,-21.94834 -4.974841,-9.70278 -6.411146,-20.40173 -4.24772,-31.641 1.796186,-9.33141 7.204392,-19.100904 14.283344,-25.801722 5.210902,-4.932553 10.822271,-8.268 17.87726,-10.626399 16.606905,-5.551492 35.755435,-1.869853 48.408075,9.307299 7.63243,6.742373 13.44858,16.472912 15.64458,26.173702 0.57048,2.52007 1.16477,7.8651 1.16477,10.47589 0,2.5528 -0.57617,7.80532 -1.16136,10.58719 -0.95816,4.55496 -3.79152,11.36398 -6.45375,15.50941 -3.78249,5.88984 -9.00348,11.08639 -15.12252,15.05175 -6.00287,3.89008 -13.78512,6.64037 -20.98337,7.41565 -2.88806,0.31105 -8.234,0.30325 -11.05602,-0.0161 z m 13.56506,-7.46939 c 15.51864,-3.24841 27.34442,-13.70631 31.98868,-28.28857 1.63894,-5.14601 1.86055,-6.64853 1.8483,-12.53153 -0.01,-4.73949 -0.084,-5.63944 -0.70425,-8.55285 -1.21979,-5.72929 -3.07975,-10.17247 -6.26235,-14.95993 -5.00929,-7.535273 -12.17572,-13.000957 -20.79896,-15.862927 -7.62164,-2.529546 -13.88924,-3.024464 -21.574348,-1.703606 -8.974743,1.542511 -17.376334,5.919529 -23.087529,12.028022 -5.373733,5.747561 -9.489526,14.029581 -10.906064,21.945781 -0.480375,2.68453 -0.537189,3.742 -0.423402,7.88065 0.09683,3.52173 0.278173,5.46026 0.688884,7.3639 2.762763,12.80534 10.67597,23.11911 22.100913,28.80549 4.592883,2.28595 8.923307,3.57133 14.752756,4.379 2.81875,0.39054 9.3819,0.12359 12.37737,-0.50343 z M 176.11328,45.234416 c 0,-16.790586 0.0303,-16.425754 -1.4994,-18.037521 -0.38326,-0.403818 -1.12823,-0.95611 -1.65548,-1.227315 -0.93602,-0.481467 -2.51501,-0.492967 -66.92099,-0.487427 -63.243608,0.0054 -66.005028,0.02507 -66.998084,0.476204 -1.302632,0.591773 -2.600924,2.052065 -2.953642,3.322196 -0.174896,0.629797 -0.271548,6.360527 -0.272477,16.155948 l -0.0014,15.179953 h 70.150763 70.15075 z m -25.01803,8.127232 c -1.91489,-0.259662 -4.41971,-1.560324 -5.71861,-2.96946 -0.59869,-0.649509 -1.45648,-1.957576 -1.90619,-2.906817 -0.74044,-1.562907 -0.81766,-1.958978 -0.81766,-4.194102 0,-2.333995 0.053,-2.575442 0.97471,-4.440215 1.1171,-2.260091 2.63832,-3.775222 4.83889,-4.819523 1.26421,-0.59994 1.73489,-0.674396 4.26331,-0.674396 2.57018,0 2.97821,0.06712 4.2633,0.701297 3.99563,1.971797 6.15481,5.643009 5.88115,9.999607 -0.37408,5.955099 -5.66339,10.132884 -11.7789,9.303609 z m 3.86109,-7.700962 c 0.95974,-0.959732 1.12216,-1.421352 1.01075,-2.872602 -0.10853,-1.413568 -1.74641,-2.839409 -3.26378,-2.841238 -1.78092,-0.0021 -3.69459,2.226548 -3.33146,3.879881 0.20121,0.916071 1.27603,2.275731 2.04486,2.586755 0.29581,0.119669 0.98754,0.224949 1.53717,0.233957 0.82742,0.01356 1.1719,-0.156188 2.00246,-0.986753 z"
     id="path1" /></svg>
