<?xml version="1.0" encoding="UTF-8" standalone="no"?>
<!-- Created with Inkscape (http://www.inkscape.org/) -->

<svg
   width="100%"
   height="100%"
   viewBox="0 0 8.4666669 13.49375"
   version="1.1"
   id="svg1"
   xml:space="preserve"
   xmlns="http://www.w3.org/2000/svg"
   xmlns:svg="http://www.w3.org/2000/svg"><defs
     id="defs1" /><g
     id="layer1"><path
       style="fill:currentColor;stroke-width:0.056322"
       d="M 6.2630152,13.260849 C 6.1118153,13.212905 6.01227,13.131999 5.9586971,13.01351 5.9055431,12.895949 5.9072148,12.894214 6.0730162,12.894869 l 0.1452934,5.75e-4 0.030061,0.04778 c 0.016534,0.02628 0.050063,0.0576 0.07451,0.0696 0.063734,0.03128 0.2001201,0.02666 0.2690656,-0.0091 0.094752,-0.04917 0.117356,-0.09316 0.1235131,-0.24039 l 0.00539,-0.128819 -0.059322,0.05359 c -0.082493,0.07451 -0.1449661,0.0916 -0.3070367,0.08399 -0.1605561,-0.0075 -0.2256559,-0.03529 -0.3181328,-0.13562 -0.1133402,-0.12296 -0.1465758,-0.237613 -0.1354455,-0.46725 0.00837,-0.17269 0.038047,-0.252608 0.1314151,-0.3539 0.1656088,-0.179665 0.4615958,-0.207406 0.6262059,-0.05869 l 0.058991,0.0533 v -0.06879 -0.06879 h 0.1564699 0.1564694 v 0.563534 c 0,0.34144 -0.00638,0.598383 -0.016192,0.651957 -0.047631,0.26011 -0.238623,0.395232 -0.5553742,0.392915 -0.07495,-5.64e-4 -0.1630962,-0.0095 -0.1958802,-0.0199 z M 6.5638081,12.5208 c 0.1537676,-0.0581 0.2165673,-0.306412 0.1212101,-0.479275 -0.087706,-0.158995 -0.3112119,-0.174249 -0.4078555,-0.02784 -0.1062284,0.160935 -0.069568,0.407274 0.073603,0.494577 0.051418,0.03135 0.1481681,0.03705 0.2130426,0.01254 z M 3.4093068,12.46959 v -0.79725 h 0.1564697 0.1564696 v 0.06696 0.06696 l 0.068021,-0.05192 c 0.1747221,-0.133369 0.4409738,-0.124106 0.6063477,0.02109 0.06588,0.05784 0.1369657,0.195103 0.1610067,0.310889 0.025396,0.12231 0.010502,0.33282 -0.031333,0.442875 -0.047808,0.125767 -0.1859022,0.263552 -0.2972999,0.296634 -0.170738,0.0507 -0.3554574,0.02023 -0.4532866,-0.07478 l -0.053456,-0.05192 v 0.283853 0.283853 H 3.5657765 3.4093068 Z m 0.6691124,0.105074 c 0.1953642,-0.101027 0.2223442,-0.461216 0.045682,-0.609868 -0.056632,-0.04765 -0.1019626,-0.0602 -0.1797952,-0.04976 -0.1171304,0.01571 -0.1970076,0.108474 -0.2236511,0.259732 -0.028742,0.16317 0.04485,0.351591 0.1562596,0.400079 0.061356,0.0267 0.1496651,0.02662 0.2015045,-1.69e-4 z m -1.6036679,0.254234 c -0.2752385,-0.09009 -0.4269288,-0.357224 -0.3815832,-0.671983 0.030668,-0.21288 0.1344574,-0.359311 0.3154593,-0.445067 0.092143,-0.04365 0.1101242,-0.0469 0.2555857,-0.04617 0.1243902,6.31e-4 0.1732732,0.0074 0.23843,0.03324 0.1197812,0.04743 0.2279271,0.148814 0.286483,0.268568 0.047171,0.09647 0.048774,0.105867 0.048791,0.286021 1.68e-5,0.173814 -0.00285,0.192487 -0.042892,0.279176 -0.052091,0.112779 -0.1556492,0.214294 -0.2737782,0.268375 -0.069638,0.03188 -0.1114202,0.03966 -0.2342286,0.0436 -0.098914,0.0032 -0.170711,-0.0022 -0.212267,-0.01576 z m 0.308712,-0.255461 c 0.097617,-0.04931 0.1402911,-0.14389 0.1409826,-0.312474 9.315e-4,-0.227131 -0.075579,-0.335663 -0.2443564,-0.346625 -0.1161473,-0.0075 -0.1745098,0.02706 -0.2312084,0.137084 -0.038247,0.07422 -0.043923,0.101126 -0.043671,0.207031 3.098e-4,0.131309 0.032536,0.230624 0.091933,0.283338 0.073321,0.06507 0.1937861,0.07839 0.2863206,0.03165 z m 2.1606397,0.262227 c -0.1592618,-0.04844 -0.2532351,-0.171309 -0.2532351,-0.331087 0,-0.214392 0.1519304,-0.323143 0.5282534,-0.37812 0.2154949,-0.03148 0.2168404,-0.03194 0.2168404,-0.0737 0,-0.09396 -0.063474,-0.153911 -0.1757653,-0.165996 -0.08893,-0.0096 -0.1609155,0.0254 -0.2104546,0.102246 l -0.036026,0.05588 h -0.139071 c -0.076489,0 -0.1390709,-0.0056 -0.1390709,-0.01253 0,-0.04026 0.047901,-0.160215 0.08164,-0.204449 0.087336,-0.114504 0.2940258,-0.183273 0.4991524,-0.166075 0.2179364,0.01827 0.3589032,0.111025 0.4031368,0.265259 0.00797,0.0278 0.014495,0.243381 0.014495,0.47907 V 12.83469 H 5.5924311 5.4508634 v -0.0586 -0.0586 l -0.075284,0.05066 c -0.041406,0.02787 -0.100082,0.05755 -0.1303911,0.06597 -0.063028,0.0175 -0.2455422,0.01844 -0.3010853,0.0015 z m 0.3509072,-0.237615 c 0.033123,-0.01505 0.078388,-0.04894 0.1005878,-0.07533 0.033941,-0.04034 0.040364,-0.06201 0.040364,-0.136237 0,-0.08164 -0.00252,-0.08826 -0.03353,-0.08815 -0.064518,2.25e-4 -0.2278108,0.0303 -0.2909039,0.0536 -0.097101,0.03585 -0.136831,0.136524 -0.083774,0.212273 0.046198,0.06596 0.1637789,0.08085 0.267256,0.03384 z m 2.2929354,0.234639 c -0.1594562,-0.03587 -0.3070413,-0.178529 -0.3653025,-0.353101 -0.026165,-0.0784 -0.030555,-0.12125 -0.026015,-0.253907 0.00494,-0.144278 0.01014,-0.169091 0.05422,-0.25863 0.059601,-0.121065 0.1649571,-0.22036 0.2832717,-0.266973 0.068029,-0.0268 0.1146706,-0.03347 0.2339837,-0.03347 0.1193138,0 0.1659557,0.0067 0.2339838,0.03347 0.1184002,0.04665 0.2236632,0.145896 0.2834012,0.26721 0.04736,0.09618 0.048886,0.105107 0.048886,0.28589 0,0.163085 -0.00431,0.196004 -0.034225,0.26112 -0.076928,0.167474 -0.1859258,0.266096 -0.3447517,0.311933 -0.087795,0.02534 -0.2693455,0.02853 -0.3674529,0.0065 z m 0.2397663,-0.237871 c 0.080499,-0.02185 0.1506632,-0.0926 0.1802964,-0.181819 0.035219,-0.106035 0.023335,-0.281348 -0.02493,-0.367785 -0.055274,-0.09899 -0.1026762,-0.12699 -0.2149745,-0.12699 -0.072651,0 -0.1044644,0.0072 -0.1367493,0.03112 -0.070354,0.05204 -0.1130395,0.146304 -0.1207646,0.266672 -0.012633,0.196855 0.05118,0.32559 0.1850506,0.373313 0.070866,0.02526 0.060744,0.02484 0.1320712,0.0055 z M 0.14579669,12.044888 v -0.789799 h 0.37726086 c 0.4027252,0 0.51227195,0.01188 0.62190685,0.06744 0.1638296,0.08302 0.240315,0.267432 0.1914326,0.461562 -0.019391,0.07701 -0.097852,0.174471 -0.1617726,0.200947 -0.024917,0.01032 -0.045304,0.02303 -0.045304,0.02823 0,0.0052 0.0285,0.01833 0.063333,0.02916 0.1527226,0.0475 0.2198881,0.151079 0.219657,0.338731 -1.746e-4,0.142582 -0.039445,0.240959 -0.1268006,0.317658 -0.1303958,0.114489 -0.2410034,0.13469 -0.74108785,0.135346 l -0.39862506,5.07e-4 z m 0.74678516,0.506739 c 0.061917,-0.01144 0.091341,-0.02672 0.12869985,-0.06684 0.04146,-0.04453 0.048431,-0.06291 0.048431,-0.12772 0,-0.04164 -0.00728,-0.08931 -0.016176,-0.105934 -0.032085,-0.05995 -0.13039485,-0.0868 -0.35531535,-0.09703 l -0.2096813,-0.0095 v 0.210944 0.210944 h 0.1618867 c 0.089038,0 0.1980076,-0.0067 0.2421554,-0.01483 z m -0.010317,-0.657245 c 0.032138,-0.0089 0.077403,-0.03519 0.1005877,-0.05838 0.0550738,-0.05508 0.0598538,-0.166945 0.00985,-0.230517 -0.052793,-0.06712 -0.1109272,-0.08216 -0.3174096,-0.08216 h -0.1867532 v 0.193724 0.193724 l 0.1676461,-5.6e-5 c 0.092205,-4.6e-5 0.193941,-0.0074 0.2260792,-0.01631 z M 1.60618,12.253515 v -0.581173 h 0.1564696 0.1564697 v 0.581173 0.581173 H 1.7626498 1.6061802 Z m 0.078528,-0.70708 c -0.1611725,-0.07174 -0.120011,-0.298045 0.057501,-0.316142 0.1396256,-0.01423 0.2323644,0.113213 0.174613,0.239963 -0.034938,0.07668 -0.1477828,0.113715 -0.2321143,0.07618 z M 0.99520345,10.941669 c -0.0860583,-0.0063 -0.185501,-0.02202 -0.2209839,-0.03502 C 0.54216815,10.821687 0.34070379,10.64474 0.23719413,10.434982 0.12159973,10.200734 0.13001965,10.602941 0.1344131,5.5253195 0.1382101,1.1371047 0.1393031,0.97742 0.1660995,0.8982882 0.2625095,0.6135776 0.43703583,0.4103853 0.68111825,0.2986776 0.87770685,0.208706 0.69621925,0.213343 4.032088,0.2130608 7.3648663,0.21277919 7.2027089,0.2088438 7.3968944,0.2947215 7.633674,0.3994367 7.8119248,0.5982164 7.9048494,0.8611766 l 0.042077,0.1190719 0.00387,4.5565174 C 7.9551064,10.617193 7.9638274,10.200136 7.848421,10.434194 7.7377927,10.658562 7.5269269,10.835996 7.268893,10.92184 7.190636,10.94787 7.0505793,10.9492 4.1693038,10.95108 2.5096079,10.95218 1.0812635,10.94798 0.99520515,10.94168 Z M 7.258714,10.601688 c 0.1850928,-0.07468 0.3496714,-0.283863 0.3828293,-0.486592 0.02001,-0.1223397 0.02001,-8.9379982 0,-9.0603381 C 7.6138143,0.8852218 7.5006408,0.7135727 7.3557501,0.6212978 7.32566,0.6021347 7.2603045,0.5727326 7.2105153,0.5559598 7.1203048,0.5255701 7.1091744,0.5254773 4.0158409,0.5293281 l -3.10414815,0.00386 -0.1126065,0.055654 c -0.139162,0.068779 -0.2197906,0.1531392 -0.2931081,0.3066731 l -0.054693,0.1145326 -0.00393,4.5301695 c -0.002768,3.1948951 8.094e-4,4.5530947 0.012139,4.6079487 0.047108,0.228094 0.2192953,0.411243 0.4462939,0.474707 0.053026,0.01483 0.71567235,0.01823 3.16664755,0.01627 l 3.0995893,-0.0025 z M 1.9789697,10.303905 c -0.052485,-0.05249 -0.065175,-0.137771 -0.057722,-0.3879407 0.00574,-0.192827 0.023064,-0.239834 0.103622,-0.281234 0.050854,-0.02614 0.8701886,-0.02614 0.921043,0 0.080558,0.0414 0.097878,0.08841 0.1036219,0.281234 0.00745,0.2501697 -0.00524,0.3354547 -0.057723,0.3879407 l -0.04217,0.04217 H 2.4853907 2.02114 Z m 1.5673484,1.69e-4 c -0.056904,-0.05316 -0.067238,-0.117088 -0.060302,-0.3730637 0.00457,-0.168477 0.00933,-0.199252 0.036491,-0.235818 0.057095,-0.07686 0.070516,-0.07885 0.5320454,-0.07909 0.4715569,-2.25e-4 0.4952183,0.0037 0.5392008,0.0887 0.030948,0.05985 0.032327,0.4699377 0.00182,0.5429367 -0.041148,0.09848 -0.04031,0.09833 -0.5472323,0.09833 H 3.5912795 Z m 1.5732134,-0.0014 -0.048666,-0.04345 -0.00471,-0.254961 c -0.00435,-0.2353487 -0.00237,-0.2587467 0.025713,-0.3041867 0.016733,-0.02707 0.047668,-0.05708 0.068746,-0.06669 0.026382,-0.01202 0.1685628,-0.01746 0.4563459,-0.01746 0.4672232,0 0.4973324,0.0054 0.5405923,0.09654 0.03299,0.06952 0.033924,0.4808637 0.00124,0.5440747 -0.046342,0.08962 -0.046101,0.08958 -0.539633,0.08958 H 5.1681972 Z M 2.0282828,9.3855133 c -0.091677,-0.03988 -0.1017123,-0.07469 -0.1017123,-0.35278 0,-0.2296745 0.00244,-0.2524607 0.03124,-0.2912418 0.057058,-0.076842 0.07074,-0.078889 0.52758,-0.078889 0.4568404,0 0.4705224,0.00204 0.5275799,0.078889 0.028796,0.038781 0.03124,0.061567 0.03124,0.2912418 0,0.385632 0.016326,0.37477 -0.5620671,0.373941 -0.3119759,-4.51e-4 -0.4175597,-0.0054 -0.453861,-0.02116 z m 1.5646967,0 c -0.08773,-0.03816 -0.1011592,-0.07854 -0.1065134,-0.3202991 -0.00565,-0.2550234 0.00879,-0.3175329 0.08524,-0.3689764 0.0498,-0.033513 0.057621,-0.034074 0.4746078,-0.034074 0.5856613,0 0.5700832,-0.010243 0.5699891,0.3747989 -5.63e-5,0.2597866 -0.015738,0.3088036 -0.1115559,0.3488386 -0.072859,0.03044 -0.8416769,0.0302 -0.9117671,-2.82e-4 z m 1.5954283,0.0115 c -0.017312,-0.0034 -0.050841,-0.02638 -0.07451,-0.05106 l -0.043033,-0.04488 -0.00469,-0.2512636 c -0.00391,-0.2096363 -6.646e-4,-0.2590527 0.019618,-0.2982743 0.043085,-0.083317 0.079862,-0.089392 0.5396913,-0.089148 0.454549,2.253e-4 0.4635718,0.00179 0.5225528,0.089305 0.033633,0.049909 0.034758,0.060802 0.030251,0.2930582 -0.00718,0.3700587 0.00646,0.3613547 -0.5635007,0.3596397 -0.2171952,-6.53e-4 -0.4090641,-0.004 -0.4263764,-0.0074 z M 2.0282828,8.4317935 C 1.9367949,8.3919986 1.9265705,8.3567979 1.9265705,8.0816196 c 0,-0.2706043 0.00615,-0.2950385 0.086637,-0.3441136 0.044086,-0.026881 0.07795,-0.028955 0.4737051,-0.029006 0.4193778,-5.52e-5 0.4270385,5.069e-4 0.4768599,0.034018 0.076447,0.051444 0.090888,0.1139535 0.08524,0.3689769 -0.00772,0.3485569 0.00271,0.342277 -0.5668681,0.3414597 C 2.1701685,8.452504 2.0645847,8.4475846 2.0282828,8.4317935 Z m 1.5646967,0 c -0.091546,-0.039821 -0.1017124,-0.074882 -0.1017124,-0.350803 0,-0.3828829 -0.015505,-0.3725466 0.5588204,-0.3725466 0.4489971,0 0.4834639,0.00593 0.536085,0.09224 0.026631,0.04368 0.030078,0.074921 0.030107,0.2728561 3.77e-5,0.2565159 -0.015604,0.3096202 -0.1042341,0.3538961 -0.045952,0.022956 -0.1009105,0.025989 -0.4619579,0.025495 -0.31478,-4.505e-4 -0.4207707,-0.00533 -0.457108,-0.021138 z m 1.5821993,8.448e-4 C 5.0750625,8.3884463 5.0708654,8.374247 5.0708654,8.0797137 V 7.8133313 l 0.048697,-0.048718 0.048696,-0.048718 0.4356144,-0.00385 c 0.478505,-0.00423 0.4839824,-0.00338 0.5432061,0.084506 0.031769,0.047141 0.033973,0.065527 0.033921,0.282918 -5.63e-5,0.2639409 -0.015406,0.3124386 -0.1115559,0.3526126 -0.071237,0.029765 -0.8270281,0.030235 -0.8942643,5.632e-4 z M 2.3455774,7.4386635 C 2.1270625,7.3868844 1.9406663,7.1870831 1.8910434,6.9514401 1.864908,6.8273311 1.8682783,4.2084083 1.8947004,4.1096418 1.9400493,3.9401278 2.041251,3.7988388 2.1744907,3.7190229 2.3387005,3.6206547 2.2620195,3.6242709 4.0889401,3.6287397 l 1.6525093,0.00404 0.08196,0.033743 c 0.1680526,0.069188 0.291969,0.193104 0.3611567,0.3611564 l 0.033743,0.08196 v 1.4156777 c 0,1.1705853 -0.00362,1.428142 -0.020903,1.4876722 -0.048935,0.1685431 -0.1993237,0.3310435 -0.3702403,0.4000577 l -0.085717,0.034612 -1.6690094,0.00235 c -0.9731433,0.00138 -1.69313,-0.00336 -1.7268622,-0.011347 z M 5.7442898,7.1193266 C 5.8343928,7.0744256 5.8904286,7.0001846 5.9126301,6.8962918 5.9234321,6.8457458 5.9272211,6.395229 5.9244131,5.4955162 L 5.920273,4.1692493 5.887622,4.1082308 C 5.8454132,4.029352 5.7644897,3.9589006 5.6934272,3.9391663 5.6109239,3.9162549 2.4863917,3.9174077 2.4097243,3.9403777 2.3341612,3.963017 2.2536368,4.0313663 2.2130002,4.1073577 l -0.033097,0.061891 -0.00437,1.3337178 c -0.00306,0.9343627 5.463e-4,1.3537964 0.012045,1.4007757 0.02584,0.1055796 0.080624,0.1762035 0.1683777,0.2170618 l 0.077276,0.035979 1.6176525,1.69e-4 1.617653,1.69e-4 z M 4.3977899,7.0317942 C 4.3019005,6.9769613 4.2011804,6.9066821 4.0915692,6.8181242 L 3.9914838,6.7372615 3.8680411,6.8193109 c -0.1447766,0.09623 -0.3606591,0.203647 -0.4092798,0.203647 -0.018745,0 -0.054976,-0.018669 -0.080513,-0.041486 -0.050144,-0.044804 -0.062496,-0.1186108 -0.030008,-0.1793153 0.00903,-0.016877 0.088497,-0.068221 0.1765872,-0.114096 0.08809,-0.045875 0.2037523,-0.1200494 0.2570265,-0.1648304 0.2211385,-0.1858847 0.2403832,-0.1860115 0.4199587,-0.00277 0.068178,0.06957 0.1776065,0.1612765 0.2431744,0.2037929 0.1699224,0.1101817 0.1862739,0.128011 0.1862739,0.2031158 0,0.052207 -0.00794,0.069814 -0.045849,0.1017154 -0.056838,0.047826 -0.1074461,0.048557 -0.1876221,0.00271 z M 4.9367485,6.7569038 C 4.7969797,6.7058552 4.7159205,6.6648995 4.5936954,6.5835739 4.3706055,6.4351349 4.2233121,6.2617531 4.1010674,6.0036923 4.0637895,5.924998 4.0304474,5.8606117 4.0269741,5.8606117 c -0.00348,0 -0.029358,0.045756 -0.057521,0.1016799 C 3.8063875,6.2860966 3.5087153,6.5256906 3.1254024,6.6416599 2.9639947,6.6904929 2.9399284,6.6899889 2.8865951,6.6366499 2.7954131,6.5454679 2.8430591,6.4304971 2.988653,6.3903834 3.4606262,6.2603454 3.7418539,5.9560397 3.8427403,5.4662082 c 0.037239,-0.1808055 0.090181,-0.2459425 0.199896,-0.2459425 0.1066672,0 0.1765533,0.081297 0.1913175,0.2225571 0.02355,0.225314 0.1155751,0.474001 0.2398401,0.6481437 0.1225466,0.1717337 0.3113359,0.3114186 0.5151118,0.3811301 0.1136219,0.03887 0.1788225,0.09845 0.1788225,0.1634071 0,0.052867 -0.064856,0.1294821 -0.1192152,0.1408305 -0.02049,0.00428 -0.070784,-0.00447 -0.1117643,-0.019436 z M 4.9993403,6.2274755 C 4.8408304,6.1572926 4.7388807,6.0763871 4.656272,5.9552232 4.5659197,5.8227014 4.527062,5.7089497 4.5094157,5.5253195 4.4838106,5.25886 4.4340118,5.1504434 4.2949003,5.0583 4.2009889,4.9960957 4.1238344,4.9765553 4.005263,4.984945 3.7802336,5.0008684 3.6273453,5.1702834 3.5895849,5.4455568 3.5427965,5.7866448 3.3320449,6.0429048 3.0228788,6.1346342 2.9049066,6.1696367 2.8627211,6.1657251 2.8120856,6.1150899 2.7284989,6.031503 2.7726435,5.908049 2.8996004,5.8703464 3.1408626,5.7986997 3.2685156,5.6469509 3.3026627,5.3912027 3.3333425,5.1614239 3.4065071,5.0125856 3.5574969,4.872796 3.9542967,4.5054293 4.6223448,4.7035517 4.7642893,5.2306927 c 0.00922,0.034246 0.022551,0.1397778 0.029622,0.2345143 0.010395,0.1392709 0.020449,0.1877687 0.052519,0.2533168 0.050939,0.1041151 0.1649357,0.2068149 0.27408,0.2469202 0.097787,0.035932 0.1251419,0.054111 0.1490968,0.099088 0.04636,0.087044 -0.00588,0.1931435 -0.1018787,0.206921 -0.038582,0.00554 -0.082408,-0.00591 -0.1683881,-0.043978 z M 5.064702,5.6555659 C 5.0254253,5.6162886 5.0231724,5.6060741 5.0145794,5.4283121 4.9966126,5.0566272 4.8606743,4.7985399 4.5870618,4.6166428 4.4176305,4.5040049 4.3120452,4.471159 4.0940226,4.4632666 3.9796827,4.459127 3.8737161,4.4633793 3.821405,4.4742607 3.5733279,4.5257616 3.3066171,4.7392328 3.1877846,4.9814012 3.1241356,5.111112 3.0814656,5.282384 3.0814656,5.4081556 c 0,0.074996 -0.030994,0.1460318 -0.073684,0.1688788 -0.051411,0.027514 -0.1277254,0.017999 -0.170021,-0.0212 -0.035829,-0.033205 -0.039431,-0.046665 -0.039431,-0.1473722 0,-0.5762652 0.3849626,-1.0716063 0.9462689,-1.217588 0.1626717,-0.042307 0.4438916,-0.042851 0.6049174,-0.00117 0.407477,0.105471 0.752641,0.4264734 0.8833357,0.8215015 0.066351,0.2005476 0.08999,0.5020727 0.047361,0.604099 -0.036813,0.088106 -0.1470681,0.1087038 -0.2155106,0.040261 z M 4.2207816,3.3503236 C 4.1632661,3.2928084 4.1714581,3.2251319 4.2514748,3.0967503 4.4416682,2.7915977 4.5243867,2.4566484 4.5073521,2.0606343 4.49336,1.7353484 4.4160124,1.4767252 4.2507911,1.2027829 4.2059723,1.1284721 4.1693021,1.0560513 4.1693021,1.0418478 c 0,-0.047312 0.042761,-0.1093346 0.088419,-0.1282468 0.101757,-0.042149 0.1765161,0.020489 0.2941312,0.2464427 0.094608,0.1817541 0.1292709,0.2711295 0.1758948,0.4535344 0.1298668,0.5080717 0.067686,1.0518307 -0.174346,1.5246043 -0.098849,0.1930873 -0.1511419,0.2487185 -0.2337922,0.2487185 -0.046224,0 -0.071668,-0.00942 -0.098827,-0.036577 z M 3.692736,3.0697228 C 3.6459111,3.0460305 3.6151913,2.9880263 3.6239002,2.9397489 3.6276062,2.9192061 3.6543389,2.863039 3.6833068,2.8149331 3.7489656,2.7058957 3.8052946,2.5600521 3.833895,2.4250382 3.8598181,2.3026629 3.8630865,2.0281731 3.8401084,1.903176 3.8179761,1.7827794 3.7497961,1.6111226 3.6777326,1.4943631 3.644852,1.4410889 3.6179459,1.3854327 3.6179414,1.3706826 3.6179264,1.3227226 3.6602154,1.2605528 3.7056574,1.2417301 3.8110526,1.1980741 3.88424,1.2592961 3.9983085,1.486536 4.1042395,1.6975646 4.1433744,1.8721965 4.1453315,2.1425946 4.1476069,2.4572573 4.0920497,2.6744851 3.9448109,2.9265927 3.8556542,3.0792495 3.787758,3.1178015 3.692736,3.0697228 Z M 3.1757481,2.8100794 c -0.050424,-0.00954 -0.1091844,-0.07712 -0.1091844,-0.1255806 0,-0.023461 0.024239,-0.090219 0.053865,-0.148351 C 3.1916877,2.3963227 3.2151917,2.3020837 3.2154057,2.1553407 3.2156198,2.0085353 3.1787567,1.8784305 3.104271,1.7630994 3.075336,1.7182974 3.051662,1.6693474 3.051662,1.6543207 c 0,-0.046552 0.04431,-0.1158392 0.083644,-0.130794 0.102361,-0.038918 0.1816859,0.016084 0.2641596,0.1831612 0.077324,0.1566446 0.1047002,0.2753883 0.1056512,0.4582595 C 3.5060979,2.3536584 3.4752058,2.4885197 3.395495,2.6435032 3.324783,2.7809908 3.264314,2.8268282 3.1757481,2.8100794 Z M 2.6245302,2.5141683 c -0.025924,-0.013115 -0.055298,-0.043555 -0.065276,-0.067645 -0.015453,-0.037306 -0.013436,-0.056098 0.013605,-0.1267589 0.040754,-0.106497 0.041165,-0.2294763 0.00106,-0.3178782 -0.052958,-0.116738 0.00197,-0.2094857 0.1240724,-0.2094857 0.1267608,0 0.2138829,0.1697179 0.2014769,0.3924868 -0.014158,0.2542366 -0.1356549,0.399747 -0.2749383,0.329281 z"
       id="path1" /></g></svg>
