<svg
   width="100%"
   height="100%"
   viewBox="0 0 31 31"
   xml:space="preserve"><defs
     id="defs1" /><g
     id="g1"><path
       style="fill:currentColor;stroke-width:0.0447112"
       d="M 7.947983,30.423966 C 7.6715783,30.326338 7.3959679,30.035391 7.2758922,29.714469 7.1044399,29.256207 7.0729435,27.975425 7.22096,27.481462 c 0.064233,-0.214255 0.2132958,-0.481824 0.3281495,-0.588966 0.2772573,-0.258617 0.8875664,-0.388721 1.3279441,-0.28307 0.4364251,0.1047 0.7271106,0.407796 0.8860256,0.923887 0.06404,0.207851 0.0809,0.41576 0.08109,1.000134 2.23e-4,0.644964 -0.01269,0.778778 -0.102307,1.064057 -0.135083,0.429855 -0.4083773,0.726529 -0.76626,0.831801 -0.3023402,0.08893 -0.7675391,0.08651 -1.0275999,-0.0058 z M 8.7760541,29.834167 C 8.9169304,29.770227 8.9842635,29.700218 9.0655282,29.533348 9.2623927,29.129108 9.2356436,27.746599 9.0254192,27.463141 8.879369,27.26616 8.7191454,27.177213 8.5104224,27.177213 c -0.2792142,0 -0.4766601,0.127865 -0.6110259,0.395696 -0.1052915,0.209866 -0.111773,0.264333 -0.111773,0.938187 0,0.475013 0.019667,0.770775 0.05842,0.880252 0.1620354,0.457177 0.5214584,0.628329 0.9299523,0.442819 z m 6.3363249,0.637659 c -0.05358,-0.01163 -0.120221,-0.04873 -0.148161,-0.08235 -0.05948,-0.07169 -1.028753,-3.444209 -1.028753,-3.579553 0,-0.142174 0.08913,-0.199083 0.310739,-0.198337 0.241014,8.14e-4 0.294745,0.02907 0.354559,0.18641 0.07024,0.184784 0.676035,2.513066 0.676035,2.598303 0,0.04185 0.02015,0.07615 0.04466,0.07615 0.02461,0 0.04476,-0.03023 0.04476,-0.06714 0,-0.107694 0.717112,-2.678665 0.759004,-2.721186 0.02093,-0.02122 0.127371,-0.04863 0.236567,-0.06094 0.208644,-0.02355 0.390483,0.04059 0.390483,0.13768 0,0.130732 -1.026486,3.578409 -1.081912,3.633836 -0.0652,0.0652 -0.400055,0.11155 -0.557983,0.07721 z m 6.604116,-0.02829 c -0.08225,-0.04157 -0.193221,-0.238873 -0.433625,-0.77061 l -0.32312,-0.71469 -0.1588,-0.01385 -0.1588,-0.01385 v 0.709138 c 0,0.491939 -0.01647,0.72557 -0.05367,0.762793 -0.02955,0.02955 -0.156271,0.05367 -0.281686,0.05367 -0.125413,0 -0.252164,-0.02412 -0.281674,-0.05367 -0.04001,-0.04001 -0.05367,-0.518301 -0.05367,-1.876298 v -1.822653 l 0.09679,-0.05174 c 0.06588,-0.03526 0.290336,-0.04486 0.704198,-0.03003 0.647085,0.02326 0.926135,0.09935 1.159514,0.31636 0.263965,0.245451 0.372211,0.702821 0.276018,1.166218 -0.04408,0.21255 -0.09078,0.297854 -0.249966,0.457042 -0.107645,0.107646 -0.226433,0.195711 -0.263965,0.195711 -0.03749,0 -0.0682,0.0058 -0.0682,0.01318 0,0.0068 0.150535,0.344251 0.334515,0.748918 0.183979,0.404667 0.334883,0.771462 0.335338,0.815108 0.002,0.148695 -0.364703,0.21784 -0.579152,0.109322 z m -0.367909,-2.157798 c 0.170367,-0.100645 0.232682,-0.235908 0.231839,-0.503273 -9.7e-4,-0.396781 -0.185849,-0.561219 -0.681189,-0.606792 l -0.257086,-0.02364 v 0.629782 0.629792 l 0.285492,-0.02286 c 0.157017,-0.0126 0.346441,-0.0589 0.420944,-0.102942 z m 4.3885,2.133326 c -0.283681,-0.104323 -0.507004,-0.253047 -0.577361,-0.384496 -0.05396,-0.100914 -0.04796,-0.127013 0.06345,-0.273014 0.06772,-0.08884 0.147514,-0.170794 0.177314,-0.182235 0.02985,-0.01143 0.170901,0.04951 0.313569,0.135411 0.433305,0.260924 0.788272,0.250654 0.983771,-0.02848 0.19232,-0.274583 0.01705,-0.599778 -0.467952,-0.868364 -0.586339,-0.3247 -0.729967,-0.433858 -0.869555,-0.66092 -0.121781,-0.198085 -0.135247,-0.256679 -0.135247,-0.588404 0,-0.338235 0.01114,-0.384293 0.136119,-0.562449 0.07489,-0.106726 0.225765,-0.244347 0.335328,-0.305818 0.169398,-0.09504 0.256108,-0.111686 0.579268,-0.111153 0.323916,5.32e-4 0.413057,0.01811 0.603596,0.118786 0.122962,0.06501 0.280541,0.178196 0.35019,0.251574 0.120317,0.126751 0.123331,0.139792 0.06046,0.261359 -0.03642,0.07034 -0.107229,0.165117 -0.157424,0.210535 -0.08933,0.0809 -0.09669,0.07925 -0.351963,-0.07838 -0.200236,-0.123602 -0.308396,-0.16093 -0.466197,-0.16093 -0.422997,0 -0.582068,0.328129 -0.309548,0.638521 0.07237,0.08245 0.295375,0.237991 0.49561,0.345762 0.510366,0.27469 0.73208,0.481882 0.850102,0.794434 0.175376,0.464434 0.05106,1.025032 -0.283874,1.28053 -0.326687,0.249181 -0.908503,0.32255 -1.329649,0.167673 z M 4.378438,30.406082 c -0.042821,-0.04399 -0.055901,-0.482289 -0.055901,-1.879998 0,-1.815436 3.585e-4,-1.822847 0.095526,-1.873749 0.1226819,-0.06569 1.2855291,-0.02974 1.5364733,0.04757 0.5970652,0.183718 0.8128024,1.129588 0.3607503,1.581639 l -0.1487724,0.148759 0.155835,0.124339 c 0.330465,0.263684 0.4295851,0.850199 0.2193314,1.297823 -0.1254333,0.267055 -0.2063008,0.344358 -0.4993499,0.477329 -0.1926501,0.08738 -0.3133556,0.102869 -0.9149549,0.117188 -0.5229117,0.0125 -0.7067359,0.002 -0.7489087,-0.04088 z M 5.8370083,29.72378 c 0.2392601,-0.229224 0.2259873,-0.678514 -0.025867,-0.876649 -0.092813,-0.07305 -0.1813633,-0.0901 -0.4662355,-0.0901 H 4.9932423 v 0.563632 0.563621 l 0.3549762,-0.01609 c 0.3187907,-0.01443 0.3686075,-0.02916 0.4888188,-0.144355 z M 5.7082035,28.093903 c 0.2311317,-0.171443 0.227983,-0.650797 -0.00581,-0.823984 -0.076924,-0.05706 -0.2198838,-0.09543 -0.4135803,-0.110998 l -0.2960039,-0.02373 v 0.549129 0.549118 l 0.3014196,-0.02819 c 0.1867403,-0.01744 0.344077,-0.05977 0.4135706,-0.111356 z m 4.7646735,2.262759 c -0.06017,-0.08584 -0.06956,-0.338128 -0.06956,-1.852319 0,-1.964925 -0.01201,-1.893474 0.319111,-1.893474 0.374139,0 0.351557,-0.106144 0.351557,1.652335 v 1.559763 l 0.582968,0.01473 c 0.457934,0.01152 0.592038,0.02916 0.625268,0.08177 0.06036,0.09563 0.05367,0.419268 -0.0099,0.48288 -0.03788,0.03788 -0.299501,0.05367 -0.891694,0.05367 -0.815321,0 -0.83992,-0.0029 -0.907641,-0.09937 z m 2.353752,0.04572 c -0.04001,-0.04001 -0.05367,-0.518299 -0.05367,-1.876297 0,-1.756241 0.0029,-1.824339 0.08651,-1.868934 0.118206,-0.06326 0.464715,-0.05842 0.530537,0.0078 0.07712,0.07712 0.07712,3.660759 0,3.737858 -0.02956,0.02955 -0.156271,0.05367 -0.281686,0.05367 -0.125413,0 -0.252164,-0.02412 -0.281675,-0.05367 z m 3.894411,-0.02044 c -0.03284,-0.08545 -0.01037,-0.17463 0.528027,-2.094398 0.220678,-0.786926 0.437607,-1.481067 0.482075,-1.542538 0.06356,-0.08787 0.127051,-0.114766 0.296935,-0.125743 0.335696,-0.0217 0.419489,0.01579 0.510355,0.228012 0.04437,0.103595 0.287381,0.927036 0.540089,1.829881 0.518571,1.852687 0.514173,1.778882 0.106066,1.778882 -0.273411,0 -0.331075,-0.05532 -0.419683,-0.402401 -0.02819,-0.110658 -0.07091,-0.276655 -0.09475,-0.368868 l -0.04341,-0.167664 H 18.100732 17.57472 l -0.10259,0.425516 c -0.116036,0.481339 -0.146941,0.513417 -0.494729,0.513417 -0.170928,0 -0.234997,-0.01851 -0.256321,-0.07411 z m 1.757325,-1.479623 c -0.108944,-0.360159 -0.304443,-1.138229 -0.32659,-1.299818 -0.02616,-0.191178 -0.03488,-0.17091 -0.199567,0.466138 -0.09465,0.366311 -0.184609,0.721346 -0.19982,0.78897 l -0.02761,0.122952 h 0.388653 c 0.349347,0 0.386249,-0.0078 0.364974,-0.07828 z m 4.380187,1.48346 c -0.06152,-0.06152 -0.07024,-0.290143 -0.07024,-1.833165 0,-1.703285 0.0029,-1.76592 0.08942,-1.852319 0.08303,-0.08303 0.149033,-0.08942 0.919517,-0.08942 0.486698,0 0.865875,0.01918 0.916583,0.04631 0.06694,0.03584 0.08651,0.09446 0.08651,0.259324 0,0.117169 -0.02412,0.237186 -0.05367,0.266697 -0.03642,0.03642 -0.247786,0.05367 -0.659486,0.05358 l -0.605843,-8.7e-5 0.01395,0.491918 0.01396,0.491911 h 0.5248 c 0.586641,0 0.632108,0.01947 0.632108,0.270281 0,0.272054 -0.08438,0.310982 -0.674184,0.310875 l -0.510665,-8.6e-5 0.01385,0.514269 0.01385,0.514269 h 0.553265 c 0.304306,0 0.604884,0.01957 0.667963,0.04359 0.101245,0.03846 0.114689,0.06889 0.114689,0.259335 0,0.118642 -0.02412,0.23986 -0.05367,0.269371 -0.03817,0.03817 -0.314256,0.05367 -0.958095,0.05367 -0.762609,0 -0.91546,-0.01105 -0.974702,-0.07024 z M 12.758066,26.35751 c -0.05823,-0.05822 -0.02781,-0.136982 0.132738,-0.343002 0.201854,-0.259082 0.403892,-0.387286 0.610348,-0.387286 0.338506,0 0.382568,0.110058 0.168575,0.421079 -0.186963,0.271744 -0.309888,0.339019 -0.619465,0.339019 -0.144316,0 -0.275804,-0.01337 -0.292196,-0.02984 z m -2.133937,-1.280479 c -0.448264,-0.126703 -0.7381638,-0.414093 -0.8799608,-0.872356 -0.114486,-0.370002 -0.112664,-1.747531 0.0029,-2.131988 0.179096,-0.596213 0.5382388,-0.879651 1.1519378,-0.909104 0.41422,-0.01986 0.719496,0.09272 0.953398,0.351605 0.271173,0.30015 0.274991,0.330165 0.06201,0.486823 -0.103014,0.07577 -0.221212,0.137738 -0.262657,0.137738 -0.04146,0 -0.155836,-0.08051 -0.254199,-0.178845 -0.162947,-0.162946 -0.199578,-0.178844 -0.412128,-0.178844 -0.204586,0 -0.251554,0.01822 -0.381715,0.148423 -0.238243,0.238243 -0.30267,0.540767 -0.281404,1.321269 0.01492,0.547597 0.03342,0.688474 0.113478,0.865284 0.202484,0.447053 0.698317,0.519831 1.037288,0.152259 0.05959,-0.06462 0.131101,-0.117537 0.158857,-0.117537 0.08449,0 0.425769,0.271764 0.425769,0.339078 0,0.107433 -0.325718,0.431077 -0.521187,0.517844 -0.246449,0.109409 -0.657947,0.140247 -0.912272,0.0684 z m 9.797702,-0.01279 c -0.133475,-0.03585 -0.274313,-0.08884 -0.312978,-0.11778 -0.524637,-0.392053 -0.649382,-0.791624 -0.61961,-1.984718 0.01638,-0.655233 0.03245,-0.78985 0.122236,-1.019064 0.202281,-0.516643 0.617401,-0.786616 1.209515,-0.786616 0.94806,0 1.385764,0.622304 1.38371,1.967299 -0.002,1.202705 -0.266601,1.753363 -0.932955,1.940337 -0.309171,0.08671 -0.528725,0.08691 -0.849918,5.42e-4 z m 0.748714,-0.645613 c 0.0902,-0.05502 0.186586,-0.173206 0.245916,-0.301633 0.08816,-0.190848 0.09756,-0.284388 0.09756,-0.971283 0,-0.721956 -0.0058,-0.771191 -0.111782,-0.981318 -0.14356,-0.284146 -0.29923,-0.397343 -0.545999,-0.397043 -0.488324,5.81e-4 -0.692978,0.318219 -0.734221,1.139576 -0.02781,0.55343 0.02383,0.980942 0.149392,1.236807 0.166153,0.338652 0.584684,0.466604 0.899134,0.274894 z m -7.905747,0.616577 -0.111783,-0.0589 -0.01172,-1.57476 -0.01172,-1.574772 h -0.376281 c -0.438857,0 -0.516808,-0.04718 -0.516808,-0.312977 0,-0.311873 0.0049,-0.312978 1.246176,-0.312978 0.800324,0 1.120452,0.01482 1.159291,0.05367 0.06956,0.06956 0.06956,0.449088 0,0.518649 -0.03362,0.03362 -0.200845,0.05367 -0.447769,0.05367 h -0.394127 l 0.0029,1.57199 c 9.68e-4,0.901266 -0.01502,1.589546 -0.03866,1.613137 -0.07082,0.07082 -0.381453,0.08535 -0.499078,0.02335 z m 2.012,-0.002 -0.111773,-0.05658 -0.01172,-1.826654 c -0.0087,-1.311271 0.0029,-1.8439 0.03904,-1.887739 0.06356,-0.07654 0.492617,-0.08216 0.567341,-0.0078 0.04001,0.04001 0.05367,0.523861 0.05367,1.901331 v 1.847688 l -0.11469,0.04359 c -0.15378,0.05852 -0.286984,0.05396 -0.421853,-0.01424 z m 2.11393,-0.04814 c -0.04592,-0.05832 -0.311584,-0.902534 -0.59072,-1.876975 -0.418725,-1.461719 -0.497442,-1.782786 -0.450879,-1.838881 0.07324,-0.08835 0.549011,-0.09455 0.620733,-0.0078 0.02732,0.03294 0.2153,0.678601 0.417707,1.434824 0.241295,0.901508 0.379071,1.346604 0.400133,1.292631 0.01763,-0.04525 0.185626,-0.654565 0.373239,-1.353986 0.187611,-0.699421 0.360576,-1.308045 0.38437,-1.352513 0.0561,-0.104827 0.535487,-0.117247 0.619474,-0.01609 0.04301,0.05184 -0.04834,0.422193 -0.458544,1.857162 -0.295587,1.034111 -0.54593,1.829504 -0.591765,1.880153 -0.06288,0.06947 -0.13797,0.08778 -0.359889,0.08778 -0.241846,0 -0.291925,-0.01463 -0.363859,-0.106047 z m 9.385806,0.05242 c -0.07712,-0.07712 -0.07712,-3.705452 0,-3.78257 0.02954,-0.02954 0.170638,-0.05367 0.313637,-0.05367 0.317153,0 0.245005,-0.105116 0.929332,1.354142 l 0.514182,1.096435 0.01192,-1.165726 c 0.0078,-0.76872 0.02878,-1.186021 0.06132,-1.225287 0.0619,-0.0746 0.448283,-0.07896 0.521352,-0.0058 0.04001,0.04001 0.05367,0.518086 0.05367,1.875337 v 1.821685 l -0.09936,0.06956 c -0.102745,0.07198 -0.327859,0.09155 -0.461663,0.04021 -0.04408,-0.01695 -0.328285,-0.542714 -0.670618,-1.24073 l -0.594091,-1.211376 -0.0038,1.19445 c -0.0038,1.133124 -0.0078,1.196834 -0.0902,1.240741 -0.117829,0.06307 -0.419985,0.05852 -0.485826,-0.0078 z M 2.1853556,24.992869 c -0.077119,-0.07712 -0.077119,-3.660759 0,-3.737858 0.06898,-0.06898 1.7443339,-0.07566 1.8718599,-0.0078 0.1248133,0.06685 0.1248133,0.466594 0,0.533395 -0.047569,0.02548 -0.3493667,0.04631 -0.6706667,0.04631 H 2.8023689 l -9.69e-5,0.480651 -8.71e-5,0.480642 0.5122158,-0.01385 c 0.6290654,-0.01695 0.6951682,0.0097 0.6951682,0.281161 0,0.295957 -0.084288,0.336298 -0.7029769,0.336298 H 2.8023689 v 0.536534 0.536532 H 3.471466 c 0.6157538,0 0.6727787,0.0068 0.7153778,0.08651 0.02548,0.04757 0.04631,0.139424 0.04631,0.204141 0,0.06472 -0.020829,0.156571 -0.04631,0.204141 -0.0435,0.08138 -0.1028214,0.08651 -0.9970626,0.08651 -0.6798801,0 -0.9660602,-0.01531 -1.0044256,-0.05367 z m 2.6141128,0.02384 c -0.016373,-0.01638 -0.02984,-0.857417 -0.02984,-1.868934 0,-1.370815 0.01366,-1.852784 0.053673,-1.892777 0.037978,-0.03798 0.3043262,-0.05367 0.9133854,-0.05367 0.9999109,0 1.0259722,0.0097 0.9876747,0.34896 -0.012304,0.109254 -0.049701,0.21596 -0.083125,0.237128 -0.033424,0.02122 -0.3172889,0.03886 -0.6308286,0.03915 l -0.5700739,6.79e-4 v 0.491822 0.491831 h 0.4947674 c 0.603663,0 0.6677311,0.02713 0.6677311,0.283255 0,0.104875 -0.024124,0.214826 -0.053673,0.244337 -0.035653,0.03565 -0.2305117,0.05367 -0.5812444,0.05367 H 5.4403148 v 0.773497 c 0,0.542007 -0.016082,0.78957 -0.053673,0.827161 -0.056095,0.05609 -0.5354773,0.07557 -0.5872027,0.02383 z m 2.4382522,-0.02384 c -0.077118,-0.07712 -0.077118,-3.660759 0,-3.737858 0.075859,-0.07586 1.8288636,-0.07586 1.9047029,0 0.069562,0.06956 0.069562,0.449087 0,0.518649 -0.036525,0.03653 -0.2507213,0.05367 -0.6721876,0.05367 H 7.8517112 l 0.012692,0.474964 0.012692,0.474955 0.5198793,-0.0078 c 0.5891016,-0.0087 0.66497,0.02432 0.66497,0.290618 0,0.282585 -0.1033924,0.332141 -0.693027,0.332141 H 7.854734 v 0.536533 0.536533 h 0.6617243 c 0.4550651,0 0.6784851,0.01676 0.7153875,0.05367 0.029549,0.02955 0.053673,0.136148 0.053673,0.236973 0,0.100821 -0.024123,0.207454 -0.053673,0.236965 -0.038365,0.03837 -0.3229179,0.05367 -0.9970626,0.05367 -0.6741448,0 -0.9587264,-0.01531 -0.9970626,-0.05367 z m 16.9008484,0 c -0.07712,-0.07712 -0.07712,-3.660759 0,-3.737858 0.03817,-0.03817 0.314256,-0.05367 0.958096,-0.05367 1.036601,0 1.073193,0.01143 1.031446,0.322743 -0.03944,0.294095 -0.06143,0.303212 -0.729687,0.303212 h -0.598131 l -8.7e-5,0.480652 -8.8e-5,0.480642 0.508467,-0.01376 c 0.586563,-0.01589 0.654206,0.0156 0.654206,0.305072 0,0.266581 -0.09967,0.312318 -0.680625,0.312318 h -0.481873 v 0.536534 0.536533 h 0.639374 c 0.437675,0 0.656298,0.01696 0.693027,0.05367 0.06947,0.06947 0.06947,0.404445 0,0.473938 -0.03837,0.03837 -0.322918,0.05367 -0.997063,0.05367 -0.674144,0 -0.958727,-0.01531 -0.997062,-0.05367 z M 23.4366,17.646287 c -2.190961,-0.355655 -4.058549,-1.873032 -4.828278,-3.922884 l -0.07974,-0.212375 -3.850271,-7.66e-4 c -2.11764,-4.26e-4 -6.063475,-0.0123 -8.768502,-0.02635 l -4.91822563,-0.02558 -0.1977364,-0.11901 c -0.1266249,-0.07625 -0.2351523,-0.189869 -0.30179752,-0.316058 l -0.1040708,-0.197059 9.6882e-4,-5.8166099 c 9.3007e-4,-5.5594462 0.004844,-5.8245061 0.0835124,-5.995445 0.0998952,-0.21645405 0.24144,-0.35267035 0.4623797,-0.44497965 0.14791003,-0.061811 1.29924773,-0.069174 10.76539943,-0.069174 10.404309,0 10.602917,0.00193 10.769903,0.086807 0.222238,0.1133812 0.435572,0.3600333 0.494293,0.57147865 0.02965,0.1066092 0.04699,0.9332077 0.04718,2.2415719 2.23e-4,1.714969 0.01056,2.0687051 0.06026,2.0496677 0.368298,-0.1413316 1.986965,-0.1456719 2.622706,-0.00679 1.233523,0.2689933 2.204989,0.7925735 3.063937,1.6513271 1.174415,1.1741438 1.850575,2.7709269 1.853491,4.3770782 0.0058,2.964032 -2.061798,5.491115 -4.997956,6.109891 -0.582417,0.122741 -1.630459,0.154256 -2.177398,0.06549 z m 1.79508,-0.738649 c 0.710427,-0.112499 1.590466,-0.460829 2.217652,-0.877791 0.494622,-0.328827 1.159127,-0.995048 1.493593,-1.497449 1.014317,-1.523627 1.213032,-3.354757 0.546677,-5.0376586 C 28.795432,7.7415697 27.374316,6.544833 25.515671,6.1482557 24.992798,6.036696 23.793126,6.0375582 23.168332,6.1501857 22.353776,6.29672 21.349797,6.8579196 20.641191,7.5627856 c -0.98594,0.9807379 -1.555365,2.2020351 -1.649555,3.5379124 -0.104215,1.478199 0.254219,2.680448 1.139558,3.822223 0.885677,1.142203 2.301891,1.910265 3.774877,2.047246 0.27003,0.0251 0.986134,-0.0087 1.325609,-0.0623 z m 0.72805,-3.127859 c -0.247912,-0.04301 -0.60904,-0.221056 -0.745605,-0.367542 l -0.100356,-0.107645 0.11933,-0.184018 c 0.188164,-0.290211 0.262338,-0.309607 0.568359,-0.148628 0.468338,0.246362 0.921418,0.153985 0.921418,-0.187864 0,-0.17184 -0.155613,-0.319207 -0.558894,-0.529296 -0.489889,-0.255216 -0.59396,-0.335067 -0.743043,-0.570151 -0.23956,-0.377734 -0.145333,-0.970992 0.195499,-1.230966 0.373103,-0.284571 0.961342,-0.326909 1.406681,-0.101244 0.321948,0.16314 0.354733,0.217219 0.242166,0.399358 -0.05087,0.08225 -0.131383,0.184792 -0.179019,0.227895 -0.08274,0.07489 -0.09523,0.07402 -0.28089,-0.02102 -0.270495,-0.138414 -0.534819,-0.13824 -0.682477,4.57e-4 -0.228312,0.214448 -0.125898,0.369392 0.44902,0.679327 0.234105,0.126199 0.485457,0.279776 0.558534,0.341277 0.416527,0.350481 0.433335,1.143742 0.03216,1.51796 -0.247311,0.230676 -0.779756,0.355557 -1.20288,0.282111 z m -4.054489,-0.06753 -0.100603,-0.07218 v -2.317488 c 0,-2.1765061 0.0049,-2.3236314 0.08158,-2.4182369 0.0712,-0.087969 0.145653,-0.1062408 0.587473,-0.144238 1.108469,-0.095332 1.747241,0.1227399 2.04806,0.6991887 0.105175,0.2015249 0.119408,0.2797089 0.119001,0.6536632 -4.08e-4,0.353437 -0.01802,0.460588 -0.104701,0.638135 -0.05735,0.117352 -0.155641,0.253811 -0.218489,0.30325 l -0.114263,0.08991 0.09885,0.06927 c 0.339747,0.237961 0.498149,0.604021 0.498149,1.151134 0,0.219806 -0.02858,0.454435 -0.07044,0.577088 -0.09742,0.2859 -0.369227,0.579733 -0.654448,0.707463 -0.219303,0.09821 -0.302776,0.106948 -1.152994,0.120608 -0.788136,0.01269 -0.930679,0.0049 -1.017185,-0.05745 z m 1.735247,-0.720048 c 0.248289,-0.145003 0.355015,-0.343912 0.354937,-0.661491 -1.45e-4,-0.56059 -0.266542,-0.787013 -0.925989,-0.787013 H 22.69887 v 0.787914 0.787923 l 0.39406,-0.01889 c 0.287836,-0.01376 0.435446,-0.04301 0.547558,-0.108488 z m -0.09977,-2.226361 c 0.388023,-0.20228 0.423259,-0.9304083 0.05697,-1.1767113 -0.128068,-0.08613 -0.210553,-0.102143 -0.525353,-0.102143 h -0.373431 v 0.6987633 0.698771 l 0.346508,-0.02053 c 0.204731,-0.01211 0.407408,-0.05231 0.495339,-0.09813 z m -5.238049,1.817393 c -0.01424,-0.09223 -0.03953,-0.273295 -0.05619,-0.4024 l -0.03023,-0.234737 -3.738807,-5.72e-4 C 12.421102,11.945204 9.2598177,11.932831 7.4523651,11.91811 3.6884648,11.887397 4.023396,11.931579 3.9584656,11.456845 3.8549644,10.700041 3.274185,10.154361 2.4793348,10.06711 1.9486725,10.008879 1.9975883,10.322007 1.9975883,6.9831376 c 0,-3.3510758 -0.049991,-3.0382821 0.4938277,-3.088128 0.7800369,-0.071499 1.459636,-0.7189624 1.5493004,-1.4760285 0.043016,-0.3633759 0.123176,-0.4174458 0.5674582,-0.3828589 0.19949,0.015501 3.5629861,0.028386 7.4744384,0.028483 5.921669,2.229e-4 7.125613,0.010464 7.194788,0.061035 0.05687,0.04166 0.0931,0.1457301 0.114892,0.3306394 0.03846,0.326454 0.197979,0.6832129 0.418618,0.9364143 0.194753,0.2235071 0.696437,0.4882376 0.999698,0.527533 0.345811,0.044856 0.410731,0.065201 0.503381,0.1578113 0.08245,0.082446 0.08826,0.1520274 0.08826,1.0479644 v 0.9596855 l 0.445774,-0.2107671 0.445765,-0.2107671 -0.0099,-2.1504832 c -0.0078,-1.7460488 -0.02141,-2.1643763 -0.0712,-2.2243851 -0.05677,-0.068302 -0.84891,-0.073921 -10.531728,-0.073921 -8.0840108,0 -10.4825996,0.012207 -10.5240264,0.053673 -0.077893,0.077893 -0.077893,11.3502564 0,11.4281984 0.041369,0.04137 2.0152648,0.05367 8.6126286,0.05367 h 8.5590158 z m 8.14e-4,-1.99646 c 0.161648,-1.0038543 0.453409,-1.7548947 0.998061,-2.5691504 0.290637,-0.4345164 0.892032,-1.0981978 1.200718,-1.3250958 l 0.182487,-0.1341334 9.69e-4,-0.9685404 9.7e-4,-0.9685308 -0.182886,-0.030905 C 20.403219,4.5734655 20.166808,4.4823382 19.97844,4.388004 19.416,4.1063192 18.94585,3.5794548 18.778893,3.0437449 l -0.08187,-0.2626765 -3.826612,-4.07e-4 c -2.104629,-2.228e-4 -5.2483868,-0.013758 -6.9861235,-0.03013 -3.1087639,-0.029258 -3.1595301,-0.02829 -3.1595301,0.05716 0,0.1371367 -0.2823727,0.6880763 -0.480642,0.937761 C 3.9408591,4.127362 3.4053333,4.468891 2.9420816,4.5758294 l -0.22932,0.052897 v 2.3843761 2.3843761 h 0.104778 c 0.341994,0 0.974712,0.3537561 1.3021057,0.7280214 0.2097305,0.239745 0.4522265,0.687195 0.4988946,0.920526 l 0.027999,0.139898 h 6.7801421 6.780151 z m -7.251894,0.05901 C 9.2342678,10.287333 8.031195,8.8213116 8.0343534,6.9690606 8.0372599,5.2563394 9.0805546,3.8760885 10.747703,3.3793059 c 0.520112,-0.1549824 1.283553,-0.1650484 1.813953,-0.02393 1.350905,0.3594521 2.430899,1.5494749 2.702605,2.9779536 0.08855,0.4654509 0.05387,1.2131873 -0.0777,1.6778534 -0.352322,1.243773 -1.292166,2.2007561 -2.50421,2.5498621 -0.384515,0.110755 -1.266453,0.15658 -1.63073,0.08478 z m 1.497827,-0.7958673 c 0.418308,-0.132826 0.826696,-0.3868799 1.161394,-0.7225086 1.176092,-1.1793561 1.176092,-3.1091128 0,-4.2884687 C 13.182399,4.3090451 12.577942,4.0370388 11.843197,3.9984798 11.352886,3.972709 10.993619,4.0338417 10.564237,4.2160382 8.8421083,4.9466846 8.2107274,7.0991345 9.2569286,8.6728397 c 0.4391856,0.6606393 1.1462614,1.123843 1.9511484,1.278195 0.258598,0.0496 1.055996,-0.01056 1.341343,-0.101121 z M 12.526166,8.5122345 C 12.32437,8.4424795 12.012913,8.2589361 12.012913,8.2098169 c 0,-0.01056 0.07257,-0.099537 0.161338,-0.1977558 L 12.33558,7.833488 12.473065,7.931387 c 0.176083,0.1253849 0.510733,0.1392681 0.584577,0.02422 0.07441,-0.1158377 -0.0029,-0.2087767 -0.334038,-0.40009 -0.494903,-0.2861995 -0.657761,-0.5697735 -0.526002,-0.9158946 0.170929,-0.4489906 0.831132,-0.6034208 1.23858,-0.2897261 l 0.104275,0.080315 -0.08671,0.1535194 c -0.08835,0.156455 -0.127623,0.1674899 -0.378122,0.1062217 -0.175608,-0.042919 -0.347332,0.01056 -0.347332,0.1082851 0,0.10038 0.09868,0.1901603 0.34527,0.3141307 0.103827,0.05222 0.259508,0.1570072 0.345955,0.2329047 0.423308,0.3716689 0.259509,1.0134453 -0.301148,1.1799469 -0.281946,0.083706 -0.314557,0.083028 -0.592211,-0.012982 z M 9.9651472,8.4944065 c -0.03962,-0.039625 -0.05367,-0.4543773 -0.05367,-1.5886444 0,-1.4198562 0.0058,-1.537413 0.07828,-1.5671365 0.04301,-0.017633 0.3196818,-0.03168 0.6147858,-0.031099 0.465285,9.107e-4 0.561198,0.014145 0.722323,0.099353 0.245829,0.1300545 0.356633,0.2794371 0.421166,0.5677874 0.06414,0.2867809 0.03052,0.4989431 -0.112567,0.7098168 l -0.106851,0.1574528 0.09195,0.081769 c 0.260593,0.231684 0.336714,0.7792909 0.157607,1.1338408 -0.186168,0.3685009 -0.509725,0.4904755 -1.301069,0.4904755 -0.296856,0 -0.4772208,-0.018892 -0.5119738,-0.053673 z M 11.213242,7.8821695 C 11.327631,7.7409056 11.327776,7.3881092 11.213503,7.246981 11.143073,7.160077 11.07782,7.1402751 10.811103,7.1252002 l -0.318364,-0.01802 v 0.4447085 c 0,0.2445886 0.0087,0.4536409 0.01986,0.4645595 0.01094,0.010948 0.154072,0.00872 0.318103,-0.00484 0.24048,-0.020152 0.314576,-0.045147 0.382549,-0.1291439 z M 10.999887,6.5758354 c 0.224234,-0.1021718 0.279505,-0.4643949 0.09848,-0.6454192 -0.0901,-0.0901 -0.154053,-0.1097384 -0.35769,-0.1097384 h -0.247942 v 0.4024 0.4024 h 0.199092 c 0.109506,0 0.248126,-0.02238 0.308057,-0.049603 z"
       id="path2" /></g></svg>
