<svg
   width="100%"
   height="100%"
   viewBox="0 0 31 31"
   xml:space="preserve"><defs
     id="defs1" /><g
     id="g1"><path
       style="fill:currentColor;stroke-width:0.0460896"
       d="m 10.635078,30.953056 c -0.35526,-0.11649 -0.6751097,-0.40554 -0.8252297,-0.74576 -0.21537,-0.48809 -0.24117,-1.47995 -0.054,-2.07624 0.11065,-0.3525 0.3721097,-0.68128 0.6662097,-0.83774 0.27313,-0.14531 0.89126,-0.14513 1.16472,3.2e-4 0.4372,0.23255 0.68381,0.70155 0.7529,1.43185 0.10001,1.05704 -0.178,1.84374 -0.75632,2.14023 -0.20365,0.10441 -0.74434,0.1542 -0.94828,0.0873 z m 0.67788,-0.64916 c 0.26195,-0.15971 0.38248,-0.55012 0.38248,-1.23887 0,-0.49635 -0.10137,-0.90869 -0.26552,-1.08002 -0.16744,-0.17478 -0.41312,-0.24445 -0.62054,-0.176 -0.21979,0.0725 -0.33651,0.21266 -0.42317,0.50802 -0.0863,0.29421 -0.0994,1.12221 -0.0233,1.4771 0.0526,0.24548 0.22145,0.48972 0.38389,0.55543 0.16665,0.0674 0.41329,0.0475 0.56612,-0.0457 z m 13.13549,0.61806 c -0.25926,-0.0832 -0.65404,-0.43909 -0.70248,-0.6333 -0.0412,-0.16503 0.0715,-0.29651 0.28899,-0.33731 0.14584,-0.0274 0.17538,-0.0123 0.35182,0.17992 0.21235,0.2313 0.35513,0.28703 0.6381,0.24908 0.23647,-0.0317 0.35936,-0.15227 0.39009,-0.38265 0.0358,-0.26841 -0.0978,-0.40424 -0.65233,-0.66317 -0.25686,-0.11994 -0.54218,-0.28408 -0.63406,-0.36474 -0.55766,-0.48964 -0.44957,-1.3203 0.21846,-1.67877 0.1468,-0.0788 0.26416,-0.099 0.57612,-0.0995 0.34718,-4.9e-4 0.41689,0.0142 0.61263,0.12928 0.23145,0.13604 0.49352,0.44836 0.49352,0.58813 0,0.12047 -0.22024,0.27297 -0.39422,0.27297 -0.12175,0 -0.16987,-0.03 -0.24614,-0.1534 -0.18349,-0.2969 -0.60424,-0.3605 -0.83805,-0.12669 -0.29857,0.29856 -0.12579,0.58995 0.50478,0.85132 0.67973,0.28174 1.01641,0.65809 1.01871,1.13873 0.002,0.41164 -0.18184,0.73916 -0.52897,0.94259 -0.26156,0.15329 -0.76642,0.19355 -1.09697,0.0875 z m -5.65521,-0.0109 c -0.12474,-0.009 -0.23037,-0.0444 -0.26502,-0.0899 -0.0813,-0.10696 -0.0835,-3.42448 -0.002,-3.50567 0.0375,-0.0375 0.2526,-0.0553 0.66657,-0.0553 0.50284,0 0.65593,0.0167 0.86311,0.0942 0.81805,0.30607 1.01867,1.29755 0.39373,1.94591 l -0.22829,0.23685 0.18635,0.3479 c 0.40984,0.76512 0.4373,0.83034 0.38479,0.91399 -0.0352,0.0561 -0.12442,0.0832 -0.30571,0.0929 l -0.25604,0.0137 -0.32989,-0.62438 -0.3299,-0.62439 h -0.20434 -0.20434 v 0.59755 c 0,0.67824 -0.002,0.68173 -0.36872,0.6567 z m 1.03491,-1.87261 c 0.19593,-0.0819 0.29384,-0.22884 0.32695,-0.49078 0.0533,-0.42205 -0.22816,-0.68814 -0.72813,-0.68828 l -0.26501,-7e-5 v 0.62221 0.62221 h 0.25497 c 0.14023,0 0.32528,-0.0294 0.41122,-0.0653 z m -13.2371397,1.81091 c -0.0814,-0.083 -0.0836,-3.45256 -0.002,-3.5339 0.0704,-0.0704 1.0466,-0.075 1.36638,-0.006 0.33817,0.0725 0.69631,0.30586 0.87167,0.56791 0.21676,0.32392 0.30536,0.66564 0.30614,1.18071 9.4e-4,0.61878 -0.12587,1.01451 -0.43266,1.35018 -0.35663,0.39021 -0.56822,0.46425 -1.38332,0.48404 -0.49845,0.0121 -0.68294,10e-4 -0.72591,-0.0425 z m 1.40593,-0.65637 c 0.32875,-0.17064 0.49815,-0.644 0.46253,-1.29248 -0.0397,-0.72285 -0.3439,-1.03404 -1.0158,-1.03917 l -0.26501,-0.002 v 1.22743 1.22744 l 0.33414,-0.0217 c 0.18379,-0.0119 0.40165,-0.0567 0.48414,-0.0995 z m 4.9643197,0.65144 c -0.0124,-0.0323 -0.0171,-0.84678 -0.0104,-1.80997 l 0.0121,-1.75126 h 0.29958 0.29959 l 0.0121,1.50943 0.0122,1.50944 h 0.59289 c 0.68399,0 0.70924,0.013 0.68751,0.35361 l -0.0142,0.22251 -0.9344,0.0125 c -0.72357,0.01 -0.93947,-7.7e-4 -0.95692,-0.0462 z m 2.30019,-0.0112 c -0.0365,-0.0951 0.0466,-0.42193 0.5217,-2.05214 0.21795,-0.7478 0.4276,-1.39594 0.4659,-1.4403 0.0855,-0.0991 0.65966,-0.11702 0.7363,-0.023 0.11059,0.13562 0.98279,3.07977 0.99333,3.35302 l 0.008,0.2074 h -0.29958 -0.29958 l -0.0907,-0.3572 -0.0907,-0.35719 h -0.57853 -0.57854 l -0.0929,0.35719 -0.0929,0.3572 -0.28697,0.0137 c -0.22703,0.0109 -0.29278,-10e-4 -0.31476,-0.0587 z m 1.78038,-1.25773 c 0,-0.0194 -0.083,-0.33536 -0.18436,-0.70223 -0.10139,-0.36687 -0.18435,-0.70361 -0.18435,-0.74832 0,-0.0447 -0.0207,-0.0813 -0.0461,-0.0813 -0.0254,0 -0.0465,0.0363 -0.047,0.0807 -5e-4,0.0444 -0.0908,0.39695 -0.20078,0.78353 l -0.19987,0.70286 h 0.43123 c 0.23717,0 0.43122,-0.0158 0.43122,-0.0352 z m 4.39992,1.26891 c -0.0124,-0.0323 -0.0171,-0.84678 -0.0104,-1.80997 l 0.0121,-1.75126 h 0.92179 0.9218 l 0.0142,0.2225 c 0.0216,0.339 -0.006,0.35362 -0.66509,0.35362 h -0.57048 v 0.46089 0.4609 h 0.45713 c 0.25142,0 0.48993,0.0126 0.53003,0.028 0.0526,0.0202 0.0729,0.0901 0.0729,0.25077 0,0.12254 -0.0168,0.2332 -0.0374,0.24591 -0.0206,0.0127 -0.25908,0.0277 -0.53003,0.0334 l -0.49263,0.0103 -9e-5,0.48784 -9e-5,0.48783 0.57976,-0.0142 c 0.69122,-0.0169 0.7211,-0.003 0.70154,0.33275 l -0.0137,0.23454 -0.9344,0.0125 c -0.72357,0.01 -0.93947,-7.7e-4 -0.95692,-0.0462 z m -10.77619,-3.99119 c -0.12504,-0.13817 -0.0899,-0.23324 0.18341,-0.49582 0.26503,-0.25465 0.43975,-0.31516 0.56071,-0.1942 0.12352,0.12352 0.0614,0.29427 -0.19542,0.53717 -0.27,0.25535 -0.4185,0.29672 -0.5487,0.15285 z m 0.2959,-1.23665 c -0.41435,-0.15199 -0.71972,-0.60904 -0.84192,-1.26008 -0.0627,-0.33403 -0.0187,-1.25135 0.0744,-1.55124 0.19122,-0.61606 0.61825,-0.94574 1.22499,-0.94574 0.27774,0 0.3793,0.0225 0.59198,0.1313 0.32196,0.16466 0.57142,0.47124 0.55115,0.67736 -0.0124,0.12656 -0.038,0.14852 -0.23783,0.20474 l -0.22389,0.063 -0.21674,-0.23453 c -0.2078,-0.22485 -0.22676,-0.23453 -0.45948,-0.23453 -0.20512,0 -0.26298,0.0202 -0.37342,0.13069 -0.19601,0.19601 -0.27702,0.53519 -0.27702,1.15982 0,0.84908 0.16691,1.23375 0.568,1.30899 0.23287,0.0437 0.47929,-0.0781 0.62962,-0.31131 0.1095,-0.16984 0.12332,-0.17662 0.31585,-0.15492 0.25948,0.0293 0.34936,0.11692 0.30887,0.30128 -0.0412,0.18751 -0.35938,0.54185 -0.59506,0.66267 -0.25297,0.12968 -0.75939,0.15528 -1.03947,0.0525 z m 9.79946,-0.0144 c -0.12187,-0.0476 -0.29173,-0.14008 -0.37747,-0.20548 -0.20188,-0.15398 -0.42007,-0.60653 -0.48861,-1.01344 -0.0768,-0.45603 -0.0289,-1.2667 0.0962,-1.62568 0.39422,-1.13195 1.85571,-1.2524 2.3851,-0.19656 0.31814,0.63452 0.32322,1.77686 0.0107,2.40125 -0.30673,0.61279 -0.99847,0.88504 -1.62585,0.63991 z m 0.73231,-0.59574 c 0.14368,-0.0652 0.21419,-0.1385 0.29848,-0.31009 0.10135,-0.20629 0.11046,-0.28119 0.11148,-0.916 9.8e-4,-0.61472 -0.0101,-0.71547 -0.0995,-0.90904 -0.23701,-0.51306 -0.87586,-0.55228 -1.13053,-0.0694 -0.0881,0.16711 -0.10533,0.28371 -0.12047,0.81697 -0.0259,0.91305 0.0784,1.25822 0.42587,1.40953 0.19146,0.0834 0.29223,0.0791 0.51464,-0.022 z m -18.3935097,0.59445 -0.18435,-0.0231 -0.0121,-1.76906 c -0.009,-1.26747 0.003,-1.78692 0.0402,-1.83206 0.0408,-0.0492 0.24258,-0.063 0.92072,-0.063 0.81143,0 0.87157,0.006 0.91615,0.0892 0.0262,0.049 0.0477,0.14372 0.0477,0.21043 0,0.0667 -0.0215,0.1614 -0.0477,0.21043 -0.0434,0.0811 -0.10167,0.0891 -0.64686,0.0891 h -0.59916 l 0.0131,0.47242 0.0131,0.47242 0.47339,0.007 c 0.26036,0.004 0.50406,0.0187 0.54155,0.0331 0.0842,0.0323 0.0941,0.39953 0.0129,0.48073 -0.0362,0.0362 -0.22738,0.0553 -0.55308,0.0553 h -0.49776 v 0.48394 0.48394 h 0.61299 c 0.41532,0 0.63082,0.0178 0.6683,0.0553 0.0702,0.0702 0.0725,0.48167 0.003,0.52469 -0.061,0.0377 -1.45032,0.0531 -1.7221,0.0192 z m 2.37362,0.0148 c -0.038,-0.0158 -0.0844,-0.0515 -0.103,-0.0793 -0.0186,-0.0279 -0.0342,-0.8311 -0.0346,-1.78494 -5.8e-4,-1.41832 0.0109,-1.74384 0.0628,-1.78698 0.0441,-0.0366 0.33681,-0.0489 0.95636,-0.0402 l 0.8928,0.0125 0.0142,0.22251 c 0.0217,0.33985 -0.005,0.35361 -0.67661,0.35361 h -0.582 v 0.53003 0.53003 h 0.4632 c 0.29881,0 0.48283,0.0196 0.51851,0.0553 0.074,0.074 0.0706,0.3816 -0.005,0.44426 -0.0331,0.0275 -0.26347,0.0559 -0.51191,0.0633 l -0.45172,0.0133 0.007,0.64526 c 0.005,0.4731 -0.009,0.66759 -0.0543,0.72897 -0.0635,0.0868 -0.37105,0.14413 -0.49586,0.0924 z m 2.48884,-0.007 c -0.22816,-0.0293 -0.23045,-0.0475 -0.23045,-1.84064 0,-1.06751 0.0173,-1.70888 0.0477,-1.76564 0.0446,-0.0833 0.10468,-0.0892 0.91258,-0.0892 0.61121,0 0.88108,0.0162 0.92017,0.0553 0.0304,0.0304 0.0553,0.14034 0.0553,0.24427 0,0.10393 -0.0249,0.21386 -0.0553,0.24428 -0.037,0.037 -0.24274,0.0553 -0.62221,0.0553 h -0.56691 v 0.48651 0.4865 l 0.48383,-0.008 c 0.53791,-0.009 0.62233,0.0236 0.62233,0.2423 0,0.2914 -0.0432,0.31395 -0.60079,0.31395 h -0.50537 v 0.48394 0.48394 h 0.58995 c 0.3974,0 0.608,0.018 0.64526,0.0553 0.0304,0.0304 0.0553,0.15413 0.0553,0.27492 0,0.17024 -0.0201,0.23037 -0.0895,0.2675 -0.0802,0.043 -1.34519,0.0503 -1.66191,0.01 z m 5.9455597,-0.004 -0.2074,-0.0277 -0.0122,-1.53248 -0.0121,-1.53248 h -0.35888 c -0.21767,0 -0.38064,-0.0218 -0.41418,-0.0553 -0.0849,-0.0849 -0.0714,-0.48173 0.0176,-0.51588 0.14565,-0.0559 2.11782,-0.0311 2.17627,0.0273 0.0304,0.0304 0.0553,0.14035 0.0553,0.24428 0,0.10393 -0.0249,0.21385 -0.0553,0.24427 -0.0336,0.0336 -0.19665,0.0553 -0.41481,0.0553 h -0.35949 v 1.51934 c 0,1.45495 -0.004,1.52135 -0.0892,1.56704 -0.049,0.0262 -0.0957,0.0446 -0.10371,0.0408 -0.008,-0.004 -0.10788,-0.0194 -0.22195,-0.0346 z m 1.68193,-0.0224 c -0.061,-0.0447 -0.0685,-0.28447 -0.0579,-1.84887 l 0.0121,-1.7975 0.24571,-0.0141 c 0.14155,-0.008 0.27344,0.009 0.31111,0.0402 0.0544,0.0451 0.0654,0.35164 0.0654,1.82036 0,0.97135 -0.0181,1.77726 -0.0402,1.79092 -0.0837,0.0517 -0.46919,0.0582 -0.53628,0.009 z m 2.14542,0.008 c -0.0694,-0.0369 -0.13442,-0.13145 -0.1678,-0.24416 -0.74709,-2.52245 -0.94026,-3.19022 -0.94026,-3.25033 0,-0.12564 0.1036,-0.18293 0.33078,-0.18293 0.17823,0 0.23262,0.0197 0.28554,0.1037 0.036,0.057 0.23684,0.71044 0.44641,1.45201 0.20957,0.74156 0.38523,1.34303 0.39034,1.3366 0.005,-0.006 0.17999,-0.61318 0.38862,-1.34831 0.20862,-0.73513 0.40895,-1.38326 0.44516,-1.4403 0.0519,-0.0818 0.10857,-0.1037 0.26841,-0.1037 0.26822,0 0.34847,0.0357 0.34793,0.15472 -5.6e-4,0.12464 -0.99162,3.43684 -1.04396,3.48904 -0.0732,0.073 -0.63016,0.098 -0.75117,0.0337 z m 6.86544,0.0109 -0.11522,-0.0284 -0.0121,-1.767 c -0.009,-1.26593 0.003,-1.78485 0.0402,-1.82999 0.0707,-0.0852 1.74477,-0.0922 1.82928,-0.008 0.0304,0.0304 0.0553,0.14034 0.0553,0.24427 0,0.10393 -0.0249,0.21386 -0.0553,0.24428 -0.0373,0.0372 -0.24786,0.0553 -0.64526,0.0553 h -0.58994 v 0.48343 0.48343 l 0.49625,-0.009 c 0.27294,-0.005 0.52182,0.007 0.55307,0.0263 0.0729,0.0451 0.0741,0.40879 0.002,0.48135 -0.0362,0.0362 -0.22738,0.0553 -0.55308,0.0553 h -0.49776 v 0.48394 0.48394 h 0.59587 c 0.67849,0 0.74073,0.0269 0.74073,0.32028 0,0.28574 -0.0486,0.3015 -0.94039,0.30518 -0.43339,0.002 -0.83983,-0.01 -0.9032,-0.0251 z m 2.43822,-0.0296 c -0.025,-0.0302 -0.0377,-0.79346 -0.0306,-1.84358 l 0.0121,-1.79212 h 0.32044 0.32044 l 0.65016,1.23178 c 0.35759,0.67748 0.65931,1.24096 0.67049,1.25218 0.0112,0.0112 0.0141,-0.50628 0.007,-1.15002 -0.009,-0.77766 0.003,-1.20172 0.0362,-1.2637 0.0404,-0.0755 0.0961,-0.0933 0.29258,-0.0933 0.13346,0 0.26754,0.0249 0.29796,0.0553 0.0844,0.0844 0.0789,3.50881 -0.006,3.57908 -0.0987,0.0819 -0.57241,0.0843 -0.65337,0.003 -0.0381,-0.0381 -0.349,-0.59733 -0.69094,-1.24279 l -0.62171,-1.17357 -4.2e-4,1.2113 c -3.7e-4,1.02648 -0.0108,1.21529 -0.0686,1.23747 -0.12605,0.0484 -0.49244,0.0406 -0.5355,-0.0114 z m -4.06982,-7.37253 c -2.18789,-0.34015 -3.99515,-1.68883 -4.96669,-3.70641 l -0.19986,-0.41504 H 9.5162583 c -7.37475,0 -8.3049,-0.008 -8.45685,-0.0713 -0.21847002,-0.0913 -0.36304002,-0.2273 -0.48758002,-0.4587 l -0.0992,-0.18436 -0.0125,-6.19542 c -0.014,-6.92437004 -0.0315,-6.52738004 0.30348,-6.86238004 0.0947,-0.0947 0.25699002,-0.19756 0.36072002,-0.22863 0.25064,-0.0751 20.8225997,-0.0825 21.0923297,-0.008 0.22657,0.0629 0.48705,0.2945 0.59261,0.52686 0.0774,0.17036 0.084,0.35666 0.0849,2.39067004 l 0.001,2.20591 0.14979,-0.0263 c 0.65787,-0.1155 1.6477,-0.0689 2.45427,0.11542 1.93235,0.44171 3.63576,1.83072 4.46768,3.64307 0.39555,0.86172 0.57923,1.73507 0.57895,2.75278 -3.2e-4,1.1173 -0.18225,1.93297 -0.64328,2.884 -0.81926,1.68999 -2.29366,2.93394 -4.10377,3.46232 -0.83523,0.24381 -1.94619,0.31259 -2.82993,0.17519 z m 2.14212,-0.75762 c 2.20644,-0.44965 3.95975,-2.10356 4.51874,-4.26257 0.18527,-0.71559 0.23376,-1.76786 0.11364,-2.4658 -0.21782,-1.26559 -0.77759,-2.32254 -1.701,-3.21184 -0.52819,-0.50867 -0.96434,-0.81414 -1.57425,-1.10259 -1.48174,-0.70075 -3.18354,-0.74946 -4.70802,-0.13474 -1.8365,0.74054 -3.20109,2.42651 -3.54083,4.37475 -0.10503,0.60228 -0.0948,1.62715 0.022,2.20013 0.29755,1.46009 1.10687,2.73252 2.28939,3.59941 0.60926,0.44665 1.53254,0.8431 2.34061,1.00506 0.60344,0.12095 1.64148,0.1201 2.23975,-0.002 z m -1.38977,-1.79323 c -0.11805,-0.11806 -0.13473,-0.16796 -0.13479,-0.40329 l -6e-5,-0.26856 -0.26501,-0.0779 c -0.64945,-0.19082 -1.25582,-0.79889 -1.25582,-1.25934 0,-0.17748 0.19149,-0.34506 0.39428,-0.34506 0.17463,0 0.26647,0.0749 0.59184,0.48289 0.21977,0.27556 0.4478,0.36864 0.90356,0.36882 0.43274,1.7e-4 0.59743,-0.0597 0.86604,-0.31465 0.20031,-0.19013 0.30634,-0.54166 0.24531,-0.81327 -0.0859,-0.38222 -0.37046,-0.5657 -1.35217,-0.87182 -0.77294,-0.24101 -1.16613,-0.4835 -1.40834,-0.86853 -0.22001,-0.34974 -0.30091,-0.66071 -0.27725,-1.06561 0.0457,-0.78096 0.56977,-1.4026 1.36258,-1.61608 l 0.19511,-0.0525 v -0.27831 c 0,-0.24615 0.0156,-0.29387 0.13472,-0.41303 0.16477,-0.16477 0.32343,-0.17229 0.49644,-0.0235 0.11159,0.096 0.13248,0.15355 0.15236,0.42024 l 0.0231,0.30904 0.26935,0.0831 c 0.40173,0.12395 0.72452,0.35984 0.94574,0.69111 0.2314,0.34653 0.25607,0.58247 0.0794,0.75915 -0.23209,0.23209 -0.50329,0.17871 -0.66516,-0.13092 -0.11887,-0.22737 -0.38689,-0.46642 -0.59174,-0.5278 -0.48722,-0.14597 -1.09531,-0.0102 -1.3593,0.30355 -0.16515,0.19627 -0.24368,0.54218 -0.17825,0.78517 0.11068,0.41105 0.35927,0.57491 1.33865,0.88235 0.34222,0.10743 0.70294,0.23649 0.8016,0.28679 0.2788,0.14216 0.61338,0.48347 0.75337,0.76852 0.11324,0.2306 0.1273,0.31013 0.1273,0.72013 0,0.41679 -0.013,0.48735 -0.13567,0.73743 -0.0746,0.15209 -0.23517,0.37353 -0.35678,0.49207 -0.22168,0.21609 -0.80437,0.54495 -0.96556,0.54495 -0.0745,0 -0.086,0.0375 -0.086,0.28008 0,0.24811 -0.0154,0.29546 -0.13472,0.41481 -0.0812,0.0812 -0.1833,0.13472 -0.25704,0.13472 -0.0737,0 -0.17582,-0.0535 -0.25704,-0.13472 z m -6.14415,-2.36564 c -0.0157,-0.057 -0.0522,-0.24349 -0.0812,-0.41434 l -0.0527,-0.31064 -6.55981,-0.012 c -7.5485297,-0.0138 -6.6904697,0.0524 -6.8098997,-0.52538 -0.0866,-0.41878 -0.21256,-0.66392 -0.4945,-0.96202 -0.27935,-0.29538 -0.59123,-0.46834 -0.99645,-0.55262 -0.24376,-0.0507 -0.34039,-0.096 -0.43926,-0.20602 l -0.12674,-0.14102 v -3.08957 c 0,-3.37195 -0.006,-3.29154 0.26284,-3.40098 0.0709,-0.0288 0.23994,-0.0731 0.37564,-0.0984 0.33587,-0.0625 0.6551,-0.24562 0.92397,-0.52992 0.27628,-0.29212 0.40727,-0.54178 0.48885,-0.93167 0.0344,-0.16453 0.0983,-0.33863 0.14198,-0.38688 0.0774,-0.0856 0.26278,-0.0877 7.4615997,-0.0877 h 7.38221 l 0.0941,0.1037 c 0.0529,0.0583 0.10659,0.20016 0.12257,0.32402 0.0431,0.33401 0.24706,0.71757 0.5337,1.00359 0.29847,0.29783 0.54759,0.42926 0.98863,0.52156 0.22147,0.0463 0.35364,0.10276 0.43785,0.18689 0.12044,0.12033 0.12063,0.12172 0.13492,0.99392 0.0132,0.80521 0.0204,0.86983 0.0922,0.82742 0.0428,-0.0253 0.21866,-0.0925 0.39072,-0.14941 l 0.31283,-0.10342 -0.003,-2.23067 c -0.002,-1.55597 -0.018,-2.24923004 -0.0535,-2.29199004 -0.0421,-0.0507 -1.84389,-0.0613 -10.40025,-0.0613 -9.5655197,0 -10.3557597,0.006 -10.4336597,0.0763 -0.0808,0.0732 -0.0843,0.32656004 -0.0843,6.21875004 v 6.14248 l 0.12144,0.0955 0.12144,0.0955 h 8.08789 8.0878897 z m -0.16639,-1.86663 c 5.1e-4,-1.11984 0.40568,-2.38471 1.09488,-3.41806 0.34315,-0.51451 1.253,-1.42878 1.74941,-1.75791 l 0.37868,-0.25109 0.002,-0.83747 0.002,-0.83747 -0.14979,-0.0319 c -0.2577,-0.0548 -0.78456,-0.32246 -1.04054,-0.52863 -0.31633,-0.25479 -0.66758,-0.75668 -0.79271,-1.13269 l -0.0985,-0.29601 h -6.87935 -6.8793397 l -0.0586,0.19588 c -0.19402,0.64834 -0.73426,1.28083 -1.33866,1.56725 -0.19012,0.0901 -0.41308,0.17781 -0.49547,0.19493 l -0.14979,0.0311 v 2.73218 2.73219 l 0.30916,0.10149 c 0.78362,0.25724 1.48884,0.98177 1.67466,1.7205 l 0.0551,0.21892 h 6.3087997 6.30881 z m -6.23008,-0.0587 c -1.9245397,-0.32477 -3.3109797,-2.1293 -3.3101297,-4.30831 4.9e-4,-1.2373 0.46334,-2.3892 1.28794,-3.20528 1.0957197,-1.08441 2.7193797,-1.36231 4.0501497,-0.69321 1.03173,0.51875 1.77723,1.48801 2.11227,2.74625 0.1089,0.409 0.12261,0.54391 0.12173,1.19833 -8.8e-4,0.64738 -0.0158,0.79331 -0.12212,1.19504 -0.29513,1.11503 -0.98927,2.08514 -1.86371,2.60463 -0.68845,0.40901 -1.55268,0.58463 -2.27613,0.46255 z m 1.31099,-0.82314 c 0.46391,-0.16283 0.82695,-0.38737 1.16377,-0.7198 1.71207,-1.68978 1.31684,-4.94582 -0.72436,-5.96747 -0.9175,-0.45923 -1.87491,-0.41758 -2.74202,0.11926 -0.6521997,0.40379 -1.2083897,1.17519 -1.4431297,2.00151 -0.12645,0.44513 -0.17214,1.29673 -0.0952,1.77384 0.23162,1.4358 1.16892,2.5349 2.4366997,2.85733 0.35701,0.0908 1.05255,0.0588 1.40421,-0.0647 z m -1.0694,-0.81819 c -0.0526,-0.0669 -0.0955,-0.18946 -0.0955,-0.27284 0,-0.14015 -0.0166,-0.15691 -0.22396,-0.22578 -0.54607,-0.18137 -0.90957,-0.73525 -0.65174,-0.99308 0.16058,-0.16058 0.33974,-0.11979 0.59672,0.13584 0.24717,0.24588 0.42943,0.31149 0.72985,0.26274 0.22542,-0.0366 0.38795,-0.16489 0.46487,-0.36697 0.14107,-0.37065 -0.0554,-0.58804 -0.75738,-0.83815 -0.60584,-0.21585 -0.83108,-0.37765 -1.00238,-0.72004 -0.32434,-0.64831 -0.0461,-1.40179 0.61928,-1.67699 0.19029,-0.0787 0.20397,-0.0961 0.20841,-0.26532 0.0126,-0.47967 0.59943,-0.48124 0.68936,-0.002 0.0232,0.12349 0.0637,0.16996 0.19659,0.22521 0.59909,0.24914 0.89528,0.77873 0.57599,1.02989 -0.0668,0.0525 -0.15079,0.0955 -0.18665,0.0955 -0.11671,0 -0.31599,-0.1278 -0.37698,-0.24176 -0.25309,-0.47291 -1.15852,-0.2628 -1.15852,0.26885 0,0.34926 0.1868,0.50851 0.79628,0.67885 0.45195,0.12631 0.70317,0.27164 0.88766,0.51353 0.27265,0.35745 0.32884,0.84856 0.1428,1.24808 -0.12086,0.25954 -0.463,0.58801 -0.7028,0.67472 -0.13499,0.0488 -0.15606,0.0772 -0.15606,0.21058 0,0.33392 -0.40008,0.50781 -0.59581,0.25897 z"
       id="path2" /></g></svg>
