<svg
   width="100%"
   height="100%"
   viewBox="0 0 31 31">
  <defs
     id="defs1" />
  <g
     id="g1">
    <path
       style="fill:currentColor;stroke-width:0.039164"
       d="m 23.122295,30.954573 c -0.38476,-0.0771 -0.71472,-0.33363 -0.91143,-0.70849 -0.0815,-0.1554 -0.0914,-0.23907 -0.11238,-0.95362 -0.0296,-1.00782 -0.0195,-0.98412 -0.71507,-1.67313 -0.56447,-0.5591 -0.77823,-0.81989 -1.08203,-1.32007 -0.31576,-0.51989 -0.58595,-1.25644 -0.65055,-1.77348 l -0.0278,-0.22286 -1.29793,-0.0117 -1.29794,-0.0117 -0.2464,-0.11378 c -0.30602,-0.14131 -0.59326,-0.44355 -0.72014,-0.75775 l -0.0909,-0.22506 -0.0115,-6.52081 c -0.007,-4.02428 0.003,-6.6667303 0.0265,-6.9019203 0.046,-0.46013 0.155,-0.68908 0.46172,-0.9694 0.36585,-0.33436 0.3485,-0.33174 2.20603,-0.33333 0.89392,-7.7e-4 2.89422,0.008 4.44512,0.0188 2.78589,0.0199 2.82201,0.0212 3.00293,0.1048 0.25936,0.11987 0.52172,0.37659 0.64831,0.63437 l 0.10851,0.22094 0.0196,2.3393003 0.0196,2.3393 0.82244,0.88771 c 1.17295,1.26602 2.28713,2.61528 2.4861,3.01061 0.3171,0.63003 0.29455,0.14282 0.29455,6.36498 v 5.54253 l -0.12728,0.25855 c -0.1509,0.30652 -0.3967,0.54717 -0.70789,0.69305 l -0.22226,0.10419 -3.07438,0.006 c -1.6909,0.003 -3.15136,-0.009 -3.24545,-0.0281 z m 6.36351,-0.80292 c 0.0595,-0.0444 0.14447,-0.12942 0.18889,-0.1889 0.0805,-0.10785 0.0808,-0.12314 0.0909,-5.51184 0.0112,-5.9446 0.0219,-5.65519 -0.22742,-6.16102 -0.0644,-0.13063 -0.26879,-0.41375 -0.45422,-0.62915 -0.18543,-0.2154 -0.47656,-0.56644 -0.64696,-0.78007 -0.24831,-0.31132 -1.50617,-1.70685 -1.53846,-1.70685 -0.005,0 -0.007,1.03717 -0.005,2.30483 l 0.003,2.30482 0.57193,0.60311 c 0.5899,0.62206 0.66174,0.71522 0.66174,0.85811 0,0.13736 -0.20626,0.31287 -0.36769,0.31287 -0.17985,0 -0.23996,-0.0541 -1.16899,-1.05232 -2.24041,-2.40724 -3.62581,-3.83794 -3.80491,-3.92931 -0.22598,-0.11528 -0.55546,-0.0855 -0.77707,0.0703 -0.40833,0.28698 -0.51126,0.75974 -0.27015,1.2407 0.0672,0.13409 0.43195,0.65797 0.8105,1.16416 0.8267,1.10547 1.58671,2.16601 1.67554,2.33811 0.09,0.1744 0.083,0.24029 -0.0674,0.62941 -0.29318,0.7587 -0.37703,1.15376 -0.37703,1.77643 0,0.96811 0.30117,1.72776 0.96483,2.4336 0.22107,0.23512 0.24925,0.28292 0.24925,0.42279 0,0.21342 -0.13395,0.35045 -0.3409,0.34872 -0.17645,-0.001 -0.20419,-0.021 -0.50025,-0.35124 -0.56248,-0.62747 -0.93787,-1.40143 -1.05899,-2.18339 l -0.0258,-0.16645 h -1.35012 -1.35011 l 0.027,0.18603 c 0.0794,0.54647 0.36363,1.23782 0.71255,1.73301 0.0987,0.14001 0.45769,0.53757 0.79786,0.88347 0.51938,0.52814 0.6391,0.67246 0.74721,0.90077 l 0.12875,0.27187 0.0196,0.80481 c 0.0216,0.88806 0.0361,0.94355 0.28606,1.09677 0.12187,0.0747 0.20623,0.0764 3.20647,0.0667 3.04312,-0.01 3.08265,-0.0111 3.18945,-0.0908 z m -6.42895,-6.74359 c 0.0787,-0.53517 0.16393,-0.90672 0.30362,-1.32379 l 0.15977,-0.47701 -0.19086,-0.26963 c -0.10497,-0.14829 -0.53556,-0.73665 -0.95688,-1.30747 -1.15488,-1.56469 -1.24071,-1.68726 -1.3583,-1.93993 -0.0989,-0.21249 -0.10881,-0.2745 -0.1093,-0.68406 -5e-4,-0.41618 0.008,-0.46762 0.11082,-0.67729 0.16313,-0.3324 0.48979,-0.66637 0.80209,-0.82004 0.2397,-0.11794 0.28934,-0.12784 0.63284,-0.12631 0.41732,0.002 0.65419,0.0801 0.96815,0.31974 0.0929,0.0709 0.17773,0.12898 0.18843,0.12898 0.0107,0 0.0149,-1.57696 0.009,-3.50435 l -0.01,-3.5043603 -3.26086,-0.004 c -3.09696,-0.004 -3.26701,-5.6e-4 -3.38326,0.0677 -0.0673,0.0395 -0.15541,0.13356 -0.19575,0.20895 -0.071,0.13267 -0.073,0.35459 -0.0632,6.9141803 0.01,6.4565 0.0135,6.78221 0.0808,6.88495 0.0389,0.0593 0.12698,0.14218 0.19582,0.18415 0.12113,0.0739 0.22033,0.0763 3.09005,0.0765 l 2.9649,1.5e-4 z m -3.42828,-0.8941 c -0.09,-0.0958 -0.095,-0.12636 -0.095,-0.59072 0,-0.48795 3.9e-4,-0.49001 0.10989,-0.58434 0.15192,-0.13087 0.31742,-0.12375 0.461,0.0198 0.11375,0.11375 0.11448,0.11746 0.11448,0.58218 0,0.41385 -0.009,0.47958 -0.0812,0.57089 -0.11454,0.14561 -0.37341,0.14671 -0.50925,0.002 z m 0.0394,-2.12569 c -0.12247,-0.0992 -0.14654,-0.33063 -0.15059,-1.44792 l -0.003,-0.91358 0.11448,-0.11448 c 0.20611,-0.20611 0.48405,-0.115 0.55273,0.1812 0.0197,0.0851 0.0363,0.60932 0.0368,1.16496 l 9.3e-4,1.01026 -0.0961,0.0961 c -0.11749,0.11749 -0.32554,0.12821 -0.45493,0.0234 z m -0.0244,-3.58569 -0.10989,-0.0944 -0.0117,-0.95528 c -0.0112,-0.91471 -0.008,-0.95964 0.069,-1.05788 0.16578,-0.21076 0.49729,-0.15867 0.58463,0.0919 0.0606,0.17377 0.0588,1.8124 -0.002,1.92675 -0.10943,0.20546 -0.34785,0.2455 -0.52992,0.089 z m -1.49041,-3.61291 c -0.0162,-0.004 -0.0783,-0.0172 -0.13807,-0.0304 -0.15921,-0.0352 -0.40594,-0.27624 -0.47929,-0.46831 -0.0536,-0.14029 -0.0618,-0.30513 -0.0512,-1.02556 0.012,-0.82116 0.0166,-0.86482 0.10442,-1.00611 0.0505,-0.0812 0.15484,-0.19579 0.23186,-0.25457 l 0.14002,-0.10686 1.10772,-0.0115 c 1.03344,-0.0107 1.11769,-0.006 1.25638,0.0647 0.18695,0.0959 0.30424,0.22067 0.38177,0.40623 0.0483,0.11573 0.0606,0.31594 0.0606,0.98962 0,0.90152 -0.0213,1.0277 -0.20748,1.22706 -0.1969,0.21088 -0.24222,0.21828 -1.34928,0.22021 -0.56543,9.9e-4 -1.04127,-0.001 -1.05743,-0.005 z m 1.90031,-1.45249 -0.0107,-0.73433 -0.89806,-0.0105 c -0.49393,-0.006 -0.90947,0.003 -0.92342,0.0196 -0.0139,0.0166 -0.0176,0.35176 -0.008,0.74487 l 0.0172,0.71474 h 0.91685 0.91685 z m 6.09228,2.5065 c -0.0217,-4.4705403 -0.0262,-4.6955403 -0.0952,-4.8104503 -0.11576,-0.19267 -0.20625,-0.21234 -0.97697,-0.21234 h -0.70311 l -0.007,0.8714003 c -0.004,0.47927 -0.01,2.23727 -0.0131,3.90667 l -0.006,3.03527 0.90348,0.94967 c 0.49691,0.52232 0.90737,0.94967 0.91214,0.94967 0.005,0 -0.002,-2.11045 -0.0141,-4.68989 z M 2.2115052,29.232843 c -0.78936,-0.20679 -1.38612001,-0.79808 -1.63949001,-1.62444 -0.0692,-0.22577 -0.072,-0.66476 -0.072,-11.20091 V 5.4415627 l 0.10897,-0.32171 c 0.21023,-0.62069 0.62910001,-1.11005 1.18344001,-1.38258 0.50312,-0.24735 0.18741,-0.23474 6.13266,-0.24477 5.1625898,-0.009 5.4318298,-0.006 5.6536698,0.0627 0.81176,0.2505 1.40178,0.83568 1.64527,1.63175 0.0611,0.19981 0.0655,1.01121 0.0613,11.2097503 -0.005,12.17601 0.0176,11.17545 -0.26591,11.71718 -0.1809,0.3457 -0.56864,0.74103 -0.89755,0.91514 -0.13325,0.0705 -0.3784,0.16306 -0.54477,0.20561 -0.29426,0.0753 -0.44926,0.0773 -5.6910798,0.0752 -5.17636,-0.002 -5.39984,-0.005 -5.67441,-0.077 z m 11.0329798,-0.6671 c 0.6599,-0.10707 1.15643,-0.57019 1.29092,-1.20404 0.0242,-0.11415 0.044,-0.54152 0.044,-0.94973 v -0.74219 h -6.6801598 -6.68016 l 0.0125,0.8714 0.0125,0.8714 0.12241,0.25457 c 0.0673,0.14001 0.18724,0.32897 0.26648,0.41992 0.16836,0.19326 0.61659,0.43004 0.9056,0.47839 0.29491,0.0493 10.4018998,0.0496 10.7059098,2.7e-4 z m -6.8533498,-1.16973 c -0.1775,-0.1775 -0.13936,-0.45676 0.0777,-0.56901 0.0991,-0.0512 0.3236,-0.0606 1.45013,-0.0606 h 1.33291 l 0.11604,0.1077 c 0.16718,0.15516 0.17749,0.38684 0.024,0.54028 l -0.0961,0.0961 h -1.39512 -1.39512 z M 14.579435,16.074603 V 7.2235227 l -5.3556798,8e-5 c -2.94563,4e-5 -5.95049,0.0117 -6.67747,0.0259 l -1.32179,0.0258 v 8.8251603 8.82515 h 6.67747 6.6774698 z m -8.1682598,3.57064 c -0.44184,-0.20742 -0.63732,-0.56073 -0.67079,-1.21234 -0.0553,-1.07737 0.17827,-1.62388 0.76787,-1.79641 0.41486,-0.1214 0.90335,0.0308 1.14279,0.35597 0.2018,0.2741 0.24083,0.49156 0.22429,1.24949 -0.013,0.59673 -0.0246,0.69393 -0.10363,0.86737 -0.10825,0.23768 -0.20827,0.34876 -0.43304,0.48096 -0.23448,0.13791 -0.69294,0.16508 -0.92749,0.055 z m 0.71016,-0.60397 c 0.17492,-0.16067 0.21089,-0.31263 0.21089,-0.89098 0,-0.56208 -0.0377,-0.73268 -0.19249,-0.8714 -0.097,-0.0869 -0.15775,-0.1077 -0.31478,-0.1077 -0.15717,0 -0.21758,0.0207 -0.31419,0.1077 -0.0993,0.0894 -0.12683,0.15433 -0.16211,0.38185 -0.0568,0.36619 -0.023,1.06333 0.0592,1.22232 0.16016,0.30971 0.47301,0.37909 0.71347,0.15821 z m -4.27773,0.58746 c -0.034,-0.0547 -0.046,-2.63412 -0.0133,-2.84918 l 0.0208,-0.13708 h 0.27097 0.27097 l 0.33541,0.81149 c 0.18447,0.44631 0.34422,0.81153 0.35499,0.8116 0.0108,8e-5 0.16952,-0.36511 0.35278,-0.81149 l 0.33319,-0.8116 h 0.27385 0.27385 v 1.50782 1.50781 h -0.23499 -0.23498 l -0.0196,-0.90077 c -0.0157,-0.72399 -0.0285,-0.88156 -0.065,-0.80286 -0.025,0.0539 -0.13573,0.29953 -0.24616,0.54595 -0.11044,0.24642 -0.21995,0.47113 -0.24337,0.49934 -0.0629,0.0758 -0.3227,0.0644 -0.39398,-0.0172 -0.0329,-0.0377 -0.1634,-0.30645 -0.29001,-0.59725 l -0.23019,-0.52871 -0.0214,0.90077 c -0.0118,0.49543 -0.025,0.90518 -0.0294,0.91057 -0.0291,0.036 -0.43934,10e-4 -0.46452,-0.0392 z m 6.06151,-0.004 c -0.0654,-0.0788 -0.79248,-2.76933 -0.77937,-2.88394 0.0104,-0.0912 0.0278,-0.0987 0.25364,-0.10951 0.20129,-0.01 0.24841,3.6e-4 0.27768,0.0588 0.0194,0.0387 0.14813,0.52416 0.2861,1.07882 0.13797,0.55466 0.26001,1.00847 0.2712,1.00847 0.0112,0 0.13079,-0.46149 0.26578,-1.02553 0.13498,-0.56404 0.26465,-1.0487 0.28815,-1.07701 0.0263,-0.0317 0.13006,-0.0515 0.2702698,-0.0515 0.18901,0 0.23154,0.0126 0.25112,0.0743 0.0211,0.0665 -0.6314498,2.67567 -0.7233598,2.89241 -0.034,0.0801 -0.0638,0.0881 -0.32715,0.0881 -0.19682,0 -0.30398,-0.0171 -0.33406,-0.0534 z m 1.8149498,0.004 c -0.0104,-0.027 -0.0142,-0.70992 -0.009,-1.5176 l 0.0103,-1.46852 0.2285,-0.0118 c 0.13477,-0.007 0.25124,0.007 0.28394,0.0342 0.0751,0.0624 0.0832,2.89116 0.008,2.96589 -0.0639,0.0639 -0.49795,0.0621 -0.52259,-0.002 z m 1.10101,0.0143 c -0.0366,-0.0593 -0.0272,-2.95247 0.01,-2.98941 0.0192,-0.0192 0.13874,-0.0295 0.26574,-0.0229 l 0.2309,0.0119 0.0103,1.24346 0.0103,1.24346 h 0.46159 c 0.30679,0 0.47734,0.0158 0.50858,0.047 0.0259,0.0258 0.047,0.12806 0.047,0.22715 0,0.0991 -0.0211,0.2013 -0.047,0.22715 -0.0562,0.0562 -1.46301,0.0677 -1.49728,0.0122 z m -5.0274498,-3.30198 c -0.0717,-0.0717 -0.0574,-0.16668 0.0655,-0.4379 0.0862,-0.19016 0.13513,-0.25251 0.20917,-0.26667 0.14323,-0.0274 0.26018,0.0303 0.28827,0.14228 0.0198,0.0788 -0.009,0.14123 -0.14307,0.30522 -0.25583,0.31406 -0.32225,0.35473 -0.41991,0.25707 z m 1.72967,-1.09225 c -0.26911,-0.078 -0.49637,-0.2768 -0.64059,-0.56041 l -0.13739,-0.27016 v -0.7481 c 0,-0.74076 10e-4,-0.7503 0.11008,-0.97228 0.28096,-0.57215 0.96558,-0.78375 1.52515,-0.47139 0.32241,0.17998 0.55962,0.58703 0.41109,0.70542 -0.0269,0.0215 -0.13295,0.0512 -0.23561,0.066 -0.18175,0.0263 -0.1904,0.0229 -0.32892,-0.13145 -0.16343,-0.18205 -0.31434,-0.22637 -0.55249,-0.16224 -0.11907,0.0321 -0.18349,0.0806 -0.25101,0.18922 -0.0851,0.13691 -0.0908,0.18543 -0.0908,0.77271 0,0.68457 0.0245,0.78576 0.22687,0.93552 0.12735,0.0943 0.36254,0.10679 0.51121,0.0272 0.10764,-0.0576 0.19695,-0.21881 0.23504,-0.42425 l 0.0236,-0.12728 h -0.21162 c -0.14017,0 -0.23241,-0.0208 -0.27317,-0.0615 -0.0801,-0.0801 -0.0822,-0.3817 -0.003,-0.44738 0.0838,-0.0696 0.94002,-0.0654 1.02483,0.005 0.0528,0.0438 0.0595,0.11844 0.0427,0.47351 -0.0167,0.35248 -0.0372,0.45666 -0.125,0.63616 -0.22923,0.46853 -0.76565,0.70918 -1.26088,0.56565 z m 2.6050998,-0.009 c -0.35244,-0.13188 -0.52973,-0.29514 -0.68829,-0.6338 -0.10703,-0.2286 -0.10996,-0.25264 -0.10972,-0.90066 2e-4,-0.53944 0.0136,-0.70427 0.0708,-0.86857 0.20367,-0.58587 0.74869,-0.87126 1.3372,-0.70017 0.17755,0.0516 0.27292,0.11163 0.43507,0.27377 0.28378,0.28378 0.33341,0.46446 0.336,1.2232 0.003,0.80002 -0.0443,1.01163 -0.28599,1.28691 -0.2552,0.29065 -0.77025,0.44085 -1.09502,0.31932 z m 0.53645,-0.60963 c 0.0663,-0.0405 0.15079,-0.1371 0.18764,-0.21477 0.0875,-0.18439 0.12443,-0.81565 0.0702,-1.19961 -0.0353,-0.24986 -0.0591,-0.3095 -0.15929,-0.39933 -0.23465,-0.21037 -0.58864,-0.16607 -0.74687,0.0935 -0.0705,0.1156 -0.0791,0.19687 -0.0792,0.75035 -1.2e-4,0.4989 0.0127,0.64775 0.0653,0.75853 0.0771,0.16244 0.25942,0.28494 0.42415,0.28494 0.0646,0 0.17177,-0.0331 0.23811,-0.0736 z m -8.2428298,0.56862 c -0.0318,-0.0384 -0.0415,-0.47976 -0.0342,-1.55677 l 0.0103,-1.50324 0.52871,-0.012 c 0.61601,-0.014 0.76501,0.0192 0.98781,0.21989 0.22676,0.20425 0.31681,0.4286 0.31317,0.78021 -0.007,0.64649 -0.37915,1.02263 -1.01704,1.02711 l -0.24477,0.002 v 0.5013 c 0,0.33768 -0.0153,0.51664 -0.047,0.54829 -0.0655,0.0655 -0.44132,0.0605 -0.49697,-0.007 z m 1.11576,-1.72452 c 0.11729,-0.11729 0.13316,-0.15742 0.13316,-0.33681 0,-0.17938 -0.0159,-0.21952 -0.13316,-0.33681 -0.11973,-0.11973 -0.15527,-0.13316 -0.35247,-0.13316 h -0.21932 v 0.46997 0.46997 h 0.21932 c 0.1972,0 0.23274,-0.0134 0.35247,-0.13316 z m 0.80678,1.73105 c -0.0259,-0.0258 -0.047,-0.0771 -0.047,-0.11399 0,-0.12939 0.74962,-2.87479 0.79862,-2.92485 0.0725,-0.074 0.51857,-0.0791 0.58782,-0.007 0.0554,0.0579 0.80675,2.7788 0.80675,2.92147 0,0.11573 -0.0775,0.17107 -0.23961,0.17107 -0.26007,0 -0.27119,-0.0132 -0.38632,-0.46018 l -0.0429,-0.16644 h -0.42453 -0.42453 l -0.0662,0.2636 c -0.0364,0.14499 -0.0848,0.28598 -0.10747,0.31332 -0.0523,0.0631 -0.39225,0.0651 -0.45463,0.003 z m 1.20505,-1.67547 c -0.0716,-0.30197 -0.14078,-0.54904 -0.15364,-0.54904 -0.0129,0 -0.0717,0.20708 -0.13069,0.46017 -0.059,0.2531 -0.11767,0.49899 -0.13036,0.54642 -0.0219,0.082 -0.01,0.0868 0.24537,0.0979 0.14764,0.006 0.27544,0.008 0.284,0.003 0.009,-0.005 -0.043,-0.25611 -0.11468,-0.55809 z M 14.579435,6.0570027 c 0,-0.73706 -0.12659,-1.08296 -0.5319,-1.45339 -0.11897,-0.10874 -0.31152,-0.23419 -0.43754,-0.28508 l -0.22506,-0.0909 h -5.4633898 -5.46338 l -0.22655,0.0914 c -0.13752,0.0555 -0.31808,0.17619 -0.45948,0.3071 -0.3959,0.36653 -0.54669,0.79352 -0.54734,1.54988 l -3e-4,0.34268 h 6.67747 6.6774698 z m -8.0929698,-0.32121 c -0.22913,-0.0925 -0.27978,-0.40635 -0.0953,-0.5908 l 0.11448,-0.11448 h 1.38762 1.38762 l 0.10363,0.096 c 0.0822,0.0762 0.10363,0.13213 0.10363,0.27066 0,0.14692 -0.0191,0.19072 -0.1205,0.27602 l -0.1205,0.10139 -1.33836,-0.002 c -0.7361,-0.001 -1.37613,-0.0177 -1.42229,-0.0363 z m 9.8718398,-0.29121 c -0.1374,-0.0595 -0.17947,-0.14924 -0.26974,-0.57563 -0.0753,-0.35577 -0.32032,-0.8607 -0.58344,-1.20241 -0.46738,-0.60701 -1.22088,-1.03478 -2.089,-1.18596 -0.32276,-0.0562 -0.44299,-0.15862 -0.44117,-0.3758 0.002,-0.23187 0.1467,-0.36431 0.39761,-0.36378 0.16147,3.6e-4 0.72646,0.13328 1.00209,0.23579 1.0448,0.38855 1.90623,1.24874 2.30319,2.29986 0.16425,0.43491 0.23474,0.81294 0.17854,0.95742 -0.0748,0.19221 -0.31032,0.29177 -0.49808,0.21051 z m 1.66318,-0.19672 c -0.12451,-0.07 -0.16817,-0.18235 -0.22909,-0.58941 -0.20934,-1.39862 -1.2167,-2.75166 -2.52759,-3.39494 -0.58202,-0.28560998 -1.50113,-0.54104998 -1.94676,-0.54104998 -0.15991,0 -0.34433,-0.18855 -0.34433,-0.35203 0,-0.38081 0.2472,-0.43498 1.1544,-0.25297 1.97582,0.39643 3.49559,1.72006998 4.1661,3.62847998 0.14378,0.40921 0.29146,1.14304 0.2594,1.28898 -0.0473,0.21535 -0.32807,0.32771 -0.53213,0.21294 z"
       id="path1" />
  </g>
</svg>
