<svg
   width="100%"
   height="100%"
   viewBox="0 0 31 31"
   xml:space="preserve"><defs
     id="defs1" /><g
     id="g1"><path
       style="fill:currentColor;stroke-width:0.0396658"
       d="m 9.6868203,30.958214 c -0.06419,-0.01072 -0.127388,-0.05509 -0.149467,-0.104979 -0.04076,-0.09209 -0.830115,-2.984372 -0.830115,-3.041617 0,-0.140403 0.406277,-0.222599 0.523052,-0.105824 0.02901,0.02901 0.194181,0.644542 0.367063,1.36785 0.172874,0.723315 0.3183381,1.310935 0.323244,1.305823 0.0051,-0.0051 0.1536677,-0.59686 0.3305817,-1.314997 0.176914,-0.718129 0.3414,-1.32948 0.365528,-1.358551 0.05465,-0.06581 0.35855,-0.06955 0.422876,-0.0051 0.02615,0.02615 0.04759,0.08123 0.04759,0.122349 0,0.04113 -0.126609,0.532865 -0.281357,1.092787 -0.432094,1.563493 -0.548428,1.962903 -0.581083,1.995058 -0.03988,0.0393 -0.3976977,0.0708 -0.5379247,0.04737 z m 4.2166357,-0.02482 -0.09916,-0.04987 -0.01036,-1.561011 c -0.0074,-1.119294 0.0022,-1.576353 0.03459,-1.615222 0.05641,-0.06794 0.354871,-0.07102 0.442531,-0.0044 0.05722,0.04333 0.527518,0.895169 1.034793,1.874214 l 0.16442,0.317325 0.01058,-1.067712 c 0.0073,-0.706665 0.02541,-1.085575 0.05442,-1.120558 0.02409,-0.02909 0.113513,-0.05288 0.198647,-0.05288 0.129657,0 0.161071,0.01653 0.193469,0.101748 0.04972,0.130854 0.05149,2.953325 0.0022,3.083746 -0.0448,0.117914 -0.189745,0.160139 -0.35357,0.103033 -0.131913,-0.04598 -0.210061,-0.174578 -0.942807,-1.551322 l -0.352653,-0.662574 -0.0105,1.064818 c -0.0078,0.786246 -0.02336,1.075057 -0.05949,1.103966 -0.0913,0.07301 -0.20727,0.08695 -0.306784,0.03694 z m 4.769817,0.01072 c -0.04906,-0.01976 -0.08925,-0.06559 -0.08925,-0.101901 0,-0.146272 0.886964,-3.092965 0.945017,-3.139546 0.08155,-0.06544 0.488142,-0.06368 0.578637,0.0022 0.08746,0.06397 0.896571,2.773811 0.908117,3.041419 0.0076,0.175474 0.0051,0.178581 -0.144949,0.216193 -0.264258,0.06603 -0.345925,-0.01329 -0.457823,-0.445013 l -0.09479,-0.365704 H 19.80965 19.301067 l -0.04422,0.168584 c -0.138427,0.528098 -0.164207,0.589699 -0.262429,0.62704 -0.118552,0.0451 -0.202533,0.04414 -0.32118,-0.0037 z m 1.344119,-1.999744 c -0.101138,-0.402421 -0.194285,-0.719253 -0.206998,-0.704071 -0.01271,0.0152 -0.04334,0.116855 -0.06809,0.22594 -0.02475,0.109078 -0.106367,0.42591 -0.181416,0.704064 l -0.136459,0.50574 h 0.388415 0.388407 z m -8.464136,1.958136 c -0.06427,-0.03746 -0.06941,-0.156723 -0.06941,-1.603867 0,-1.505124 0.0029,-1.564962 0.07672,-1.604492 0.04576,-0.02446 0.405139,-0.04106 0.889652,-0.04106 0.686136,0 0.822646,0.0097 0.875257,0.06236 0.08662,0.08663 0.07788,0.27911 -0.01704,0.37399 -0.07227,0.07227 -0.132221,0.07933 -0.674318,0.07933 h -0.594986 v 0.435208 0.435208 l 0.545402,0.01102 0.545409,0.01102 0.01212,0.188563 c 0.01102,0.171956 0.0029,0.192044 -0.09183,0.228078 -0.05714,0.02174 -0.308033,0.03951 -0.557499,0.03951 h -0.453577 v 0.456156 0.456155 h 0.635632 0.635633 l 0.03871,0.101747 c 0.05634,0.148196 0.04745,0.280483 -0.02365,0.351581 -0.05274,0.05273 -0.188688,0.06214 -0.882565,0.06111 -0.482993,-7.12e-4 -0.848778,-0.01785 -0.889652,-0.04164 z m 5.610736,-0.0044 c -0.03518,-0.03511 -0.04759,-0.398425 -0.04759,-1.388305 v -1.34071 h -0.349414 c -0.41844,0 -0.499438,-0.04179 -0.499438,-0.257825 0,-0.252161 0.0249,-0.257831 1.133176,-0.257831 h 0.983152 l 0.0639,0.09755 c 0.07811,0.119221 0.04466,0.321313 -0.06272,0.378771 -0.0404,0.02159 -0.217465,0.0393 -0.393431,0.0393 h -0.319932 v 1.34071 c 0,0.98988 -0.01249,1.35316 -0.04759,1.388305 -0.02615,0.02615 -0.129709,0.0476 -0.230061,0.0476 -0.100359,0 -0.203884,-0.02145 -0.230061,-0.0476 z m -7.9506617,-4.33242 c -0.206146,-0.07358 -0.326071,-0.158265 -0.438476,-0.309656 -0.175651,-0.236554 -0.186617,-0.332793 -0.186617,-1.638094 0,-1.384669 -0.0105,-1.334512 0.281563,-1.342172 0.275363,-0.0073 0.273755,-0.01528 0.273755,1.373703 v 1.225111 l 0.109812,0.109805 c 0.202466,0.202474 0.605637,0.192742 0.8050917,-0.01946 l 0.09658,-0.102739 0.01983,-1.255136 0.01983,-1.255137 0.09916,-0.05171 c 0.110686,-0.05773 0.316561,-0.03504 0.364331,0.04018 0.04958,0.0781 0.03871,2.483824 -0.01212,2.666798 -0.0639,0.230134 -0.322017,0.472137 -0.587789,0.551065 -0.2584847,0.07676 -0.6412877,0.08013 -0.8449517,0.0074 z m 7.6916477,-0.0059 c -0.273674,-0.08743 -0.507231,-0.334298 -0.619496,-0.654788 -0.176944,-0.505152 -0.152551,-1.603272 0.04598,-2.068792 0.09592,-0.224927 0.356436,-0.476067 0.570125,-0.549596 0.224324,-0.07719 0.635809,-0.0697 0.856872,0.01557 0.515656,0.19889 0.73694,0.781537 0.695868,1.832195 -0.03004,0.768397 -0.180741,1.125875 -0.571058,1.354621 -0.228584,0.133962 -0.678629,0.166536 -0.978267,0.0708 z M 17.65176,26.01506 c 0.0719,-0.07191 0.150825,-0.201335 0.175334,-0.287578 0.07176,-0.252404 0.09791,-0.996563 0.04657,-1.323979 -0.0803,-0.512189 -0.222157,-0.690506 -0.549331,-0.690506 -0.220263,0 -0.358081,0.100022 -0.485616,0.35244 -0.09445,0.186947 -0.09908,0.228298 -0.0974,0.870585 0.0015,0.551983 0.01432,0.702845 0.07095,0.831533 0.12741,0.289605 0.244273,0.371507 0.536177,0.375767 0.144046,0.0022 0.194152,-0.0191 0.303325,-0.128262 z m -6.286913,0.515487 -0.09917,-0.04987 -0.0108,-1.545807 c -0.0108,-1.536339 -0.01028,-1.546225 0.07381,-1.615222 0.11626,-0.09535 0.289487,-0.08698 0.410632,0.01983 0.08894,0.07843 0.611946,1.025663 1.044716,1.892121 l 0.14763,0.295576 0.01983,-1.1078 0.01983,-1.1078 0.107476,-0.03775 c 0.0722,-0.02541 0.139522,-0.02314 0.205111,0.0066 0.139198,0.06339 0.152,0.233939 0.136753,1.822154 -0.0099,1.033655 -0.02505,1.368665 -0.06368,1.407233 -0.02784,0.02784 -0.123598,0.05061 -0.212727,0.05061 -0.128431,0 -0.179654,-0.02211 -0.246829,-0.106639 -0.07822,-0.0984 -0.989938,-1.775316 -1.100205,-2.023592 -0.02666,-0.06001 -0.05898,-0.1091 -0.07183,-0.109107 -0.01285,-1.5e-5 -0.01836,0.479277 -0.01227,1.065105 0.0087,0.828918 -1.25e-4,1.074153 -0.03966,1.105809 -0.09302,0.07449 -0.208394,0.08886 -0.308628,0.03841 z m 3.391428,0.01351 -0.119001,-0.02218 -0.01043,-1.358177 -0.01043,-1.358176 H 14.26877 c -0.417007,0 -0.523962,-0.05251 -0.523962,-0.257244 0,-0.255386 0.01315,-0.258412 1.125376,-0.258412 0.725445,0 1.013809,0.01307 1.048314,0.04759 0.07542,0.07542 0.05707,0.299896 -0.03173,0.388723 -0.06691,0.06691 -0.132221,0.07933 -0.416486,0.07933 h -0.337163 v 1.32395 c 0,1.012024 -0.01168,1.333087 -0.04958,1.362738 -0.07384,0.0578 -0.193624,0.07675 -0.32724,0.05185 z m -8.5400517,-0.04921 c -0.06236,-0.06236 -0.06853,-3.012399 -0.0066,-3.128278 0.03775,-0.07051 0.08815,-0.07671 0.6247399,-0.0765 0.7151181,2.8e-4 0.8459291,0.03305 1.085237,0.272074 0.2300171,0.22973 0.286336,0.418315 0.264155,0.884584 -0.02145,0.450853 -0.145214,0.671064 -0.470772,0.837556 -0.189561,0.09695 -0.268415,0.112581 -0.603183,0.11961 l -0.385117,0.0081 -4.04e-4,0.517639 c -2.71e-4,0.349237 -0.01586,0.533121 -0.04796,0.56524 -0.02615,0.02615 -0.129709,0.04759 -0.230068,0.04759 -0.100352,0 -0.203877,-0.02145 -0.230061,-0.04759 z m 1.2690991,-1.693055 c 0.116789,-0.104347 0.129349,-0.138508 0.143598,-0.390632 0.01704,-0.301034 -0.04635,-0.488583 -0.1912511,-0.56613 -0.04334,-0.02321 -0.2216589,-0.04605 -0.3963029,-0.05075 l -0.3175371,-0.0086 4.4e-5,0.565233 7.3e-5,0.56524 h 0.3167 c 0.292991,0 0.326278,-0.0086 0.4446761,-0.114351 z m 12.5742726,1.693055 c -0.0354,-0.0354 -0.04759,-0.440731 -0.04759,-1.578704 0,-1.137965 0.01219,-1.543324 0.04759,-1.578696 0.06339,-0.06339 1.175372,-0.06471 1.385984,-0.0015 0.517888,0.155158 0.734853,0.697623 0.699194,1.748119 -0.01564,0.461039 -0.03599,0.610087 -0.109569,0.80396 -0.115989,0.30547 -0.355113,0.545226 -0.607084,0.60867 -0.248342,0.0625 -1.305588,0.06118 -1.368525,-0.0015 z m 1.227153,-0.530375 c 0.07564,-0.03907 0.152441,-0.13142 0.206278,-0.247908 0.07639,-0.165302 0.08568,-0.25283 0.08494,-0.800421 -7.28e-4,-0.542545 -0.0108,-0.636573 -0.08554,-0.799884 -0.122606,-0.267865 -0.23634,-0.327894 -0.624013,-0.32937 l -0.320931,-0.0015 -0.0105,1.120558 -0.01058,1.120558 h 0.319917 c 0.213212,0 0.360107,-0.02079 0.440415,-0.06228 z m 1.390794,0.530375 c -0.0354,-0.0354 -0.04759,-0.440731 -0.04759,-1.578704 0,-1.137965 0.01219,-1.543324 0.04759,-1.578696 0.06735,-0.06735 1.701715,-0.06735 1.769096,0 0.02615,0.02615 0.04759,0.114409 0.04759,0.196076 0,0.242981 -0.07917,0.271978 -0.742639,0.271978 h -0.566327 v 0.416493 0.416487 h 0.478594 c 0.26323,0 0.513121,0.01851 0.555325,0.04106 0.08863,0.04745 0.10824,0.308217 0.02909,0.387328 -0.03202,0.0321 -0.213315,0.04759 -0.555319,0.04759 h -0.507723 v 0.475986 0.475994 h 0.613423 c 0.565879,0 0.61661,0.0059 0.654487,0.07672 0.05545,0.103598 0.05193,0.293204 -0.0066,0.351668 -0.03401,0.03401 -0.286476,0.04759 -0.884548,0.04759 -0.598072,0 -0.850534,-0.01359 -0.884548,-0.04759 z M 5.9068973,20.97049 c -0.655625,-0.144017 -1.171854,-0.633173 -1.349943,-1.279154 -0.07117,-0.258082 -0.07413,-0.561502 -0.07413,-7.547573 V 4.8650837 l 0.08965,-0.2377656 c 0.278631,-0.7389666 0.860559,-1.130701 1.679657,-1.130701 h 0.352815 V 1.8677043 c 0,-1.07232466 0.0144,-1.65576536 0.04209,-1.70752416 0.05979,-0.1116481 0.212191,-0.16093900499 0.344662,-0.1114425 0.06001,0.022402 0.255011,0.1853679 0.433365,0.3621055 l 0.324287,0.3213566 0.350031,-0.3180441 c 0.399064,-0.3625755 0.496008,-0.4230819 0.619283,-0.3864755 0.04826,0.014322 0.243428,0.1795581 0.433702,0.3671587 l 0.345947,0.3411068 0.110209,-0.097098 c 0.06059,-0.053397 0.219969,-0.1995506 0.354122,-0.3247645 0.2524247,-0.2355989 0.4141937,-0.3248748 0.5248877,-0.2896785 0.07293,0.02321 0.196642,0.1293564 0.54751,0.4699123 l 0.245338,0.2381254 0.369479,-0.3381541 c 0.203216,-0.1859848 0.408973,-0.35042 0.457236,-0.3654107 0.121732,-0.037826 0.218764,0.022769 0.604615,0.3774782 l 0.335371,0.3083049 0.127682,-0.1064113 c 0.07022,-0.058538 0.243905,-0.2102006 0.385954,-0.3370672 0.293042,-0.2617169 0.444264,-0.300255 0.593363,-0.1512071 0.08578,0.085743 0.08665,0.1010422 0.09772,1.72662786 l 0.01116,1.640121 0.444992,0.017701 c 0.624021,0.024825 0.940045,0.1789485 1.299499,0.6336938 0.259697,0.3285471 0.327071,0.563977 0.352704,1.2325145 l 0.0224,0.5849024 4.700401,0.010062 c 4.208594,0.00903 4.714929,0.016746 4.839233,0.073492 0.216186,0.098729 0.391638,0.266491 0.497771,0.475935 l 0.09722,0.1918386 -3.97e-4,5.5644568 -3.97e-4,5.56445 -0.09451,0.202966 c -0.052,0.111641 -0.155408,0.249422 -0.229825,0.30619 -0.312778,0.238573 0.0044,0.224662 -5.123153,0.224662 h -4.697177 l -0.01763,0.545402 c -0.01307,0.403611 -0.03643,0.591814 -0.08989,0.723903 -0.19676,0.485982 -0.614289,0.89541 -1.096798,1.075519 l -0.252492,0.09425 -4.383077,0.0074 c -3.5374187,0.0059 -4.4297377,-0.0029 -4.6249617,-0.04568 z m 9.1929007,-0.666658 c 0.246586,-0.121093 0.456618,-0.329435 0.596823,-0.592019 l 0.09097,-0.17037 0.01036,-7.274199 0.01036,-7.2741994 -0.101733,-0.2226426 c -0.129084,-0.28251 -0.30201,-0.4649693 -0.553591,-0.5841091 -0.16127,-0.076371 -0.263179,-0.093991 -0.545402,-0.094307 l -0.347078,-3.82e-4 v 0.5156557 c 0,0.2836117 -0.0044,0.5290379 -0.0099,0.5454021 -0.0051,0.016379 0.08394,0.031583 0.19864,0.033786 0.140851,0.00294 0.234211,0.027249 0.287578,0.075563 0.108387,0.09809 0.104406,0.3101411 -0.0078,0.4146648 -0.08624,0.080345 -0.114689,0.080874 -4.318223,0.080874 -4.2207487,0 -4.2316776,-1.983e-4 -4.3359297,-0.08221 -0.124421,-0.097869 -0.138406,-0.2638029 -0.0332,-0.3937616 0.06052,-0.074741 0.1086371,-0.087572 0.317332,-0.084634 l 0.245984,0.00367 V 4.6462089 4.0918021 h -0.349208 c -0.295415,0 -0.38068,0.015644 -0.553555,0.1018282 -0.225206,0.1122284 -0.398271,0.2881949 -0.534884,0.543845 l -0.08949,0.1674759 -0.0108,7.2390098 c -0.0098,6.566471 -0.0051,7.2573 0.0531,7.435793 0.124215,0.382582 0.421341,0.683117 0.790593,0.799671 0.124465,0.0393 1.108403,0.04848 4.5616067,0.04245 l 4.4029,-0.0076 z M 6.2424294,19.683778 c -0.09292,-0.07524 -0.09364,-0.08214 -0.09364,-0.891379 0,-1.079037 -0.08444,-0.992178 0.980464,-1.008549 0.86786,-0.01337 0.945759,-0.0051 1.063334,0.11247 0.07286,0.07286 0.07833,0.134704 0.07833,0.891474 0,0.76026 -0.0051,0.818305 -0.07934,0.89248 -0.0746,0.07461 -0.132214,0.07933 -0.967412,0.07933 -0.815308,0 -0.895763,-0.0059 -0.981734,-0.07583 z m 1.473159,-0.886068 v -0.426409 l -0.50574,-8e-6 -0.50574,-7e-6 0.0084,0.426416 c 0.0044,0.234527 0.0091,0.426417 0.0099,0.426417 7.34e-4,0 0.224559,0 0.497257,0 h 0.495825 z m 1.712548,0.870093 c -0.08267,-0.088 -0.08625,-0.125001 -0.08625,-0.89248 0,-0.744358 0.0051,-0.806194 0.07832,-0.879003 0.117539,-0.117538 0.19557,-0.125816 1.0602786,-0.11247 0.717843,0.01109 0.805173,0.01976 0.880295,0.08786 0.07966,0.0722 0.08339,0.112544 0.08339,0.902396 0,0.77395 -0.0051,0.831915 -0.07933,0.90617 -0.07459,0.07459 -0.132221,0.07933 -0.9649,0.07933 -0.8743896,0 -0.8866546,-0.0015 -0.9718106,-0.0918 z M 10.888853,18.807625 V 18.371301 H 10.393029 9.8972114 v 0.415274 0.415267 l 0.4859016,0.01249 c 0.267248,0.0066 0.490375,0.01631 0.495825,0.02108 0.0051,0.0044 0.0099,-0.18777 0.0099,-0.427746 z m 1.708509,0.847464 c -0.07676,-0.09759 -0.08221,-0.155577 -0.08221,-0.875256 0,-0.426894 0.01733,-0.803109 0.03885,-0.843293 0.06956,-0.129973 0.26445,-0.160226 1.032149,-0.160226 0.767699,0 0.962586,0.03026 1.032149,0.160226 0.02159,0.04032 0.03885,0.422561 0.03885,0.861001 0,0.738636 -0.0051,0.793928 -0.08088,0.875256 -0.07865,0.08441 -0.105883,0.08681 -0.988763,0.08681 H 12.67961 Z m 1.495854,-0.87721 -0.01124,-0.426409 h -0.495825 -0.495825 l -0.01124,0.426409 -0.01124,0.426402 h 0.518337 0.518336 z M 6.4008194,17.115055 c -0.05773,-0.0096 -0.138045,-0.05413 -0.178493,-0.09879 -0.06654,-0.07353 -0.07354,-0.158133 -0.07354,-0.889138 0,-1.080044 -0.09951,-0.988587 1.075579,-0.988587 1.147873,0 1.046544,-0.09602 1.046544,0.99165 0,1.080147 0.08659,0.990056 -0.958326,0.997026 -0.443743,0.0029 -0.854038,-0.0022 -0.911768,-0.01212 z m 1.314769,-0.98606 v -0.457338 l -0.498931,0.01109 -0.498925,0.01109 0.0015,0.426402 c 7.35e-4,0.234527 0.0022,0.435333 0.0029,0.44624 7.35e-4,0.01094 0.224648,0.01983 0.497345,0.01983 h 0.495825 z m 1.844505,0.972134 c -0.209415,-0.06551 -0.218207,-0.104648 -0.218207,-0.971047 0,-0.746892 0.0051,-0.80363 0.08043,-0.884423 0.04422,-0.04745 0.121116,-0.09654 0.170855,-0.109026 0.04972,-0.01249 0.4524676,-0.01719 0.8949616,-0.01036 1.04346,0.01594 0.956042,-0.0775 0.956042,1.02202 0,0.785518 -0.0037,0.825834 -0.08344,0.898004 -0.07553,0.06838 -0.159147,0.07635 -0.882564,0.08382 -0.43952,0.0044 -0.8526566,-0.0084 -0.9180836,-0.02894 z M 10.888853,16.130185 V 15.674022 H 10.393029 9.8972114 v 0.456163 0.456155 h 0.4958176 0.495824 z m 1.800818,0.956306 c -0.06765,-0.03026 -0.134571,-0.08523 -0.148747,-0.122158 -0.01417,-0.03694 -0.02578,-0.415135 -0.02578,-0.84045 v -0.773289 l 0.115952,-0.115945 0.115945,-0.115945 h 0.818805 c 0.828073,0 0.933287,0.01572 1.040411,0.155225 0.03423,0.04451 0.0487,0.296429 0.04958,0.861772 0.0015,1.075857 0.09434,0.983284 -0.996733,0.995961 -0.653179,0.0076 -0.874551,-0.0029 -0.969446,-0.04517 z m 1.403501,-0.966229 0.01124,-0.44624 H 13.587456 13.0705 v 0.429714 c 0,0.236341 0.013,0.442715 0.02887,0.458609 0.01586,0.01586 0.24348,0.02336 0.505741,0.01653 l 0.476845,-0.01241 z m -7.8306396,-1.729757 -0.113742,-0.09776 -0.01227,-0.797563 -0.01226,-0.797564 0.118266,-0.118265 0.118265,-0.118259 h 0.857666 0.857673 l 0.09736,0.09736 c 0.09702,0.09703 0.09736,0.10022 0.09736,0.907926 0,0.738688 -0.0066,0.818856 -0.07576,0.904196 -0.07487,0.09255 -0.08596,0.09379 -0.947316,0.105669 l -0.871555,0.01205 z m 1.453056,-0.919119 V 13.01404 l -0.498931,0.01109 -0.498925,0.01109 0.0015,0.42641 c 7.35e-4,0.234526 0.0022,0.435333 0.0029,0.44624 7.35e-4,0.01094 0.224648,0.01983 0.497345,0.01983 h 0.495825 z m 1.799408,0.967419 c -0.04664,-0.02321 -0.104612,-0.08582 -0.128916,-0.139162 -0.04701,-0.10315 -0.06397,-1.542524 -0.01954,-1.658277 0.0589,-0.153543 0.215915,-0.180271 1.0588536,-0.180271 0.759158,0 0.8163,0.0051 0.91428,0.08221 l 0.104516,0.08221 v 0.843784 c 0,0.807111 -0.0037,0.847074 -0.0834,0.919354 -0.07581,0.06867 -0.159838,0.07633 -0.922234,0.08394 -0.5299486,0.0051 -0.8700266,-0.0073 -0.9235486,-0.03379 z M 10.888853,13.468521 V 13.016413 H 10.393029 9.8972114 v 0.457698 0.45769 l 0.4958176,-0.0059 0.495824,-0.0059 z m 1.744403,0.901735 -0.118105,-0.118097 v -0.791974 c 0,-0.720407 0.0066,-0.800435 0.07576,-0.88562 0.07501,-0.09271 0.08471,-0.09376 0.97151,-0.105662 l 0.895749,-0.01205 0.09947,0.09947 0.09947,0.09946 v 0.810563 c 0,0.738688 -0.0066,0.818856 -0.07576,0.904195 -0.0749,0.09259 -0.08569,0.09378 -0.952876,0.105714 l -0.877122,0.01205 z m 1.468532,-0.901735 v -0.452108 h -0.515656 -0.515656 v 0.429714 c 0,0.236341 0.01256,0.442266 0.02791,0.457602 0.01535,0.01535 0.247388,0.02541 0.515656,0.0224 l 0.487768,-0.0051 z m -7.8754726,-1.818776 -0.09736,-0.09736 V 9.1001262 c 0,-2.1552918 0.0075,-2.4629357 0.06177,-2.5404159 l 0.06177,-0.088159 h 4.1366816 4.136681 l 0.07556,0.083481 c 0.07257,0.08019 0.07556,0.1798959 0.07556,2.5353847 v 2.451919 l -0.09616,0.102386 -0.09616,0.102386 H 10.404186 6.3237154 Z M 14.101788,9.1093292 V 7.0268757 H 10.397597 6.6934064 l 0.01249,2.0725381 c 0.0066,1.1398972 0.01373,2.0770042 0.01528,2.0824532 0.0015,0.0051 1.662794,0.0099 3.6917036,0.0099 h 3.688921 z M 9.3136534,9.9507116 C 8.7880084,9.4250744 8.7469004,9.3732863 8.7469004,9.236732 c 0,-0.1870277 0.112015,-0.3058958 0.288253,-0.3058958 0.112126,0 0.188188,0.058758 0.564359,0.4361115 l 0.4347596,0.436119 0.915132,-0.9121053 C 11.76126,8.0817932 11.878865,7.978856 11.991519,7.978856 c 0.173323,0 0.285316,0.1199918 0.286895,0.3074088 0.0015,0.1425697 -0.0426,0.1920002 -1.054198,1.1899734 -0.990665,0.9773048 -1.064304,1.0412268 -1.199639,1.0412268 -0.1326166,0 -0.1895976,-0.04539 -0.7109236,-0.5667534 z M 17.909709,12.282594 V 6.5508819 h -0.773487 -0.77348 v 5.7317121 5.731713 h 0.77348 0.773487 z m 2.102284,0 V 6.5508819 h -0.77348 -0.773487 v 5.7317121 5.731713 h 0.773487 0.77348 z m 5.713182,5.671545 c 0.253579,-0.131127 0.238559,0.247438 0.227197,-5.728981 L 25.942015,6.7906746 25.832049,6.6806937 25.722083,6.5707128 23.144693,6.559916 20.567296,6.5491926 V 12.281742 18.0143 h 2.520747 c 2.175593,0 2.536685,-0.0082 2.63711,-0.06015 z m -2.087536,-0.320865 c -0.444874,-0.136547 -0.802514,-0.564491 -0.86767,-1.038237 -0.03364,-0.24453 0.05795,-0.63755 0.197972,-0.84969 0.06375,-0.09659 0.0822,-0.155937 0.05391,-0.17344 -0.02365,-0.01462 -0.08566,-0.118126 -0.137745,-0.229987 -0.07589,-0.162996 -0.09478,-0.269231 -0.09508,-0.534995 -3.6e-4,-0.296604 0.01285,-0.356457 0.125096,-0.567039 0.215526,-0.40436 0.525814,-0.593951 1.01577,-0.62065 0.306138,-0.01667 0.345095,-0.0095 0.581678,0.106955 0.292191,0.143848 0.469185,0.327563 0.608274,0.63138 0.08471,0.185015 0.09569,0.256069 0.08042,0.519982 -0.01432,0.246689 -0.04179,0.350207 -0.14268,0.536441 l -0.124987,0.230759 0.07916,0.111178 c 0.309481,0.434628 0.256091,1.104598 -0.120902,1.517089 -0.325286,0.355913 -0.811724,0.495751 -1.253183,0.360254 z m 0.63448,-0.586569 c 0.303839,-0.126955 0.44964,-0.506615 0.322443,-0.839664 -0.182672,-0.47833 -0.866245,-0.536368 -1.161255,-0.0986 -0.148424,0.220249 -0.111149,0.580217 0.08184,0.790366 0.178463,0.194328 0.496926,0.256546 0.756969,0.147895 z m -0.372873,-1.797454 c 0.119992,-0.01139 0.284794,-0.0022 0.366233,0.02013 0.137517,0.03797 0.154828,0.03283 0.242966,-0.07191 0.206403,-0.245294 0.166653,-0.612475 -0.09155,-0.845753 -0.465858,-0.420871 -1.173176,-0.03386 -1.05743,0.578557 0.03856,0.20409 0.173447,0.399028 0.253829,0.366857 0.03731,-0.01491 0.16597,-0.0365 0.285955,-0.04789 z M 13.665463,3.074086 V 0.94592584 L 13.430415,1.1701255 c -0.198471,0.189312 -0.257773,0.2241997 -0.381055,0.2241997 -0.125934,0 -0.184956,-0.036871 -0.429354,-0.2684447 C 12.117637,0.64993074 12.219009,0.65881064 11.783074,1.0525065 11.268829,1.5169617 11.24191,1.5168809 10.76444,1.0495665 l -0.352197,-0.34463956 -0.1286,0.117759 c -0.07073,0.064781 -0.238838,0.21985896 -0.3735706,0.34463956 -0.337354,0.3124401 -0.442024,0.3124401 -0.779378,0 -0.134725,-0.1247806 -0.30204,-0.27909466 -0.3718,-0.34292086 l -0.12683,-0.1160477 -0.373586,0.34292826 c -0.334041,0.306623 -0.389736,0.3429209 -0.52618,0.3429209 -0.133822,0 -0.178413,-0.027323 -0.362319,-0.2217686 L 7.1602634,0.95066164 V 3.0763923 5.2021287 h 3.2526036 3.252596 z M 8.3754224,4.2473868 c -0.144538,-0.1136973 -0.144538,-0.3168762 0,-0.4305663 0.1015349,-0.079867 0.147146,-0.08221 1.597639,-0.08221 1.6239106,0 1.6262826,3.158e-4 1.7114826,0.2243907 0.04774,0.1256106 -0.04341,0.3114411 -0.169364,0.3451757 -0.04994,0.013368 -0.753325,0.024605 -1.5630366,0.024899 -1.429752,5.288e-4 -1.475216,-0.00147 -1.576721,-0.081667 z m 0.09382,-1.2543432 c -0.123525,-0.046566 -0.198309,-0.147241 -0.197722,-0.2661458 0.0015,-0.305411 -0.0285,-0.3012612 2.1802126,-0.3012612 h 1.948037 l 0.09736,0.097363 c 0.116782,0.1167822 0.124634,0.2568106 0.02152,0.3841472 l -0.07581,0.093646 -1.957063,0.00734 c -1.0763867,0.00367 -1.9838427,-0.00294 -2.0165706,-0.01513 z"
       id="path2" /></g></svg>
