<svg
   width="100%"
   height="100%"
   viewBox="0 0 31 31"
   xml:space="preserve"><defs
     id="defs1" /><g
     id="g1"><path
       style="fill:currentColor;stroke-width:0.037395"
       d="m 7.0085387,29.046935 -0.0841,-0.06116 v -1.342786 -1.342777 l 0.082431,-0.04412 c 0.058,-0.03102 0.2343563,-0.03761 0.5941866,-0.02223 0.6830675,0.02917 0.8665418,0.105279 1.0105934,0.41899 0.1304128,0.283999 0.048949,0.760674 -0.1513017,0.885752 -0.1010962,0.0631 -0.098293,0.07681 0.031461,0.153446 0.3108112,0.183606 0.3575015,0.822005 0.082255,1.125223 -0.1849682,0.203801 -0.3777752,0.259341 -0.9578308,0.275888 -0.4415404,0.01257 -0.5367048,0.0053 -0.6076672,-0.04622 z M 8.146557,28.488278 C 8.2651588,28.350404 8.263744,28.1322 8.143037,27.992235 8.06087,27.896705 8.0272386,27.886578 7.7503927,27.874002 l -0.3027743,-0.01371 v 0.352984 c 0,0.194134 0.012655,0.365956 0.028034,0.381827 0.015467,0.01591 0.1531208,0.021 0.3059867,0.01142 0.2443042,-0.01529 0.2884196,-0.02961 0.3645933,-0.118189 z M 7.9884799,27.396203 c 0.1602302,-0.06152 0.2227914,-0.426768 0.099224,-0.579361 -0.060461,-0.0747 -0.111879,-0.08944 -0.3552517,-0.101721 l -0.2845266,-0.01432 v 0.359338 0.359338 h 0.2400157 c 0.1320034,0 0.2672407,-0.01046 0.3005382,-0.0232 z m 1.0171228,1.658764 c -0.059934,-0.04385 -0.038667,-0.141494 0.2953357,-1.355572 0.1979655,-0.719581 0.3840762,-1.346187 0.4135684,-1.392464 0.046312,-0.07259 0.085507,-0.08401 0.2864862,-0.08357 0.128075,2.99e-4 0.255931,0.0152 0.284122,0.03304 0.02821,0.01784 0.225499,0.644435 0.438447,1.392393 0.353661,1.242217 0.381783,1.363965 0.324881,1.406656 -0.08542,0.06406 -0.366773,0.05914 -0.433499,-0.0079 -0.02988,-0.02988 -0.0834,-0.172893 -0.118883,-0.317859 l -0.06459,-0.263567 H 10.028183 9.6248964 l -0.064591,0.263558 c -0.035503,0.144966 -0.089022,0.287998 -0.118883,0.317859 -0.066964,0.06696 -0.3476678,0.07153 -0.4358195,0.007 z m 1.2776323,-1.121356 c -0.007,-0.02566 -0.06187,-0.244472 -0.122636,-0.486131 -0.06072,-0.241667 -0.121009,-0.439396 -0.133945,-0.439396 -0.02223,0 -0.2602369,0.854634 -0.2602369,0.934587 0,0.02179 0.1117472,0.0377 0.2645079,0.0377 0.193176,0 0.261212,-0.01257 0.25231,-0.04675 z m 1.193997,1.128202 c -0.06046,-0.03515 -0.06547,-0.142118 -0.06547,-1.393694 0,-1.004477 0.0116,-1.367199 0.04491,-1.400452 0.04675,-0.04675 0.354057,-0.0616 0.456972,-0.02215 0.0326,0.01248 0.248505,0.403744 0.479847,0.869433 l 0.420617,0.846708 0.01011,-0.839634 c 0.007,-0.614469 0.02241,-0.847472 0.05607,-0.868861 0.07197,-0.04579 0.381334,-0.03533 0.43117,0.0145 0.03331,0.03322 0.04491,0.39659 0.04491,1.403238 v 1.358357 l -0.102836,0.03919 c -0.05659,0.02153 -0.175257,0.02838 -0.26376,0.0152 l -0.160925,-0.02399 -0.437392,-0.885542 -0.437402,-0.885541 -0.01002,0.877008 c -0.007,0.644383 -0.02223,0.884768 -0.05607,0.906255 -0.06556,0.04165 -0.333115,0.03515 -0.410642,-0.01002 z m 2.870065,-0.03067 c -0.195505,-0.09072 -0.368372,-0.276424 -0.473396,-0.508575 -0.07303,-0.161425 -0.08665,-0.264762 -0.09937,-0.756165 -0.01758,-0.676494 0.04719,-0.969818 0.272214,-1.2327 0.370649,-0.433024 1.069447,-0.443807 1.440534,-0.02223 0.181875,0.20663 0.264877,0.436971 0.184599,0.512318 -0.02926,0.02742 -0.123927,0.06046 -0.210435,0.07338 -0.121054,0.0181 -0.16843,0.0094 -0.205673,-0.03779 -0.212211,-0.26855 -0.32235,-0.35048 -0.471156,-0.35048 -0.190996,0 -0.351569,0.12754 -0.411222,0.326621 -0.07408,0.247292 -0.09564,0.755515 -0.04482,1.056853 0.03919,0.232124 0.06767,0.299598 0.169387,0.401353 0.09762,0.09763 0.15269,0.122319 0.272769,0.122319 0.169422,0 0.344609,-0.121167 0.438956,-0.303613 0.04895,-0.09472 0.07619,-0.107732 0.225481,-0.107732 0.193185,0 0.31444,0.0515 0.31444,0.133445 0,0.09389 -0.17357,0.402689 -0.286328,0.50941 -0.263189,0.249111 -0.788514,0.335522 -1.115987,0.183579 z m 1.651919,0.02426 c -0.05897,-0.04315 -0.03629,-0.147189 0.294808,-1.355564 0.197262,-0.719853 0.38303,-1.346687 0.412813,-1.392964 0.04693,-0.07285 0.0863,-0.0841 0.293692,-0.0841 0.158727,0 0.257723,0.01819 0.293437,0.05387 0.02962,0.02961 0.106633,0.244199 0.171084,0.47678 0.06442,0.23259 0.23469,0.835169 0.378311,1.339068 0.239664,0.840908 0.255966,0.920017 0.198387,0.962919 -0.08533,0.06362 -0.367185,0.05923 -0.433148,-0.007 -0.02944,-0.02944 -0.08436,-0.172463 -0.122064,-0.317859 l -0.06855,-0.264358 h -0.396924 -0.396924 l -0.06855,0.264358 c -0.0377,0.145396 -0.09263,0.288428 -0.122064,0.317859 -0.066,0.066 -0.347413,0.0703 -0.434264,0.007 z m 1.276876,-1.121849 c -0.007,-0.02566 -0.06187,-0.244471 -0.122636,-0.48613 -0.06072,-0.241668 -0.120834,-0.439396 -0.133541,-0.439396 -0.01274,0 -0.08225,0.218766 -0.154579,0.486139 l -0.131459,0.48613 h 0.277206 c 0.203344,0 0.273955,-0.01248 0.265009,-0.04675 z m 1.210826,1.12372 c -0.03331,-0.03331 -0.04491,-0.400386 -0.04491,-1.420295 v -1.375424 l 0.09448,-0.02373 c 0.05194,-0.01301 0.316998,-0.01705 0.588966,-0.009 0.440389,0.01309 0.512732,0.02487 0.661116,0.107143 0.09164,0.05088 0.217843,0.165362 0.280457,0.254507 0.10223,0.145545 0.115166,0.19568 0.126766,0.491376 0.0152,0.387029 -0.05282,0.587526 -0.260281,0.767906 l -0.128646,0.111836 0.220023,0.517687 c 0.149439,0.351623 0.207791,0.529921 0.18191,0.555801 -0.05712,0.05712 -0.359602,0.0812 -0.445161,0.03542 -0.04754,-0.02548 -0.147426,-0.218256 -0.273366,-0.527776 L 19.28985,28.055057 H 19.127695 18.96554 v 0.484821 c 0,0.441048 -0.0062,0.48831 -0.07232,0.523523 -0.09854,0.05273 -0.351253,0.04886 -0.406327,-0.0062 z m 1.075835,-1.580586 c 0.115728,-0.123189 0.145423,-0.4103 0.05958,-0.57626 -0.07505,-0.145106 -0.185012,-0.191559 -0.453545,-0.191559 H 18.96555 v 0.430046 0.430037 h 0.255245 c 0.223011,0 0.266195,-0.01169 0.34193,-0.09226 z m 1.151042,1.585068 c -0.06046,-0.03515 -0.06547,-0.142118 -0.06547,-1.393694 0,-1.004477 0.0116,-1.367198 0.04491,-1.400452 0.05818,-0.05818 0.375605,-0.05818 0.433781,0 0.03322,0.03322 0.04491,0.394727 0.04491,1.394837 0,1.0001 -0.0116,1.361583 -0.04491,1.394827 -0.0544,0.0544 -0.322534,0.0573 -0.413208,0.0044 z m 0.853061,-0.01872 c -0.03252,-0.03252 -0.05176,-0.07101 -0.04271,-0.08568 0.01503,-0.02426 0.168965,-0.574379 0.582226,-2.080251 0.089,-0.324292 0.179775,-0.580644 0.21519,-0.607667 0.03366,-0.02575 0.155783,-0.04675 0.271327,-0.04675 0.115544,0 0.237696,0.021 0.27145,0.04675 0.03867,0.02944 0.200857,0.544016 0.438781,1.392297 0.355647,1.267974 0.373548,1.348383 0.310372,1.394608 -0.03849,0.02812 -0.138252,0.04438 -0.234102,0.03805 -0.190522,-0.01257 -0.221763,-0.05308 -0.319467,-0.414245 l -0.05853,-0.216271 -0.396819,0.01063 -0.396819,0.01063 -0.07127,0.260421 c -0.03919,0.143225 -0.08922,0.282048 -0.111176,0.3085 -0.05774,0.0696 -0.385746,0.06169 -0.458474,-0.01099 z m 1.288274,-1.090783 c 8.79e-4,-0.06362 -0.24223,-0.944183 -0.260781,-0.943753 -0.01107,2.64e-4 -0.06899,0.197983 -0.128673,0.439388 -0.05967,0.241413 -0.116176,0.459959 -0.125535,0.485664 -0.01257,0.03463 0.05202,0.04675 0.24875,0.04675 0.14617,0 0.265976,-0.01265 0.266239,-0.02803 z M 2.3154721,25.023095 c -0.060021,-0.03498 -0.06547,-0.131714 -0.06547,-1.175227 v -1.137113 l -0.2898081,-0.0109 -0.2898169,-0.0109 V 22.44589 22.202816 l 0.7992527,-0.01011 c 0.5724189,-0.007 0.8143416,0.0026 0.8524196,0.03401 0.037173,0.03085 0.049828,0.10709 0.042182,0.25318 l -0.011073,0.209039 -0.2898081,0.0109 -0.2898081,0.0109 v 1.137658 c 0,1.086494 -0.00352,1.139398 -0.072325,1.17636 -0.091597,0.04904 -0.3002745,0.04816 -0.3857546,-0.0018 z m 1.4752284,-0.0044 c -0.064328,-0.06433 -0.064328,-2.72531 0,-2.789664 0.029967,-0.02997 0.1954434,-0.04491 0.4980467,-0.04491 0.5653446,0 0.8041651,0.0624 0.991673,0.259042 0.1637893,0.171786 0.2229672,0.361579 0.2229672,0.715108 0,0.323932 -0.090621,0.547664 -0.2804929,0.692488 l -0.1232594,0.09401 0.2018761,0.468115 c 0.1110354,0.257459 0.2018762,0.491763 0.2018762,0.520667 0,0.130562 -0.3493551,0.177885 -0.476402,0.0645 -0.040337,-0.03603 -0.1543599,-0.261696 -0.2533822,-0.501562 L 4.593565,24.060371 4.431463,24.047451 4.269361,24.034531 v 0.469574 c 0,0.315372 -0.014764,0.48432 -0.044906,0.514454 -0.024694,0.02469 -0.122284,0.04491 -0.216886,0.04491 -0.094611,0 -0.1922094,-0.02021 -0.2168947,-0.04491 z m 1.0735238,-1.57812 C 4.9687829,23.329267 5.0033019,23.097714 4.9427004,22.914108 4.8873365,22.746382 4.7359382,22.670296 4.457528,22.670296 H 4.2693522 v 0.430045 0.430037 h 0.2552452 c 0.2211217,0 0.2665201,-0.01204 0.3396181,-0.0898 z m 0.967392,1.576254 c -0.054222,-0.04218 -0.040337,-0.117363 0.1431113,-0.775938 0.1117208,-0.401063 0.2802732,-1.006868 0.37455,-1.346222 0.094277,-0.339363 0.18858,-0.638056 0.2095656,-0.663761 0.023639,-0.029 0.1339631,-0.04675 0.2907659,-0.04675 0.1567151,0 0.2671529,0.01775 0.2909242,0.04675 0.021091,0.02566 0.1675593,0.509507 0.3255134,1.075106 0.1579541,0.565599 0.3284837,1.171175 0.3789616,1.34573 0.086297,0.298341 0.087897,0.320196 0.027155,0.364602 -0.097194,0.07109 -0.3643648,0.05985 -0.4319615,-0.01819 -0.031197,-0.03603 -0.086913,-0.179573 -0.1238569,-0.319063 l -0.06714,-0.25362 -0.3923543,0.01055 -0.3923544,0.01055 -0.07127,0.260413 c -0.039194,0.143225 -0.089224,0.282048 -0.111176,0.308509 -0.051234,0.06169 -0.3717115,0.06266 -0.4504337,0.0018 z m 1.1736972,-1.561236 c -0.072325,-0.267372 -0.1412043,-0.486139 -0.1531119,-0.486139 -0.018015,0 -0.076543,0.20714 -0.2562646,0.906835 -0.01494,0.058 0.015027,0.06547 0.2620119,0.06547 h 0.2788232 z m 1.34899,1.569251 -0.084628,-0.03401 0.00984,-1.394001 0.00984,-1.394002 H 8.5324259 8.775491 l 0.4300458,0.850688 c 0.2365269,0.467887 0.4384557,0.850733 0.4487376,0.850777 0.010282,3.5e-5 0.013797,-0.363434 0.00791,-0.807733 -0.00791,-0.572516 0.00176,-0.823051 0.032603,-0.860118 0.027243,-0.03287 0.1176527,-0.05229 0.2431882,-0.05229 0.1592464,0 0.2076324,0.01468 0.2384864,0.07232 0.04763,0.08891 0.05264,2.652415 0.0053,2.727007 -0.0435,0.06863 -0.3470173,0.09929 -0.4479993,0.04526 -0.051673,-0.02768 -0.2356745,-0.350734 -0.5083022,-0.892378 l -0.4273566,-0.849054 -0.00176,0.849423 c -0.00176,0.800413 -0.00615,0.851655 -0.074346,0.888125 -0.087001,0.04658 -0.2516158,0.04658 -0.3675109,-1.7e-5 z m 2.8328835,0.0035 c -0.350849,-0.106729 -0.617352,-0.416099 -0.590926,-0.685977 0.0098,-0.100841 0.03041,-0.121985 0.142425,-0.146626 0.188123,-0.04139 0.289694,-0.007 0.355349,0.119832 0.07979,0.154237 0.218599,0.235182 0.410536,0.239348 0.321594,0.007 0.474539,-0.300819 0.253128,-0.509401 -0.05659,-0.05326 -0.262698,-0.171215 -0.458088,-0.262073 -0.53812,-0.250236 -0.696259,-0.4754 -0.666134,-0.948463 0.02294,-0.36092 0.255043,-0.616394 0.630472,-0.694061 0.33025,-0.06828 0.608291,0.007 0.826109,0.224962 0.173878,0.173684 0.288885,0.427831 0.245174,0.541758 -0.02338,0.0609 -0.323246,0.121985 -0.418709,0.08533 -0.03137,-0.01204 -0.07268,-0.06283 -0.09165,-0.112766 -0.09155,-0.240798 -0.378698,-0.325558 -0.576312,-0.170117 -0.114814,0.09031 -0.132707,0.268418 -0.04025,0.400457 0.03208,0.04578 0.247907,0.174396 0.479636,0.285792 0.557629,0.268067 0.732526,0.472852 0.733273,0.858589 6.24e-4,0.320961 -0.261441,0.688472 -0.547576,0.767923 -0.163016,0.04526 -0.545642,0.04833 -0.686486,0.0053 z m 1.670935,-0.01178 c -0.05844,-0.0428 -0.06292,-0.162796 -0.05387,-1.430357 l 0.0098,-1.383615 0.686943,-0.01019 c 0.474987,-0.007 0.702858,0.0026 0.738546,0.0326 0.06406,0.05317 0.06907,0.375235 0.007,0.437541 -0.02997,0.02997 -0.194872,0.04491 -0.495507,0.04491 h -0.450563 l -0.0053,0.354056 -0.0053,0.354066 0.416855,0.01055 0.416855,0.01055 v 0.224373 0.224364 l -0.423112,0.01063 -0.423104,0.01063 0.01178,0.52528 c 0.0109,0.484391 0.0062,0.52942 -0.06081,0.578378 -0.0897,0.06564 -0.28414,0.06899 -0.369532,0.0062 z m 1.889307,0.0018 c -0.06433,-0.06433 -0.06433,-2.725311 0,-2.789665 0.03164,-0.03164 0.24651,-0.04491 0.727886,-0.04491 0.637001,0 0.685616,0.0053 0.721717,0.07233 0.05273,0.09854 0.04886,0.351253 -0.0062,0.406318 -0.03006,0.03006 -0.196946,0.04491 -0.504831,0.04491 h -0.45996 v 0.336551 0.336551 h 0.385166 c 0.249718,0 0.400949,0.01582 0.430046,0.04491 0.02469,0.02469 0.04491,0.113865 0.04491,0.198194 0,0.08428 -0.02021,0.173508 -0.04491,0.198194 -0.02909,0.02909 -0.180328,0.04491 -0.430046,0.04491 h -0.385166 v 0.336551 0.33656 h 0.45996 c 0.307885,0 0.474794,0.01485 0.504831,0.04491 0.02469,0.02469 0.04491,0.125052 0.04491,0.223055 0,0.137891 -0.01634,0.186937 -0.07232,0.216886 -0.106062,0.05677 -1.358525,0.05132 -1.415989,-0.0062 z m 1.92771,0.0044 c -0.06046,-0.03524 -0.06547,-0.142409 -0.06547,-1.399855 0,-1.346898 8.61e-4,-1.362207 0.07883,-1.40395 0.05123,-0.02742 0.257311,-0.03761 0.588967,-0.02917 0.44799,0.01142 0.531335,0.0239 0.684359,0.101922 0.289659,0.14776 0.442947,0.432559 0.44256,0.822259 -3.16e-4,0.317148 -0.06292,0.488925 -0.244111,0.67015 l -0.160916,0.160915 0.202623,0.483029 c 0.11144,0.265667 0.202615,0.499821 0.202615,0.52035 0,0.117354 -0.357449,0.154158 -0.478784,0.0493 -0.04166,-0.03603 -0.158921,-0.265755 -0.260606,-0.510587 l -0.18488,-0.445143 -0.164237,-3.5e-5 -0.164229,-4.4e-5 -0.01055,0.481112 c -0.007,0.327376 -0.02505,0.490366 -0.05607,0.510069 -0.06521,0.04139 -0.332895,0.03471 -0.410167,-0.01028 z m 1.081002,-1.588786 c 0.08735,-0.08735 0.09461,-0.117592 0.08058,-0.337334 -0.02127,-0.333528 -0.09173,-0.400632 -0.441567,-0.420405 l -0.261959,-0.01476 v 0.434264 0.434255 h 0.263462 c 0.232994,0 0.274561,-0.01107 0.359452,-0.09598 z m 1.104729,1.584304 c -0.03322,-0.03322 -0.04491,-0.394727 -0.04491,-1.394828 0,-1.000109 0.0116,-1.361592 0.04491,-1.394837 0.03146,-0.03155 0.240992,-0.04491 0.703025,-0.04491 0.462034,0 0.671529,0.01336 0.703025,0.04491 0.05818,0.05818 0.05818,0.375605 0,0.433781 -0.02979,0.02988 -0.192789,0.04491 -0.48613,0.04491 h -0.441259 v 0.336551 0.336551 h 0.385166 c 0.249717,0 0.400949,0.01582 0.430037,0.04491 0.02469,0.02469 0.04491,0.113865 0.04491,0.198194 0,0.08428 -0.02021,0.173508 -0.04491,0.198194 -0.02909,0.02909 -0.18032,0.04491 -0.430037,0.04491 h -0.385166 v 0.336551 0.33656 h 0.461638 c 0.4124,0 0.468783,0.0079 0.528567,0.07399 0.0508,0.05615 0.06187,0.111484 0.04605,0.22976 -0.01151,0.08568 -0.04324,0.16995 -0.07048,0.187236 -0.0812,0.0515 -1.391796,0.04034 -1.444409,-0.0123 z m 1.965112,0.0044 c -0.06046,-0.03524 -0.06547,-0.143173 -0.06547,-1.415866 0,-1.547052 -0.02584,-1.423152 0.296416,-1.423152 0.122407,0 0.196445,0.02048 0.236685,0.06547 0.03225,0.03603 0.240956,0.433333 0.463888,0.882976 l 0.405317,0.81754 0.01011,-0.853175 c 0.007,-0.62534 0.02241,-0.860979 0.05607,-0.882404 0.07206,-0.04578 0.381343,-0.03533 0.431188,0.0145 0.03322,0.03322 0.04491,0.396098 0.04491,1.400997 0,1.302484 -0.0026,1.357654 -0.07232,1.394827 -0.09971,0.05334 -0.34939,0.0486 -0.42219,-0.0079 -0.03304,-0.02575 -0.25412,-0.43378 -0.49128,-0.906825 l -0.431197,-0.860083 -0.0018,0.868115 c -0.0018,0.818902 -0.0062,0.870312 -0.07435,0.906825 -0.0916,0.04904 -0.300274,0.04816 -0.385755,-0.0018 z m 2.865679,-0.04948 c -0.20982,-0.0977 -0.34163,-0.246229 -0.469688,-0.529253 -0.07136,-0.157708 -0.08586,-0.265861 -0.09865,-0.735171 -0.01301,-0.477114 -0.0044,-0.584098 0.06231,-0.804851 0.0898,-0.295652 0.273102,-0.533084 0.50505,-0.654208 0.235007,-0.122723 0.693385,-0.118399 0.919762,0.0088 0.200487,0.112556 0.400817,0.363996 0.434949,0.545932 0.03172,0.169089 -0.0088,0.208089 -0.238372,0.230156 -0.177736,0.01705 -0.186164,0.01336 -0.267039,-0.117486 -0.116088,-0.187833 -0.215866,-0.247257 -0.415194,-0.247257 -0.320329,0 -0.446787,0.218749 -0.475594,0.82269 -0.02478,0.519252 0.03208,0.796731 0.196982,0.961636 0.21316,0.21316 0.523276,0.151882 0.684667,-0.135281 0.08094,-0.143946 0.09634,-0.153244 0.254472,-0.153244 0.191866,0 0.313008,0.05167 0.313008,0.133445 0,0.09389 -0.173571,0.402689 -0.286328,0.509418 -0.277453,0.262601 -0.758372,0.333335 -1.120364,0.164791 z m 1.883481,0.04948 c -0.06046,-0.03515 -0.06547,-0.142119 -0.06547,-1.393694 0,-1.004477 0.0116,-1.367199 0.04491,-1.400452 0.02469,-0.0247 0.134481,-0.04491 0.243996,-0.04491 0.179327,0 0.202738,0.0095 0.235587,0.09592 0.02109,0.05545 0.03647,0.630894 0.03647,1.364914 0,1.21914 -0.0026,1.271938 -0.07479,1.343788 -0.08182,0.08181 -0.307639,0.100243 -0.420687,0.03436 z m 0.894461,-0.0062 c -0.05923,-0.04332 -0.03594,-0.148314 0.307252,-1.384976 0.204222,-0.735971 0.391757,-1.362761 0.416741,-1.392868 0.06195,-0.0747 0.49621,-0.07558 0.570643,-8.79e-4 0.02944,0.02944 0.158315,0.429123 0.286328,0.888125 0.128023,0.45901 0.298139,1.06173 0.378048,1.339385 0.13348,0.463808 0.140229,0.508636 0.08313,0.551573 -0.08516,0.06406 -0.366632,0.05914 -0.433359,-0.0079 -0.02988,-0.02988 -0.0834,-0.172893 -0.118883,-0.317859 l -0.06459,-0.263558 h -0.402724 -0.402725 l -0.06951,0.267891 c -0.03823,0.147338 -0.09197,0.29037 -0.119454,0.317859 -0.0631,0.0631 -0.346112,0.06512 -0.430934,0.0035 z m 1.274266,-1.121761 c -0.0097,-0.02566 -0.06608,-0.24419 -0.125536,-0.485523 -0.05941,-0.241326 -0.117441,-0.439054 -0.128971,-0.439388 -0.01151,-3.34e-4 -0.07997,0.218152 -0.152049,0.485524 l -0.13108,0.48613 h 0.277584 c 0.206481,0 0.273093,-0.01195 0.260052,-0.04675 z m -1.261902,-3.017297 c -0.558138,-0.08225 -1.241672,-0.364497 -1.671559,-0.690265 -0.910552,-0.690019 -1.433337,-1.76168 -1.431737,-2.934938 8.7e-4,-0.632194 0.153279,-1.194498 0.47562,-1.754772 0.917933,-1.5955 2.913301,-2.238503 4.556695,-1.468383 1.002237,0.469662 1.698178,1.283046 2.005422,2.343845 0.07514,0.259296 0.08524,0.374892 0.0834,0.949649 -0.0018,0.603651 -0.01011,0.68029 -0.104523,0.988017 -0.390211,1.271454 -1.30462,2.156451 -2.556143,2.473923 -0.390325,0.09901 -1.022159,0.142277 -1.357145,0.09292 z m 1.177942,-0.7151 c 0.816222,-0.195848 1.549126,-0.784498 1.920908,-1.542843 0.20069,-0.409376 0.266986,-0.674314 0.29255,-1.169074 0.02522,-0.488697 -0.02179,-0.807962 -0.17901,-1.21573 -0.478617,-1.24111 -1.741942,-2.004394 -3.078506,-1.860008 -1.89095,0.204284 -3.075017,2.150703 -2.413418,3.967299 0.153138,0.420484 0.34671,0.71676 0.689949,1.056009 0.74134,0.732737 1.744525,1.009803 2.767527,0.764347 z m -0.833271,-0.616666 c -0.09625,-0.04042 -0.128567,-0.08401 -0.165863,-0.22345 -0.04192,-0.15668 -0.06486,-0.181963 -0.240894,-0.265238 -0.314757,-0.148902 -0.536231,-0.454098 -0.536231,-0.738923 0,-0.09787 0.02759,-0.151978 0.115052,-0.225569 0.06327,-0.05325 0.139842,-0.09681 0.170134,-0.09681 0.122284,0 0.270721,0.11455 0.312507,0.241193 0.06582,0.199547 0.23245,0.319757 0.442885,0.31959 0.318958,-2.54e-4 0.529815,-0.219856 0.477729,-0.497519 -0.03744,-0.199706 -0.186972,-0.309142 -0.546037,-0.399701 -0.679729,-0.171426 -0.969739,-0.495797 -0.971452,-1.086583 -6.68e-4,-0.22998 0.01714,-0.318562 0.09596,-0.476692 0.106079,-0.21287 0.335259,-0.431777 0.523189,-0.499734 0.09813,-0.0355 0.124375,-0.06881 0.142259,-0.180635 0.02786,-0.174353 0.140281,-0.276899 0.303526,-0.276899 0.158419,0 0.271705,0.09856 0.302603,0.26326 0.01925,0.102651 0.05246,0.13862 0.180258,0.195144 0.474583,0.209926 0.745462,0.781001 0.491104,1.035358 -0.18401,0.18401 -0.42436,0.08779 -0.52115,-0.208643 -0.06345,-0.194266 -0.257882,-0.308781 -0.487897,-0.287338 -0.344249,0.03208 -0.531335,0.362695 -0.375631,0.663778 0.0696,0.134675 0.218899,0.214768 0.560292,0.300678 0.364663,0.09176 0.439721,0.124789 0.596568,0.262504 0.5474,0.480621 0.420739,1.362506 -0.244076,1.699391 -0.152084,0.07707 -0.176997,0.106694 -0.197491,0.234866 -0.03656,0.228504 -0.220199,0.335075 -0.427348,0.247969 z M 4.7089241,18.601215 C 3.7775274,17.667912 3.7458294,17.631328 3.7458294,17.489517 c 0,-0.141872 0.031373,-0.178017 0.9637186,-1.110363 0.9195594,-0.919559 0.9701866,-0.963727 1.1048527,-0.963727 0.191937,0 0.324705,0.132074 0.324705,0.323017 0,0.130343 -0.040776,0.180478 -0.6249267,0.768293 L 4.8892435,17.135601 H 7.423021 9.9567898 l 0.09179,0.09178 c 0.212799,0.2128 0.05862,0.544552 -0.2524167,0.543261 -1.495511,-0.0062 -4.9284863,0.01643 -4.9284863,0.03252 0,0.01186 0.2860732,0.309291 0.6357095,0.66101 0.5948193,0.598334 0.6357183,0.648461 0.6357183,0.778988 0,0.191304 -0.1326977,0.323088 -0.3253289,0.323088 -0.1355273,0 -0.1840103,-0.04236 -1.1048527,-0.965055 z M 8.773751,15.174058 c -0.091359,-0.09136 -0.09179,-0.09527 -0.09179,-0.843087 0,-0.747808 4.306e-4,-0.751719 0.09179,-0.843078 0.084628,-0.08463 0.1196124,-0.09179 0.4487377,-0.09179 h 0.3569566 v -0.520816 c 0,-0.51811 5.097e-4,-0.521221 0.09853,-0.598317 0.08454,-0.06653 0.1508447,-0.07751 0.4674387,-0.07751 h 0.368899 V 9.9183704 7.637272 h -0.221042 c -0.200927,0 -0.229857,-0.010458 -0.3178596,-0.1150515 C 9.8807216,7.4096911 9.8786037,7.3949274 9.8786037,6.8491096 V 6.291059 H 9.3758555 c -0.4764109,0 -0.5081968,-0.00439 -0.6068148,-0.089523 -0.082343,-0.07083 -0.1040754,-0.1215365 -0.1040754,-0.2425814 0,-0.085682 0.024343,-0.1768393 0.055276,-0.2070873 0.030406,-0.029703 0.8545639,-0.5034513 1.8315087,-1.0527492 0.976935,-0.5492978 2.281089,-1.2846008 2.898107,-1.6340174 2.223775,-1.259318 2.109778,-1.2000346 2.21518,-1.1520086 0.08753,0.039897 0.595936,0.3239667 4.254145,2.3772031 0.740427,0.4155721 1.610906,0.9031963 1.934415,1.0835947 0.323501,0.1803985 0.607017,0.3506909 0.630033,0.3784255 0.02302,0.027682 0.0435,0.1102006 0.04561,0.1832721 0.0079,0.2684535 -0.22766,0.363407 -0.871191,0.351596 l -0.355251,-0.00615 -0.01028,0.6015244 c -0.01019,0.5985102 -0.01072,0.6019112 -0.107881,0.6783046 -0.07092,0.055803 -0.152497,0.076806 -0.298244,0.076806 h -0.200628 v 2.2810985 2.28109 l 0.383302,8.79e-4 c 0.55878,0.0018 0.588967,0.03893 0.588967,0.725548 v 0.469899 h 0.338256 c 0.309273,0 0.346121,0.0079 0.430046,0.09179 0.09145,0.09144 0.09178,0.09462 0.09178,0.853562 0,0.747922 -0.0018,0.763257 -0.08656,0.843087 l -0.08656,0.08129 H 15.605262 8.8655321 Z M 21.882387,14.330971 V 14.031812 H 15.600033 9.3176794 v 0.299159 0.299167 h 6.2823536 6.282354 z m -0.860083,-1.215335 v -0.280457 h -5.403579 -5.40357 v 0.280457 0.280467 h 5.40357 5.403579 z M 12.122301,9.9183704 V 7.637272 H 11.636162 11.150031 V 9.9183704 12.19946 h 0.486131 0.486139 z m 2.318482,0 V 7.637272 h -0.822681 -0.82269 V 9.9183704 12.19946 h 0.82269 0.822681 z m 1.645486,2.2343466 c -5.3e-5,-0.01547 -1.06e-4,-1.037713 -1.06e-4,-2.2717392 V 7.637272 h -0.504831 -0.504831 v 2.282153 2.282145 l 0.504937,-0.01037 c 0.277716,-0.0062 0.504892,-0.02303 0.504831,-0.0384 z M 18.442047,9.9183704 V 7.637272 h -0.860601 -0.86061 l 0.0044,2.2810984 0.0044,2.2810896 h 0.856347 0.856357 z m 1.570586,0 V 7.637272 h -0.47678 -0.476789 l 0.0091,2.2717481 c 0.0053,1.2494579 0.0091,2.2759489 0.0093,2.2810899 1.5e-4,0.0053 0.210647,0.0093 0.467737,0.0093 h 0.46743 z m 0.635718,-3.271796 V 6.291595 l -5.048318,-0.00958 -5.048327,-0.00958 v 0.3646021 l 9e-6,0.3646021 h 5.048318 5.048318 z M 19.618372,4.8628899 C 18.878842,4.4476078 17.670459,3.7685036 16.933073,3.3537576 L 15.59237,2.5996748 12.987902,4.0650959 c -1.432457,0.8059843 -2.638125,1.4845876 -2.679261,1.5079987 -0.05616,0.031988 1.258896,0.042885 5.289775,0.043764 l 5.364561,8.788e-4 z M 3.6138963,14.516387 C 2.8009608,14.410071 2.0639354,14.036321 1.4969299,13.442846 0.7913564,12.704327 0.4599024,11.808793 0.5038595,10.759753 0.5254778,10.244569 0.5709114,10.025671 0.7558532,9.5460525 1.1366954,8.5584834 2.0711678,7.7378234 3.1507992,7.4427777 3.5713364,7.327858 4.5143595,7.3201774 4.9237712,7.4283655 5.5750265,7.600433 6.121565,7.9132215 6.5906906,8.3823383 c 0.6769512,0.67696 0.9978158,1.4059357 1.0346723,2.3506727 0.023112,0.592174 -0.024518,0.936845 -0.1955927,1.416262 -0.5654237,1.584286 -2.1735783,2.581882 -3.8158739,2.367123 z M 4.8863698,13.770064 C 5.8558621,13.461011 6.5868942,12.730269 6.8877927,11.769423 7.0012623,11.40708 7.0305525,10.716551 6.9491324,10.323002 6.7629075,9.4226613 6.1757864,8.6757495 5.3379987,8.2734033 4.8737591,8.0504449 4.6258782,7.9964167 4.0636709,7.9956258 c -0.3944634,-5.536e-4 -0.5421532,0.015291 -0.7831796,0.0841 -1.8174125,0.5188389 -2.680527,2.5360272 -1.814407,4.2404452 0.3831797,0.75403 1.1126475,1.316387 1.9568329,1.508535 0.3491002,0.07944 1.1281231,0.04825 1.463435,-0.0587 z M 3.9335394,13.162002 C 3.8292531,13.108219 3.7472091,12.96981 3.746383,12.846278 3.74597,12.785378 3.7038495,12.745322 3.5850016,12.692744 3.1159023,12.485244 2.8415874,11.948029 3.0870077,11.717469 c 0.1361776,-0.127934 0.3112594,-0.116818 0.4406264,0.02795 0.058264,0.06529 0.1060087,0.142118 0.1060087,0.17082 0,0.02865 0.051761,0.09573 0.1150514,0.14899 0.091509,0.07698 0.1548696,0.09681 0.309537,0.09681 0.218749,0 0.3324735,-0.06134 0.4170133,-0.224787 0.073731,-0.142524 0.070743,-0.297939 -0.00791,-0.411962 C 4.3678297,11.380909 4.3066394,11.347129 4.0282468,11.28288 3.5017361,11.161361 3.2326147,10.973906 3.069757,10.615261 2.9654795,10.385615 2.9733447,9.9912662 3.0870692,9.7470147 3.1896945,9.5266136 3.3964831,9.3122235 3.5974805,9.21785 3.7131735,9.163541 3.7422703,9.12722 3.7607161,9.0142163 3.7863771,8.857097 3.9302439,8.7216927 4.0715361,8.7216927 c 0.1170464,0 0.3099325,0.1913922 0.3099325,0.3075333 0,0.068019 0.038579,0.1076609 0.164132,0.1686491 0.3574663,0.1736757 0.5837728,0.4799435 0.5837728,0.7900605 0,0.1180744 -0.023288,0.1814354 -0.09179,0.2499554 C 4.8657182,10.409756 4.649175,10.334215 4.5318387,10.061455 4.3960477,9.745802 4.0820201,9.6382027 3.8172752,9.8166238 3.6620278,9.9212441 3.5974541,10.042192 3.5967247,10.229718 c -7.558e-4,0.197869 0.1457916,0.33844 0.4333149,0.415642 0.643891,0.172876 0.8672888,0.311708 1.018195,0.632739 0.2446293,0.520439 0.061252,1.098605 -0.4317858,1.361399 -0.2032646,0.108338 -0.2275369,0.13413 -0.2482676,0.263734 -0.037085,0.231949 -0.2457894,0.356157 -0.4347121,0.258734 z M 25.185424,12.670871 c -0.08252,-0.07092 -0.104067,-0.121449 -0.104067,-0.243505 0,-0.149377 0.01898,-0.173025 0.634453,-0.789269 l 0.634453,-0.63527 H 24.048047 21.74584 l -0.08129,-0.08656 c -0.121369,-0.129192 -0.11259,-0.36955 0.01723,-0.471666 0.09724,-0.07645 0.128479,-0.07751 2.383513,-0.07751 h 2.284991 L 25.726461,9.7407226 c -0.35773,-0.35918 -0.633592,-0.6668627 -0.64673,-0.7213127 -0.05264,-0.218081 0.167252,-0.4406791 0.387495,-0.3923016 0.06749,0.014852 0.419746,0.3406199 1.047872,0.9691057 0.885515,0.886025 0.946494,0.955695 0.950176,1.08566 0.0035,0.133357 -0.03462,0.177367 -0.967928,1.108684 -0.859687,0.857869 -0.985486,0.969809 -1.089852,0.969809 -0.07057,0 -0.159826,-0.03603 -0.222053,-0.08951 z"
       id="path3" /></g></svg>
