<svg
   width="100%"
   height="100%"
   viewBox="0 0 31 31"
   xml:space="preserve"><defs
     id="defs1" /><g
     id="g1"><path
       id="path4"
       style="fill:currentColor;stroke-width:0.0506971"
       d="m 4.0345016,9.0360702 c -0.97487,0 -0.9213548,-0.053441 -0.9213548,0.9203724 V 10.709082 H 1.8051209 c -0.94972842,0 -1.32465542,0.01664 -1.36882662,0.0608 -0.091094,0.0911 -0.084694,1.580019 0.00747,1.65618 0.047041,0.03904 0.75642482,0.06048 2.30603232,0.06965 l 2.2380954,0.01312 -0.6688611,0.912555 C 3.951162,13.923284 2.8792348,15.380432 1.9369518,16.659466 l -1.71320402,2.325531 2.027e-4,0.386767 c 1.493e-4,0.298457 0.023574,0.425093 0.1025078,0.554598 0.1748501,0.286809 0.3141904,0.313785 1.61943232,0.313785 h 1.1676189 v 0.769172 c 0,0.644541 0.013547,0.784159 0.083841,0.861845 0.073921,0.08171 0.171298,0.09269 0.8198709,0.09269 0.9772487,0 0.9213547,0.05739 0.9213547,-0.945718 V 20.240154 H 6.18066 c 1.5595168,0 1.4448702,0.06997 1.4448702,-0.881557 0,-0.571345 -0.01408,-0.695976 -0.088748,-0.787294 -0.088534,-0.108279 -0.092908,-0.108492 -2.3320699,-0.0944 -1.2338491,0.0075 -2.2430022,0.0032 -2.2425542,-0.0112 4.587e-4,-0.01397 0.202477,-0.299118 0.4489546,-0.633714 C 7.4854325,12.300844 7.8775651,11.750032 7.8783011,11.556643 7.8792504,11.30335 7.7758999,11.073022 7.5777749,10.886492 L 7.4162797,10.734394 6.1773746,10.719247 4.9385548,10.703993 V 9.9627476 c 0,-0.9793821 0.051414,-0.9267094 -0.9037332,-0.9267094 z M 21.125869,10.050013 c -0.66293,0 -0.733886,0.0085 -0.828777,0.103787 -0.103148,0.103148 -0.103682,0.128461 -0.08875,4.397972 l 0.01504,4.294204 0.114465,0.282894 c 0.224056,0.553639 0.644605,0.904875 1.237423,1.033549 0.17662,0.03829 0.519451,0.07147 0.761843,0.07371 0.577842,0.0053 0.584978,-0.0043 0.595399,-0.809567 0.0096,-0.762217 -0.01205,-0.808681 -0.38122,-0.808681 -0.2334,0 -0.299001,-0.02101 -0.397658,-0.127436 -0.06496,-0.07008 -0.132268,-0.198424 -0.149613,-0.285166 -0.01739,-0.08672 -0.03157,-1.929826 -0.03157,-4.095675 0,-2.995213 -0.01451,-3.952462 -0.0608,-3.998734 -0.0416,-0.0416 -0.289539,-0.0608 -0.785801,-0.0608 z m -3.442749,0.01131 c -0.744724,0.01387 -0.752777,0.01536 -0.817887,0.140802 -0.05269,0.101548 -0.06293,0.972491 -0.05141,4.385299 l 0.0144,4.258556 0.119415,0.298148 c 0.21212,0.529691 0.65973,0.906165 1.221091,1.027105 0.352495,0.07595 1.091672,0.08587 1.221487,0.01643 0.0896,-0.048 0.09803,-0.112311 0.09803,-0.750355 0,-0.475163 -0.01941,-0.717246 -0.0608,-0.758676 -0.03349,-0.03349 -0.165261,-0.0608 -0.2929,-0.0608 -0.28971,0 -0.43849,-0.101014 -0.505883,-0.343684 -0.03403,-0.122348 -0.05248,-1.580189 -0.05269,-4.149445 -2.35e-4,-3.313116 -0.01173,-3.970372 -0.07051,-4.01913 -0.04779,-0.03968 -0.310959,-0.05387 -0.822442,-0.04427 z m 14.538388,1.607944 c -0.0043,0.0064 -0.0096,0.01301 -0.01397,0.01952 0.01557,0.01067 0.01269,0.02517 0.01621,-0.01547 -8e-4,-0.0011 -0.0011,-0.0032 -0.0021,-0.0043 z m -1.693012,0.114167 c -0.0011,0.0032 -0.0021,0.0064 -0.0043,0.0096 0.0021,-0.001 0.0053,-0.0021 0.0075,-0.0032 -0.0011,-0.0021 -0.0021,-0.0043 -0.0043,-0.0064 z m -18.462359,0.603314 c -0.670515,-0.01312 -1.352528,0.131767 -1.956791,0.436272 -0.9306777,0.468997 -1.6476568,1.371088 -1.9352121,2.434951 -0.1507111,0.557702 -0.1508391,1.598717 -2.987e-4,2.155715 0.2898701,1.072301 0.9867955,1.945591 1.9277778,2.415741 0.46105,0.23036 0.659079,0.29804 1.141282,0.389732 0.520785,0.09899 1.56692,0.06133 2.08571,-0.07509 0.692264,-0.18205 1.468561,-0.632221 1.924406,-1.115938 l 0.150125,-0.159213 -0.554801,-0.556486 c -0.305113,-0.306063 -0.579676,-0.556476 -0.610151,-0.556476 -0.03051,0 -0.110732,0.06027 -0.178328,0.133964 -0.200621,0.218669 -0.701651,0.519718 -1.037708,0.623517 -1.235406,0.381583 -2.383612,-0.03371 -2.861409,-1.034828 -0.2552782,-0.534876 -0.5347055,-0.48311 2.610206,-0.48311 3.2791,0 2.966125,0.0736 2.96508,-0.697086 -9.49e-4,-0.70804 -0.145282,-1.350394 -0.434981,-1.935403 -0.192482,-0.388709 -0.313401,-0.554172 -0.648264,-0.8872 -0.226402,-0.225155 -0.540902,-0.485072 -0.698877,-0.577671 -0.558268,-0.327236 -1.217252,-0.49832 -1.887766,-0.51143 z m 15.05209,0.02155 c -0.778238,8.21e-4 -0.829204,0.0075 -1.255353,0.158924 -0.80657,0.287033 -1.384656,0.725289 -1.856086,1.407238 -0.538726,0.779294 -0.745107,1.531111 -0.702931,2.561001 0.02997,0.731624 0.129708,1.112695 0.458854,1.752809 0.253667,0.49335 0.902655,1.167811 1.403675,1.458833 0.342436,0.198904 0.942176,0.411333 1.38872,0.491921 0.377636,0.06816 1.46919,0.02229 1.855894,-0.07798 0.679954,-0.176247 1.429659,-0.599228 1.874304,-1.057505 l 0.226659,-0.233582 -0.555292,-0.556977 c -0.305422,-0.306371 -0.575196,-0.557073 -0.599452,-0.557073 -0.02432,0 -0.16156,0.106135 -0.305081,0.235854 -0.712179,0.643655 -1.863361,0.835529 -2.703872,0.450735 -0.493531,-0.225944 -0.946443,-0.771998 -1.105634,-1.332975 l -0.03243,-0.114071 h 2.724384 c 2.463932,0 2.733301,-0.0075 2.817152,-0.08384 0.07936,-0.07179 0.09259,-0.165143 0.09184,-0.646386 -0.001,-0.639005 -0.08758,-1.123981 -0.285966,-1.601811 -0.448939,-1.081423 -1.184969,-1.772525 -2.277697,-2.138588 -0.308857,-0.103467 -0.446906,-0.117302 -1.161677,-0.116545 z m -0.04171,1.605672 c 0.622802,-0.02869 0.944043,0.07115 1.312186,0.407653 0.25515,0.233197 0.484848,0.606225 0.554598,0.900863 l 0.02997,0.126743 h -1.852822 c -1.019009,0 -1.852725,-0.01643 -1.852714,-0.03659 3.2e-5,-0.133964 0.284878,-0.635069 0.478949,-0.842538 0.339097,-0.362532 0.736766,-0.528881 1.329808,-0.556188 z m -14.886638,0.0043 c 0.476198,0.03264 0.916864,0.213731 1.179705,0.484891 0.187693,0.193635 0.418917,0.609757 0.448741,0.807594 l 0.01717,0.114561 -1.887872,0.01216 c -1.866731,0.01205 -1.887574,0.01109 -1.858465,-0.08917 0.252707,-0.870165 1.088621,-1.399376 2.100665,-1.33001 z" /></g></svg>
