<svg width="100%" height="100%" viewBox="0 0 235 86" fill="none" xmlns="http://www.w3.org/2000/svg">
<path d="M107.144 33V16.136H109.768L109.896 18.152C110.259 17.64 110.664 17.224 111.112 16.904C111.581 16.584 112.093 16.3493 112.648 16.2C113.224 16.0293 113.832 15.944 114.472 15.944C115.645 15.944 116.595 16.2 117.32 16.712C118.045 17.2027 118.589 17.8533 118.952 18.664C119.336 18.088 119.773 17.5973 120.264 17.192C120.776 16.7867 121.341 16.4773 121.96 16.264C122.6 16.0507 123.304 15.944 124.072 15.944C125.309 15.944 126.301 16.2107 127.048 16.744C127.816 17.2773 128.371 18.0027 128.712 18.92C129.053 19.816 129.224 20.8293 129.224 21.96V33H126.504V23.336C126.504 22.7813 126.472 22.216 126.408 21.64C126.365 21.064 126.237 20.5307 126.024 20.04C125.811 19.528 125.491 19.1227 125.064 18.824C124.659 18.504 124.083 18.344 123.336 18.344C122.632 18.344 122.035 18.5147 121.544 18.856C121.075 19.176 120.691 19.6133 120.392 20.168C120.093 20.7227 119.88 21.32 119.752 21.96C119.624 22.5787 119.56 23.1973 119.56 23.816V33H116.84V23.304C116.84 22.7707 116.808 22.216 116.744 21.64C116.701 21.064 116.584 20.5307 116.392 20.04C116.221 19.528 115.923 19.1227 115.496 18.824C115.091 18.504 114.525 18.344 113.8 18.344C112.776 18.344 111.976 18.6427 111.4 19.24C110.824 19.816 110.419 20.5307 110.184 21.384C109.971 22.216 109.864 23.0373 109.864 23.848V33H107.144ZM133.363 33V16.136H136.083V33H133.363ZM134.707 13.64C134.152 13.64 133.704 13.4693 133.363 13.128C133.043 12.7867 132.883 12.3493 132.883 11.816C132.883 11.2827 133.053 10.856 133.395 10.536C133.736 10.1947 134.173 10.024 134.707 10.024C135.197 10.024 135.624 10.1947 135.987 10.536C136.371 10.8773 136.563 11.304 136.563 11.816C136.563 12.3493 136.381 12.7867 136.019 13.128C135.656 13.4693 135.219 13.64 134.707 13.64ZM140.363 33V10.376H143.083V33H140.363ZM154.659 33.192C152.867 33.192 151.384 32.8293 150.211 32.104C149.037 31.3573 148.163 30.3333 147.587 29.032C147.011 27.7307 146.723 26.248 146.723 24.584C146.723 22.8987 147.021 21.416 147.619 20.136C148.237 18.8347 149.133 17.8107 150.307 17.064C151.48 16.3173 152.92 15.944 154.627 15.944C155.949 15.944 157.08 16.2 158.019 16.712C158.979 17.2027 159.768 17.864 160.387 18.696C161.005 19.528 161.453 20.4453 161.731 21.448C162.008 22.4293 162.125 23.4213 162.083 24.424C162.061 24.616 162.04 24.808 162.019 25C162.019 25.192 162.008 25.384 161.987 25.576H149.475C149.56 26.5573 149.805 27.4427 150.211 28.232C150.616 29.0213 151.192 29.6507 151.939 30.12C152.685 30.568 153.613 30.792 154.723 30.792C155.277 30.792 155.832 30.728 156.387 30.6C156.963 30.4507 157.475 30.2053 157.923 29.864C158.392 29.5227 158.723 29.064 158.915 28.488H161.699C161.443 29.576 160.963 30.472 160.259 31.176C159.555 31.8587 158.712 32.3707 157.731 32.712C156.749 33.032 155.725 33.192 154.659 33.192ZM149.539 23.208H159.299C159.277 22.248 159.064 21.4053 158.659 20.68C158.253 19.9547 157.699 19.3893 156.995 18.984C156.312 18.5787 155.491 18.376 154.531 18.376C153.485 18.376 152.6 18.6 151.875 19.048C151.171 19.496 150.627 20.0827 150.243 20.808C149.859 21.5333 149.624 22.3333 149.539 23.208ZM165.707 33V16.136H168.331L168.459 18.696C168.843 18.0773 169.333 17.5653 169.931 17.16C170.528 16.7547 171.179 16.456 171.883 16.264C172.608 16.0507 173.312 15.944 173.995 15.944C175.637 15.944 176.917 16.2853 177.835 16.968C178.773 17.6507 179.435 18.5787 179.819 19.752C180.224 20.904 180.427 22.216 180.427 23.688V33H177.707V24.424C177.707 23.6347 177.653 22.8773 177.547 22.152C177.461 21.4267 177.269 20.776 176.971 20.2C176.693 19.624 176.288 19.176 175.755 18.856C175.221 18.5147 174.507 18.344 173.611 18.344C172.501 18.344 171.552 18.6533 170.763 19.272C169.995 19.8907 169.408 20.7227 169.003 21.768C168.619 22.8133 168.427 23.9867 168.427 25.288V33H165.707ZM184.613 33V16.136H187.333V33H184.613ZM185.957 13.64C185.402 13.64 184.954 13.4693 184.613 13.128C184.293 12.7867 184.133 12.3493 184.133 11.816C184.133 11.2827 184.303 10.856 184.645 10.536C184.986 10.1947 185.423 10.024 185.957 10.024C186.447 10.024 186.874 10.1947 187.237 10.536C187.621 10.8773 187.813 11.304 187.813 11.816C187.813 12.3493 187.631 12.7867 187.269 13.128C186.906 13.4693 186.469 13.64 185.957 13.64ZM198.653 33.192C196.327 33.192 194.557 32.5733 193.341 31.336C192.146 30.0987 191.549 28.2 191.549 25.64V16.136H194.269V25.512C194.269 26.6213 194.429 27.5707 194.749 28.36C195.069 29.1493 195.549 29.7573 196.189 30.184C196.85 30.5893 197.671 30.792 198.653 30.792C199.677 30.792 200.519 30.5893 201.181 30.184C201.842 29.7573 202.322 29.1493 202.621 28.36C202.941 27.5707 203.101 26.6213 203.101 25.512V16.136H205.821V25.64C205.821 28.2 205.202 30.0987 203.965 31.336C202.749 32.5733 200.978 33.192 198.653 33.192ZM210.05 33V16.136H212.674L212.802 18.152C213.165 17.64 213.57 17.224 214.018 16.904C214.488 16.584 215 16.3493 215.554 16.2C216.13 16.0293 216.738 15.944 217.378 15.944C218.552 15.944 219.501 16.2 220.226 16.712C220.952 17.2027 221.496 17.8533 221.858 18.664C222.242 18.088 222.68 17.5973 223.17 17.192C223.682 16.7867 224.248 16.4773 224.866 16.264C225.506 16.0507 226.21 15.944 226.978 15.944C228.216 15.944 229.208 16.2107 229.954 16.744C230.722 17.2773 231.277 18.0027 231.618 18.92C231.96 19.816 232.13 20.8293 232.13 21.96V33H229.41V23.336C229.41 22.7813 229.378 22.216 229.314 21.64C229.272 21.064 229.144 20.5307 228.93 20.04C228.717 19.528 228.397 19.1227 227.97 18.824C227.565 18.504 226.989 18.344 226.242 18.344C225.538 18.344 224.941 18.5147 224.45 18.856C223.981 19.176 223.597 19.6133 223.298 20.168C223 20.7227 222.786 21.32 222.658 21.96C222.53 22.5787 222.466 23.1973 222.466 23.816V33H219.746V23.304C219.746 22.7707 219.714 22.216 219.65 21.64C219.608 21.064 219.49 20.5307 219.298 20.04C219.128 19.528 218.829 19.1227 218.402 18.824C217.997 18.504 217.432 18.344 216.706 18.344C215.682 18.344 214.882 18.6427 214.306 19.24C213.73 19.816 213.325 20.5307 213.09 21.384C212.877 22.216 212.77 23.0373 212.77 23.848V33H210.05ZM107.144 74V57.136H109.768L109.896 59.152C110.259 58.64 110.664 58.224 111.112 57.904C111.581 57.584 112.093 57.3493 112.648 57.2C113.224 57.0293 113.832 56.944 114.472 56.944C115.645 56.944 116.595 57.2 117.32 57.712C118.045 58.2027 118.589 58.8533 118.952 59.664C119.336 59.088 119.773 58.5973 120.264 58.192C120.776 57.7867 121.341 57.4773 121.96 57.264C122.6 57.0507 123.304 56.944 124.072 56.944C125.309 56.944 126.301 57.2107 127.048 57.744C127.816 58.2773 128.371 59.0027 128.712 59.92C129.053 60.816 129.224 61.8293 129.224 62.96V74H126.504V64.336C126.504 63.7813 126.472 63.216 126.408 62.64C126.365 62.064 126.237 61.5307 126.024 61.04C125.811 60.528 125.491 60.1227 125.064 59.824C124.659 59.504 124.083 59.344 123.336 59.344C122.632 59.344 122.035 59.5147 121.544 59.856C121.075 60.176 120.691 60.6133 120.392 61.168C120.093 61.7227 119.88 62.32 119.752 62.96C119.624 63.5787 119.56 64.1973 119.56 64.816V74H116.84V64.304C116.84 63.7707 116.808 63.216 116.744 62.64C116.701 62.064 116.584 61.5307 116.392 61.04C116.221 60.528 115.923 60.1227 115.496 59.824C115.091 59.504 114.525 59.344 113.8 59.344C112.776 59.344 111.976 59.6427 111.4 60.24C110.824 60.816 110.419 61.5307 110.184 62.384C109.971 63.216 109.864 64.0373 109.864 64.848V74H107.144ZM138.771 74.192C138.003 74.192 137.256 74.096 136.531 73.904C135.827 73.6907 135.187 73.3813 134.611 72.976C134.056 72.5493 133.608 72.0267 133.267 71.408C132.947 70.768 132.787 70.032 132.787 69.2C132.787 68.24 132.957 67.4293 133.299 66.768C133.661 66.1067 134.141 65.584 134.739 65.2C135.336 64.816 136.029 64.5387 136.819 64.368C137.608 64.1973 138.429 64.112 139.283 64.112H144.243C144.243 63.152 144.104 62.32 143.827 61.616C143.571 60.912 143.144 60.368 142.547 59.984C141.949 59.5787 141.16 59.376 140.179 59.376C139.581 59.376 139.027 59.44 138.515 59.568C138.003 59.696 137.565 59.8987 137.203 60.176C136.84 60.4533 136.573 60.8267 136.403 61.296H133.491C133.64 60.528 133.928 59.8773 134.355 59.344C134.803 58.7893 135.336 58.3413 135.955 58C136.595 57.6373 137.277 57.3707 138.003 57.2C138.728 57.0293 139.453 56.944 140.179 56.944C142.611 56.944 144.339 57.6587 145.363 59.088C146.387 60.5173 146.899 62.448 146.899 64.88V74H144.627L144.467 71.856C143.997 72.496 143.432 72.9867 142.771 73.328C142.109 73.6693 141.427 73.8933 140.723 74C140.04 74.128 139.389 74.192 138.771 74.192ZM139.027 71.792C140.093 71.792 141.011 71.6213 141.779 71.28C142.568 70.9173 143.176 70.3947 143.603 69.712C144.029 69.0293 144.243 68.1973 144.243 67.216V66.384H141.267C140.563 66.384 139.869 66.3947 139.187 66.416C138.504 66.4373 137.885 66.5227 137.331 66.672C136.776 66.8213 136.328 67.0773 135.987 67.44C135.667 67.8027 135.507 68.3253 135.507 69.008C135.507 69.648 135.667 70.1707 135.987 70.576C136.328 70.9813 136.765 71.2907 137.299 71.504C137.853 71.696 138.429 71.792 139.027 71.792ZM151.113 74V57.136H153.737L153.865 59.696C154.249 59.0773 154.739 58.5653 155.337 58.16C155.934 57.7547 156.585 57.456 157.289 57.264C158.014 57.0507 158.718 56.944 159.401 56.944C161.043 56.944 162.323 57.2853 163.241 57.968C164.179 58.6507 164.841 59.5787 165.225 60.752C165.63 61.904 165.833 63.216 165.833 64.688V74H163.113V65.424C163.113 64.6347 163.059 63.8773 162.953 63.152C162.867 62.4267 162.675 61.776 162.377 61.2C162.099 60.624 161.694 60.176 161.161 59.856C160.627 59.5147 159.913 59.344 159.017 59.344C157.907 59.344 156.958 59.6533 156.169 60.272C155.401 60.8907 154.814 61.7227 154.409 62.768C154.025 63.8133 153.833 64.9867 153.833 66.288V74H151.113ZM170.019 74V57.136H172.739V74H170.019ZM171.363 54.64C170.808 54.64 170.36 54.4693 170.019 54.128C169.699 53.7867 169.539 53.3493 169.539 52.816C169.539 52.2827 169.71 51.856 170.051 51.536C170.392 51.1947 170.83 51.024 171.363 51.024C171.854 51.024 172.28 51.1947 172.643 51.536C173.027 51.8773 173.219 52.304 173.219 52.816C173.219 53.3493 173.038 53.7867 172.675 54.128C172.312 54.4693 171.875 54.64 171.363 54.64ZM182.427 74.192C181.659 74.192 180.912 74.096 180.187 73.904C179.483 73.6907 178.843 73.3813 178.267 72.976C177.712 72.5493 177.264 72.0267 176.923 71.408C176.603 70.768 176.443 70.032 176.443 69.2C176.443 68.24 176.614 67.4293 176.955 66.768C177.318 66.1067 177.798 65.584 178.395 65.2C178.992 64.816 179.686 64.5387 180.475 64.368C181.264 64.1973 182.086 64.112 182.939 64.112H187.899C187.899 63.152 187.76 62.32 187.483 61.616C187.227 60.912 186.8 60.368 186.203 59.984C185.606 59.5787 184.816 59.376 183.835 59.376C183.238 59.376 182.683 59.44 182.171 59.568C181.659 59.696 181.222 59.8987 180.859 60.176C180.496 60.4533 180.23 60.8267 180.059 61.296H177.147C177.296 60.528 177.584 59.8773 178.011 59.344C178.459 58.7893 178.992 58.3413 179.611 58C180.251 57.6373 180.934 57.3707 181.659 57.2C182.384 57.0293 183.11 56.944 183.835 56.944C186.267 56.944 187.995 57.6587 189.019 59.088C190.043 60.5173 190.555 62.448 190.555 64.88V74H188.283L188.123 71.856C187.654 72.496 187.088 72.9867 186.427 73.328C185.766 73.6693 185.083 73.8933 184.379 74C183.696 74.128 183.046 74.192 182.427 74.192ZM182.683 71.792C183.75 71.792 184.667 71.6213 185.435 71.28C186.224 70.9173 186.832 70.3947 187.259 69.712C187.686 69.0293 187.899 68.1973 187.899 67.216V66.384H184.923C184.219 66.384 183.526 66.3947 182.843 66.416C182.16 66.4373 181.542 66.5227 180.987 66.672C180.432 66.8213 179.984 67.0773 179.643 67.44C179.323 67.8027 179.163 68.3253 179.163 69.008C179.163 69.648 179.323 70.1707 179.643 70.576C179.984 70.9813 180.422 71.2907 180.955 71.504C181.51 71.696 182.086 71.792 182.683 71.792Z" fill="white"/>
<rect width="86" height="86" rx="7" fill="#007AFF"/>
<path d="M10.0082 42.7485V5.38129H11.8071H13.6061L13.7925 5.6579C13.895 5.81003 14.0247 6.01021 14.0806 6.10274C14.1366 6.19527 14.3748 6.55122 14.6099 6.89374C14.8451 7.23625 15.0374 7.53931 15.0374 7.56719C15.0374 7.59507 15.1619 7.76401 15.314 7.94261C15.4662 8.1212 15.7603 8.53455 15.9676 8.86115C16.504 9.70613 18.2337 12.297 18.3787 12.4725C18.4244 12.5278 18.8973 13.2294 19.4296 14.0316C19.962 14.8337 20.4269 15.5127 20.4629 15.5404C20.4989 15.568 20.7255 15.9075 20.9665 16.2947C21.2076 16.682 21.4339 17.0215 21.4695 17.0491C21.5051 17.0768 21.7314 17.4163 21.9724 17.8035C22.2134 18.1908 22.4381 18.5302 22.4716 18.5579C22.5287 18.605 23.4118 19.8851 23.6405 20.2522C23.7303 20.3964 24.1939 21.0896 24.6936 21.8269C25.1925 22.5631 25.6568 23.2574 25.7466 23.4015C25.8036 23.493 26.1219 23.9627 26.4538 24.4453C26.7857 24.9278 27.261 25.6297 27.5099 26.005C27.7589 26.3803 28.1549 26.9681 28.3901 27.3113C28.6252 27.6544 28.8175 27.9731 28.8175 28.0193C28.8175 28.0656 28.8762 28.1397 28.9478 28.1839C29.0194 28.2281 29.2118 28.4792 29.3753 28.7419C29.5388 29.0046 29.7065 29.2196 29.748 29.2197C29.7894 29.2198 29.8234 29.2809 29.8234 29.3554C29.8234 29.4299 29.9167 29.5985 30.0309 29.7301C30.145 29.8616 30.3343 30.1401 30.4517 30.349C30.5691 30.5578 30.702 30.7287 30.7472 30.7287C30.7923 30.7287 30.8292 30.7823 30.8292 30.8479C30.8292 30.9135 30.9122 31.0606 31.0135 31.1748C31.1149 31.289 31.3933 31.6993 31.6323 32.0865C31.8713 32.4738 32.0942 32.8133 32.1278 32.8409C32.1848 32.888 33.068 34.1681 33.2967 34.5353C33.3537 34.6268 33.58 34.9677 33.7996 35.2928C34.0192 35.6178 34.2455 35.9573 34.3025 36.0472C34.3596 36.137 34.5859 36.4769 34.8055 36.8025C35.025 37.128 35.2499 37.4628 35.3053 37.5463C35.5613 37.9331 36.2523 38.9581 37.2427 40.4203C37.8368 41.2974 38.3907 42.1169 38.4737 42.2416C38.5567 42.3663 38.8042 42.735 39.0238 43.061C39.2434 43.3871 39.4697 43.7273 39.5267 43.8172C39.5837 43.907 39.8101 44.2465 40.0296 44.5716C40.2492 44.8966 40.4755 45.2365 40.5326 45.3268C40.9167 45.9351 41.349 46.5205 41.4142 46.5205C41.4566 46.5205 41.4912 46.5785 41.4912 46.6495C41.4912 46.7205 41.579 46.8902 41.6863 47.0267C41.7936 47.1632 42.0877 47.5578 42.3399 47.9035C42.6128 48.2776 42.8728 48.5322 42.982 48.5322C43.0976 48.5322 43.3484 48.2618 43.6587 47.8029C43.9298 47.4018 44.18 47.0511 44.2146 47.0234C44.2492 46.9957 44.4088 46.7735 44.5692 46.5296C44.7296 46.2856 44.9287 45.9866 45.0117 45.865C45.3323 45.3955 45.9659 44.4508 46.0647 44.2951C46.1218 44.2053 46.3481 43.8658 46.5676 43.5407C46.7872 43.2157 47.0135 42.8739 47.0706 42.7812C47.3023 42.4047 49.2307 39.5221 49.3176 39.4223C49.3691 39.3632 49.6075 39.0011 49.8473 38.6177C50.0871 38.2342 50.309 37.8978 50.3404 37.8702C50.3717 37.8425 50.5991 37.503 50.8456 37.1158C51.0921 36.7285 51.323 36.3891 51.3586 36.3614C51.4259 36.3091 52.1007 35.3038 52.8249 34.177C53.056 33.8174 53.3389 33.4233 53.4535 33.3013C53.5682 33.1793 53.662 33.0479 53.662 33.0093C53.662 32.9708 53.8544 32.6649 54.0895 32.3296C54.3246 31.9942 54.5636 31.644 54.6207 31.5512C54.6777 31.4584 54.904 31.1157 55.1236 30.7897C55.3432 30.4637 55.5907 30.0923 55.6737 29.9645C55.7567 29.8367 56.4582 28.8005 57.2327 27.6618C58.0073 26.5231 58.6862 25.5139 58.7415 25.4191C58.7968 25.3243 58.8667 25.2242 58.8969 25.1965C59.0144 25.0886 59.7977 23.8614 59.7977 23.7852C59.7977 23.7408 59.8354 23.6894 59.8814 23.671C59.9512 23.643 60.4036 22.9857 60.8507 22.2627C61.0979 21.8629 61.9561 20.6154 62.0155 20.5696C62.0513 20.5419 62.2784 20.2025 62.5202 19.8152C62.762 19.428 63.0193 19.0498 63.092 18.9749C63.1647 18.9 63.3145 18.6736 63.4249 18.472C63.5352 18.2703 63.7035 17.9859 63.7987 17.8401C64.165 17.2794 64.9835 16.0895 65.103 15.9441C65.1719 15.8604 65.4208 15.4918 65.6562 15.1252C65.8916 14.7586 66.2639 14.1928 66.4834 13.8679C66.703 13.543 66.9293 13.2037 66.9864 13.1138C67.0434 13.024 67.2697 12.6845 67.4893 12.3594C67.7089 12.0344 67.9352 11.6949 67.9922 11.605C68.0492 11.5152 68.2768 11.1757 68.4978 10.8507C68.7189 10.5256 68.9228 10.2144 68.9509 10.1591C68.979 10.1037 69.1828 9.79173 69.4039 9.4657C69.625 9.13968 69.8737 8.77238 69.9567 8.64949C70.0397 8.52661 70.2419 8.20494 70.406 7.93467C70.5701 7.6644 70.7624 7.38346 70.8334 7.31036C70.9045 7.23726 70.9626 7.11278 70.9626 7.03375C70.9626 6.95472 70.9973 6.89006 71.0397 6.89006C71.0821 6.89006 71.2656 6.64111 71.4476 6.33684C71.6296 6.03257 71.816 5.78363 71.8617 5.78363C71.9075 5.78363 71.9686 5.6931 71.9976 5.58246C72.0479 5.39015 72.1348 5.38129 73.9707 5.38129H75.8912V42.7485V80.1158H72.069H68.2468L68.2435 66.562C68.24 52.3964 68.1052 32.4555 67.984 28.1889C67.9175 25.8473 67.9021 25.6994 67.7247 25.6994C67.621 25.6994 67.5034 25.7786 67.4633 25.8754C67.4232 25.9722 67.2097 26.3182 66.9888 26.6442C66.3992 27.5144 66.3198 27.6368 65.9333 28.2722C65.7397 28.5905 65.5134 28.9498 65.4304 29.0707C65.3474 29.1916 65.1929 29.4217 65.087 29.5821C64.8604 29.9255 64.6417 30.2562 64.4023 30.6179C64.307 30.7618 64.1387 31.0445 64.0284 31.2462C63.918 31.4479 63.7687 31.6742 63.6967 31.7492C63.6246 31.8241 63.372 32.2022 63.1354 32.5895C62.8988 32.9767 62.6217 33.4067 62.5197 33.545C62.1813 34.004 61.3064 35.3584 61.3064 35.4234C61.3064 35.4586 61.1933 35.6358 61.055 35.8171C60.9167 35.9985 60.8035 36.1673 60.8035 36.1924C60.8035 36.2174 60.6111 36.5188 60.376 36.8622C60.1409 37.2056 59.9033 37.5606 59.848 37.651C59.7926 37.7414 59.5324 38.1509 59.2696 38.5608C59.0068 38.9708 58.7918 39.3256 58.7918 39.3493C58.7918 39.373 58.6787 39.5407 58.5404 39.7221C58.402 39.9034 58.2889 40.0985 58.2889 40.1557C58.2889 40.2128 58.2247 40.3129 58.1462 40.378C58.0677 40.4431 57.8112 40.8221 57.5762 41.2201C57.3412 41.6182 57.1204 41.9665 57.0854 41.9942C57.0505 42.0218 56.8883 42.2647 56.725 42.5339C56.32 43.2014 56.2773 43.2681 55.8214 43.944C55.6019 44.2695 55.377 44.6063 55.3216 44.6924C54.0485 46.6738 53.7345 47.1761 53.6409 47.3815C53.5794 47.5165 53.4983 47.6269 53.4607 47.6269C53.423 47.6269 53.2697 47.8419 53.12 48.1047C52.8643 48.5535 52.7676 48.7086 52.3292 49.3721L51.9772 49.9051C51.8804 50.0516 51.7333 50.2739 51.6503 50.3991C51.5673 50.5243 51.3523 50.8684 51.1725 51.1637C50.7258 51.8972 50.6107 52.075 50.4936 52.2123C50.4382 52.2771 50.2694 52.528 50.1183 52.7697C49.9672 53.0115 49.7862 53.2972 49.716 53.4047C49.6458 53.5121 49.4328 53.8515 49.2427 54.159C49.0527 54.4665 48.8377 54.7779 48.765 54.851C48.6922 54.9241 48.6328 55.0209 48.6328 55.066C48.6328 55.1112 48.296 55.6521 47.8844 56.2681C47.4728 56.8842 47.1077 57.4777 47.073 57.5871C47.0382 57.6965 46.9774 57.786 46.9377 57.786C46.8981 57.786 46.7821 57.9331 46.68 58.1129C46.514 58.405 45.9947 59.2224 45.4558 60.0395C45.1669 60.4776 44.3103 61.8017 43.855 62.5142C43.6337 62.8605 43.3464 63.274 43.2165 63.4332L42.9803 63.7226L42.7404 63.4952C42.6085 63.3702 42.4998 63.2391 42.4988 63.2039C42.4961 63.1056 41.6591 61.8642 41.5699 61.8261C41.5266 61.8077 41.4912 61.7493 41.4912 61.6963C41.4912 61.6434 41.407 61.4774 41.3041 61.3275C40.924 60.7737 38.9246 57.7349 38.8756 57.6364C38.7365 57.3566 38.027 56.3232 37.954 56.294C37.9079 56.2755 37.8702 56.2127 37.8702 56.1544C37.8702 56.0961 37.6552 55.7265 37.3924 55.333C37.1296 54.9395 36.8919 54.5723 36.8642 54.517C36.8365 54.4616 36.5989 54.0878 36.3361 53.6861C36.0734 53.2845 35.8585 52.9289 35.8585 52.8959C35.8585 52.863 35.7566 52.7108 35.6322 52.5576C35.5077 52.4045 35.3153 52.1285 35.2047 51.9445C34.9186 51.4684 34.8313 51.3345 34.576 50.9789C34.4516 50.8055 34.3497 50.6226 34.3497 50.5724C34.3497 50.5223 34.2685 50.3935 34.1693 50.2862C34.0701 50.179 33.8122 49.797 33.5963 49.4374C33.3804 49.0778 33.1274 48.6931 33.0341 48.5825C32.9408 48.4718 32.7899 48.2455 32.6988 48.0795C32.6076 47.9136 32.4552 47.658 32.3601 47.5116C31.9411 46.8668 31.0563 45.4677 30.7929 45.0335C30.6346 44.7726 30.4734 44.5364 30.4347 44.5088C30.396 44.4811 30.1872 44.1643 29.9708 43.8047C29.4971 43.0177 28.9622 42.1853 28.8346 42.0367C28.7834 41.9771 28.7104 41.83 28.6722 41.7098C28.634 41.5896 28.5701 41.4912 28.5301 41.4912C28.4902 41.4912 28.3253 41.2649 28.1637 40.9883C28.0022 40.7117 27.8343 40.4854 27.7906 40.4854C27.7469 40.4854 27.7111 40.3975 27.7111 40.2901C27.7111 40.1828 27.6653 40.0666 27.6094 40.032C27.4928 39.96 26.9368 39.1274 26.2575 38.0076C26.0942 37.7384 25.9327 37.4955 25.8986 37.4678C25.8646 37.4402 25.6611 37.1233 25.4465 36.7637C25.2319 36.4042 24.9747 36.0165 24.875 35.9023C24.7752 35.7881 24.6936 35.6618 24.6936 35.6217C24.6936 35.5816 24.3925 35.0866 24.0246 34.5218C23.0158 32.9732 22.7278 32.5205 22.5233 32.162C22.4207 31.9822 22.3043 31.8351 22.2646 31.8351C22.225 31.8351 22.1603 31.7332 22.121 31.6088C22.0816 31.4843 21.954 31.2467 21.8373 31.0807C21.7207 30.9147 21.5801 30.704 21.5249 30.6123C21.4697 30.5206 21.2322 30.1647 20.9971 29.8213C20.762 29.4779 20.5696 29.1639 20.5696 29.1235C20.5696 29.0831 20.4565 28.9185 20.3183 28.7577C20.18 28.597 20.0669 28.4272 20.0668 28.3804C20.0667 28.3337 19.9648 28.1535 19.8404 27.9802C19.7159 27.8068 19.5688 27.5916 19.5135 27.5018C19.1425 26.9 18.6932 26.1627 18.6082 26.0162C18.5529 25.9209 18.382 25.7088 18.2285 25.5449C18.0186 25.3207 17.929 25.2792 17.8674 25.3776C17.7142 25.6219 17.653 31.3524 17.6528 45.4728C17.6527 53.2225 17.6225 64.1875 17.5857 69.8395L17.5188 80.1158H13.7635H10.0082L10.0082 42.7485Z" fill="#EAEAEA"/>
<path d="M24.3725 78.3053C24.1668 75.6625 24.2156 47.5339 24.4258 47.6101C24.5274 47.647 25.7621 49.3972 27.1696 51.4994C28.577 53.6016 30.1233 55.881 30.6058 56.5647L31.483 57.8078V68.8863V79.9649H27.9924H24.5017L24.3725 78.3053Z" fill="#EAEAEA"/>
<path d="M54.2139 69.0515L54.2126 58.138L57.7847 52.8169L61.3567 47.4958L61.4797 54.9292C61.5474 59.0176 61.6153 66.3231 61.6306 71.1637L61.6585 79.9649H57.9368H54.2152L54.2139 69.0515Z" fill="#EAEAEA"/>
<path d="M29.4736 17.3759C28.4237 15.7855 26.275 12.4926 24.6988 10.0585L21.833 5.63275L26.5873 5.57874C29.2021 5.54904 31.3745 5.55773 31.4148 5.59805C31.4551 5.63837 31.4644 8.9555 31.4353 12.9694L31.3825 20.2675L29.4736 17.3759Z" fill="#EAEAEA"/>
<path d="M54.2194 13.0257L54.2152 5.53217H59.142H64.0688L63.4782 6.48772C63.1534 7.01328 60.9382 10.3854 58.5556 13.9813L54.2236 20.5193L54.2194 13.0257Z" fill="#EAEAEA"/>
<path d="M54.3522 12.7445C54.281 8.84734 54.2529 5.62858 54.2897 5.59173C54.3266 5.55489 56.5039 5.54904 59.1283 5.57874L63.8998 5.63275L59.3417 12.5731C56.8348 16.3903 54.7157 19.5847 54.6327 19.6719C54.5497 19.759 54.4234 16.6417 54.3522 12.7445Z" fill="#EAEAEA"/>
<path d="M26.6417 12.812L22.1021 5.83392L26.6211 5.77977C29.1065 5.74999 31.1732 5.75873 31.2136 5.79918C31.2541 5.83963 31.2633 9.00414 31.2342 12.8314L31.1813 19.7901L26.6417 12.812Z" fill="#EAEAEA"/>
</svg>
