<svg
   width="100%"
   height="100%"
   viewBox="0 0 132.29166 31.750001"
   version="1.1"
   id="svg1"
   xml:space="preserve"><defs
     id="defs1" /><g
     id="layer1"><path
       style="font-size:45.1556px;line-height:235.185px;font-family:'Space Grotesk';-inkscape-font-specification:'Space Grotesk';letter-spacing:-2.64583px;word-spacing:0px;fill:currentColor;fill-opacity:1;stroke:none;stroke-width:1.32292;stroke-linecap:square;stroke-opacity:1;paint-order:markers fill stroke"
       d="m 10.468124,23.345487 c -2.7394448,0 -5.0574363,-0.632179 -6.953975,-1.896538 C 1.6477143,20.184589 0.51882222,18.182688 0.12747298,15.443243 L 3.514149,14.675597 c 0.2408304,1.444981 0.6923872,2.588925 1.3546705,3.431832 0.6622833,0.812802 1.4750855,1.399825 2.4384067,1.761071 0.9934251,0.331141 2.0470576,0.496713 3.1608978,0.496713 1.655708,0 2.965223,-0.331142 3.928544,-0.993426 0.963322,-0.662283 1.444983,-1.550345 1.444983,-2.664185 0,-1.143944 -0.466609,-1.941694 -1.399827,-2.393251 -0.903113,-0.481661 -2.152421,-0.87301 -3.747921,-1.174048 L 8.8425194,12.824214 C 7.4276414,12.583383 6.1331785,12.207085 4.9591309,11.695322 3.7850831,11.183558 2.8518658,10.49117 2.1594787,9.618161 1.4670916,8.74515 1.1208979,7.646362 1.1208979,6.321796 c 0,-1.98685 0.7676466,-3.537195 2.3029398,-4.651035 C 4.9591309,0.55692 6.9911365,0 9.5198546,0 c 2.4986144,0 4.5155674,0.571972 6.0508614,1.715916 1.565397,1.113841 2.573874,2.69429 3.02543,4.741346 L 15.254627,7.315221 C 14.983692,5.71972 14.336461,4.60588 13.312932,3.9737 12.289403,3.311417 11.025044,2.980275 9.5198546,2.980275 8.0146653,2.980275 6.8255657,3.266262 5.9525558,3.838234 5.079546,4.380102 4.6430411,5.192903 4.6430411,6.27664 c 0,1.053633 0.4064011,1.836331 1.2192034,2.348095 0.842906,0.481661 1.9567461,0.842907 3.3415203,1.083737 l 1.8513832,0.31609 c 1.565397,0.270933 2.965223,0.647231 4.199479,1.128892 1.264359,0.451556 2.257784,1.11384 2.980275,1.986849 0.752594,0.873011 1.128892,2.016955 1.128892,3.431832 0,2.167473 -0.812803,3.838233 -2.438407,5.012281 -1.595501,1.174047 -3.747922,1.761071 -6.457263,1.761071 z m 14.919745,8.398957 V 28.583546 H 38.03146 c 0.87301,0 1.309515,-0.451557 1.309515,-1.35467 v -8.037711 h -0.63218 c -0.301038,0.63218 -0.767647,1.264359 -1.399826,1.896538 -0.602076,0.602076 -1.399826,1.098788 -2.393251,1.490138 -0.993425,0.361245 -2.242732,0.541868 -3.747921,0.541868 -1.595501,0 -3.070587,-0.346194 -4.425257,-1.03858 -1.324568,-0.692387 -2.378199,-1.715916 -3.160898,-3.070587 -0.752594,-1.35467 -1.128892,-3.010379 -1.128892,-4.967125 V 0.63218 h 3.567298 v 13.140303 c 0,2.167473 0.541868,3.747922 1.625605,4.741347 1.11384,0.993424 2.603978,1.490137 4.470412,1.490137 2.107265,0 3.838233,-0.692387 5.192904,-2.077162 1.354671,-1.384773 2.032006,-3.446883 2.032006,-6.186327 V 0.63218 h 3.567298 v 27.228876 c 0,1.204151 -0.346193,2.152421 -1.038581,2.844807 -0.662283,0.692387 -1.640656,1.038581 -2.935119,1.038581 z M 47.713104,22.713308 V 0.63218 h 3.476988 v 3.747922 h 0.632179 c 0.481661,-1.053633 1.294463,-2.001902 2.438407,-2.844808 1.174047,-0.873011 2.889963,-1.309516 5.147747,-1.309516 1.655708,0 3.130794,0.346194 4.425257,1.038581 1.324567,0.692387 2.378199,1.715916 3.160897,3.070587 0.782699,1.35467 1.174048,3.02543 1.174048,5.01228 V 22.713308 H 64.601328 V 9.618161 c 0,-2.197577 -0.55692,-3.793078 -1.67076,-4.786503 -1.083737,-0.993424 -2.558822,-1.490137 -4.425256,-1.490137 -2.137369,0 -3.883389,0.692387 -5.23806,2.077162 -1.324566,1.384773 -1.986849,3.446883 -1.986849,6.186327 v 11.108298 z m 35.194667,0.632179 c -2.137368,0 -4.064011,-0.451557 -5.779927,-1.35467 -1.685812,-0.933217 -3.02543,-2.257784 -4.018855,-3.9737 -0.963322,-1.715916 -1.444982,-3.747922 -1.444982,-6.096017 v -0.496712 c 0,-2.378199 0.48166,-4.410206 1.444982,-6.096018 C 74.102414,3.612454 75.442032,2.30294 77.127844,1.399826 78.84376,0.466609 80.770403,0 82.907771,0 c 2.107265,0 3.898441,0.39135 5.373527,1.174048 1.505189,0.782698 2.679237,1.821279 3.522143,3.115743 0.87301,1.294462 1.42993,2.679236 1.67076,4.154322 L 89.997214,9.166604 C 89.846695,8.082867 89.485449,7.089442 88.913477,6.186329 88.371609,5.283215 87.603962,4.560724 86.610537,4.018856 85.617112,3.476988 84.397909,3.206054 82.952927,3.206054 c -1.475085,0 -2.799652,0.331141 -3.9737,0.993424 -1.143944,0.662285 -2.062109,1.610553 -2.754496,2.844808 -0.662284,1.234256 -0.993425,2.709341 -0.993425,4.425257 v 0.406402 c 0,1.715916 0.331141,3.191001 0.993425,4.425257 0.692387,1.234255 1.610552,2.182523 2.754496,2.844807 1.174048,0.662284 2.498615,0.993425 3.9737,0.993425 2.197577,0 3.868337,-0.571972 5.012281,-1.715916 1.174047,-1.143944 1.896539,-2.558822 2.167472,-4.244634 l 3.522143,0.767647 c -0.331141,1.444982 -0.933216,2.814703 -1.806227,4.109166 -0.873009,1.294464 -2.062109,2.333045 -3.567298,3.115743 -1.475086,0.782698 -3.266262,1.174047 -5.373527,1.174047 z M 97.104986,22.713308 V 0.63218 h 3.476984 v 2.709341 h 0.63218 c 0.39135,-0.963321 0.99342,-1.67076 1.80623,-2.122317 0.8128,-0.451557 1.88148,-0.677335 3.20605,-0.677335 h 2.61903 v 3.251209 h -2.8448 c -1.59551,0 -2.88997,0.451556 -3.8834,1.35467 -0.96332,0.87301 -1.44498,2.242732 -1.44498,4.109167 v 13.456393 z m 23.770284,0.632179 c -2.22768,0 -4.19949,-0.466609 -5.9154,-1.399825 -1.68581,-0.933218 -3.01037,-2.242733 -3.9737,-3.928545 -0.93321,-1.715916 -1.39982,-3.73287 -1.39982,-6.050861 v -0.587024 c 0,-2.287888 0.46661,-4.28979 1.39982,-6.005706 0.96333,-1.715916 2.28789,-3.040482 3.9737,-3.9737 C 116.67578,0.466609 118.64759,0 120.87527,0 c 2.22768,0 4.18443,0.466609 5.87024,1.399826 1.71592,0.933218 3.04048,2.257784 3.9737,3.9737 0.96332,1.715916 1.44498,3.717818 1.44498,6.005706 v 0.587024 c 0,2.317991 -0.48166,4.334945 -1.44498,6.050861 -0.93322,1.685812 -2.25778,2.995327 -3.9737,3.928545 -1.68581,0.933216 -3.64256,1.399825 -5.87024,1.399825 z m 0,-3.206053 c 2.3481,0 4.21453,-0.737543 5.5993,-2.212629 1.41487,-1.505189 2.12232,-3.522143 2.12232,-6.05086 v -0.406402 c 0,-2.528717 -0.70745,-4.53062 -2.12232,-6.005705 -1.38477,-1.50519 -3.2512,-2.257784 -5.5993,-2.257784 -2.31799,0 -4.18443,0.752594 -5.59931,2.257784 -1.41487,1.475085 -2.12231,3.476988 -2.12231,6.005705 v 0.406402 c 0,2.528717 0.70744,4.545671 2.12231,6.05086 1.41488,1.475086 3.28132,2.212629 5.59931,2.212629 z"
       id="text1"
       aria-label="syncro" /></g></svg>
